<!-- Generated by IcoMoon.io -->
<svg version="1.1" xmlns="http://www.w3.org/2000/svg" width="32" height="32" viewBox="0 0 32 32">
<title>address-pin</title>
<path d="M16 6.050c4.074 0.006 7.374 3.306 7.38 7.379v0.001c0 5.22-4.93 10.16-7.060 12.060-0.085 0.074-0.197 0.119-0.32 0.119s-0.235-0.045-0.321-0.119l0.001 0.001c-2.13-1.89-7.060-6.83-7.060-12.060 0.006-4.074 3.306-7.374 7.379-7.38h0.001zM16 5.050c-4.656 0-8.43 3.774-8.43 8.43v0c0 6.4 6.59 12.2 8.12 13.46 0.083 0.071 0.191 0.114 0.31 0.114s0.227-0.043 0.311-0.114l-0.001 0.001c1.53-1.26 8.12-7.060 8.12-13.46 0-0.015 0-0.032 0-0.050 0-4.656-3.774-8.43-8.43-8.43-0 0-0 0-0 0v0zM16 10.27c0.003 0 0.006-0 0.010-0 1.751 0 3.17 1.419 3.17 3.17s-1.419 3.17-3.17 3.17c-1.751 0-3.17-1.419-3.17-3.17 0-0.004 0-0.007 0-0.011v0.001c0.006-1.743 1.417-3.154 3.159-3.16h0.001zM16 9.27c-2.331 0-4.22 1.889-4.22 4.22s1.889 4.22 4.22 4.22c2.331 0 4.22-1.889 4.22-4.22 0-0.004 0-0.007 0-0.011v0.001c0-0.015 0-0.032 0-0.050 0-2.325-1.885-4.21-4.21-4.21-0.004 0-0.007 0-0.011 0h0.001z"></path>
</svg>
