<!-- Generated by IcoMoon.io -->
<svg version="1.1" xmlns="http://www.w3.org/2000/svg" width="32" height="32" viewBox="0 0 32 32">
<title>address-pin-full</title>
<path d="M16 5c-4.582 0.006-8.294 3.718-8.3 8.299v0.001c0 5.87 5.55 11.43 7.94 13.57 0.096 0.083 0.222 0.134 0.36 0.134s0.264-0.051 0.361-0.135l-0.001 0.001c2.39-2.14 7.94-7.7 7.94-13.57-0.006-4.582-3.718-8.294-8.299-8.3h-0.001zM16 16.86c-1.966 0-3.56-1.594-3.56-3.56s1.594-3.56 3.56-3.56c1.966 0 3.56 1.594 3.56 3.56v0c0 1.966-1.594 3.56-3.56 3.56v0z"></path>
</svg>
