<!-- Generated by IcoMoon.io -->
<svg version="1.1" xmlns="http://www.w3.org/2000/svg" width="32" height="32" viewBox="0 0 32 32">
<title>arrow-left-slim</title>
<path d="M18.94 24c-0 0-0.001 0-0.001 0-0.354 0-0.67-0.163-0.877-0.418l-0.002-0.002-6-7.34c-0.082-0.098-0.132-0.226-0.132-0.365s0.050-0.267 0.133-0.366l-0.001 0.001 6-7.11c0.211-0.247 0.522-0.402 0.87-0.402 0.631 0 1.142 0.511 1.142 1.142 0 0.283-0.103 0.542-0.273 0.742l0.001-0.002-4.8 5.65c-0.085 0.099-0.136 0.228-0.136 0.37s0.052 0.271 0.137 0.371l-0.001-0.001 4.81 5.86c0.162 0.195 0.261 0.449 0.261 0.726 0 0.356-0.163 0.674-0.419 0.883l-0.002 0.002c-0.192 0.162-0.441 0.26-0.714 0.26-0.006 0-0.011-0-0.017-0h0.001z"></path>
</svg>
