<!-- Generated by IcoMoon.io -->
<svg version="1.1" xmlns="http://www.w3.org/2000/svg" width="32" height="32" viewBox="0 0 32 32">
<title>arrow-up-slim</title>
<path d="M8 18.94c0-0 0-0.001 0-0.001 0-0.354 0.163-0.67 0.418-0.877l0.002-0.002 7.34-6c0.098-0.082 0.226-0.132 0.365-0.132s0.267 0.050 0.366 0.133l-0.001-0.001 7.11 6c0.247 0.211 0.402 0.522 0.402 0.87 0 0.631-0.511 1.142-1.142 1.142-0.283 0-0.542-0.103-0.742-0.273l0.002 0.001-5.65-4.8c-0.099-0.085-0.228-0.136-0.37-0.136s-0.271 0.052-0.371 0.137l0.001-0.001-5.86 4.83c-0.195 0.162-0.449 0.261-0.726 0.261-0.356 0-0.674-0.163-0.883-0.419l-0.002-0.002c-0.162-0.192-0.26-0.441-0.26-0.714 0-0.006 0-0.011 0-0.017v0.001z"></path>
</svg>
