<!-- Generated by IcoMoon.io -->
<svg version="1.1" xmlns="http://www.w3.org/2000/svg" width="32" height="32" viewBox="0 0 32 32">
<title>automotriz-y-ferreteria</title>
<path d="M16 5c-6.075 0-11 4.925-11 11s4.925 11 11 11c6.075 0 11-4.925 11-11v0c0-6.075-4.925-11-11-11v0zM22.84 8l-1.42 1.41c-1.462-1.207-3.354-1.939-5.418-1.939-2.102 0-4.027 0.759-5.515 2.019l0.012-0.010-1.42-1.42c1.838-1.612 4.261-2.595 6.915-2.595 2.621 0 5.018 0.96 6.859 2.546l-0.014-0.011zM16 7.93c0.014-0 0.030-0 0.046-0 3.364 0 6.242 2.076 7.425 5.016l0.019 0.054c0.035 0.076 0.055 0.166 0.055 0.26 0 0.143-0.047 0.275-0.126 0.382l0.001-0.002c-0.119 0.187-0.325 0.31-0.56 0.31-0.004 0-0.007-0-0.011-0h-0.999c-0.023 0-0.050 0.001-0.077 0.001-1.171 0-2.259-0.355-3.163-0.963l0.020 0.013c-0.744-0.482-1.653-0.769-2.63-0.769s-1.886 0.287-2.649 0.781l0.019-0.012c-0.883 0.595-1.971 0.951-3.143 0.951-0.027 0-0.054-0-0.082-0.001l0.004 0h-1c-0.003 0-0.007 0-0.010 0-0.235 0-0.441-0.123-0.558-0.307l-0.002-0.003c-0.078-0.105-0.125-0.237-0.125-0.38 0-0.094 0.020-0.183 0.057-0.264l-0.002 0.004c1.202-2.994 4.081-5.070 7.444-5.070 0.016 0 0.032 0 0.048 0h-0.002zM16 26.54c-0.004 0-0.009 0-0.014 0-5.816 0-10.53-4.714-10.53-10.53 0-3.006 1.259-5.717 3.279-7.636l0.005-0.004 1.42 1.41c-0.882 0.822-1.587 1.822-2.059 2.944l-0.021 0.056c-0.052 0.126-0.083 0.271-0.083 0.424 0 0.242 0.076 0.466 0.205 0.649l-0.002-0.004c0.198 0.31 0.54 0.512 0.93 0.512 0.025 0 0.049-0.001 0.073-0.002l-0.003 0h1c0.033 0.001 0.071 0.001 0.11 0.001 1.25 0 2.413-0.374 3.383-1.015l-0.023 0.014c0.674-0.433 1.497-0.69 2.38-0.69s1.706 0.257 2.398 0.701l-0.018-0.011c0.944 0.627 2.104 1.001 3.351 1.001 0.042 0 0.083-0 0.125-0.001l-0.006 0h1c0.006 0 0.014 0 0.021 0 0.389 0 0.73-0.202 0.926-0.506l0.003-0.004c0.127-0.18 0.203-0.404 0.203-0.646 0-0.153-0.030-0.299-0.085-0.432l0.003 0.008c-0.5-1.225-1.23-2.263-2.144-3.105l-0.006-0.005 1.41-1.42c2.092 1.932 3.397 4.689 3.397 7.75 0 5.821-4.719 10.54-10.54 10.54-0.031 0-0.061-0-0.092-0l0.005 0z"></path>
<path d="M14.060 21c-1.163-0.577-2.020-1.621-2.334-2.88l-0.006-0.030c-0.075-0.306-0.346-0.529-0.67-0.53h-2.55c-0.381 0.008-0.686 0.318-0.686 0.7 0 0.068 0.010 0.133 0.028 0.195l-0.001-0.005c0.854 2.739 2.975 4.85 5.66 5.674l0.060 0.016h0.2c0.379-0.006 0.684-0.311 0.69-0.689v-1.791c0-0.001 0-0.003 0-0.005 0-0.27-0.158-0.504-0.386-0.613l-0.004-0.002zM14 23.52c0 0 0 0.001 0 0.001 0 0.127-0.103 0.23-0.23 0.23-0.025 0-0.049-0.004-0.072-0.011l0.002 0c-2.597-0.791-4.605-2.789-5.395-5.323l-0.015-0.057c-0.014-0.029-0.022-0.064-0.022-0.1s0.008-0.071 0.022-0.101l-0.001 0.001c0.040-0.061 0.108-0.1 0.184-0.1 0.002 0 0.004 0 0.006 0h2.55c0.002-0 0.004-0 0.005-0 0.109 0 0.201 0.076 0.224 0.179l0 0.002c0.354 1.421 1.299 2.573 2.552 3.197l0.028 0.013c0.077 0.035 0.13 0.112 0.13 0.201 0 0.003-0 0.006-0 0.010v-0z"></path>
<path d="M24.050 17.88c-0.123-0.17-0.321-0.28-0.545-0.28-0.002 0-0.004 0-0.005 0h-2.5c-0.324 0.001-0.595 0.224-0.669 0.525l-0.001 0.005c-0.327 1.272-1.179 2.3-2.304 2.859l-0.026 0.011c-0.227 0.111-0.38 0.339-0.38 0.604 0 0.002 0 0.004 0 0.006v-0 1.89c0.016 0.375 0.315 0.674 0.689 0.69l0.001 0c0.032 0.005 0.068 0.007 0.105 0.007s0.073-0.003 0.109-0.008l-0.004 0c2.694-0.858 4.771-2.948 5.594-5.59l0.016-0.060c0.019-0.060 0.030-0.128 0.030-0.2 0-0.155-0.053-0.298-0.142-0.412l0.001 0.002zM23.69 18.41c-0.798 2.556-2.762 4.533-5.253 5.334l-0.057 0.016c-0.029 0.016-0.063 0.025-0.1 0.025s-0.071-0.009-0.101-0.026l0.001 0.001c-0.060-0.038-0.1-0.104-0.1-0.179 0-0 0-0.001 0-0.001v0-1.98c0-0.089 0.053-0.165 0.129-0.199l0.001-0.001c1.231-0.648 2.135-1.775 2.473-3.127l0.007-0.033c0.024-0.104 0.115-0.18 0.224-0.18 0.002 0 0.004 0 0.006 0h2.58c0.002-0 0.004-0 0.006-0 0.077 0 0.145 0.039 0.184 0.099l0 0.001c0.014 0.029 0.022 0.064 0.022 0.1s-0.008 0.071-0.022 0.101l0.001-0.001z"></path>
<path d="M19 17.080c0-1.657-1.343-3-3-3s-3 1.343-3 3c0 1.657 1.343 3 3 3v0c1.657 0 3-1.343 3-3v0zM16 19.65c-1.419 0-2.57-1.151-2.57-2.57s1.151-2.57 2.57-2.57c1.419 0 2.57 1.151 2.57 2.57v0c0 1.419-1.151 2.57-2.57 2.57v0z"></path>
</svg>
