<!-- Generated by IcoMoon.io -->
<svg version="1.1" xmlns="http://www.w3.org/2000/svg" width="32" height="32" viewBox="0 0 32 32">
<title>bebes-y-juguetes</title>
<path d="M20.26 13.69v-1.29c-0.009-0.668-0.529-1.212-1.186-1.26l-0.004-0v-0.31c0-0.008 0-0.018 0-0.027 0-0.737-0.355-1.39-0.904-1.798l-0.006-0.004c-0.66-0.48-1-0.71-0.68-1.7 0.076-0.19 0.129-0.411 0.149-0.641l0.001-0.009c0.003-0.038 0.005-0.082 0.005-0.127 0-0.895-0.725-1.62-1.62-1.62s-1.62 0.725-1.62 1.62c0 0.045 0.002 0.089 0.005 0.133l-0-0.006c0.013 0.237 0.067 0.459 0.155 0.662l-0.005-0.012c0.3 1 0 1.24-0.68 1.7-0.532 0.425-0.87 1.074-0.87 1.802 0 0.010 0 0.020 0 0.030v-0.002 0.31c-0.661 0.048-1.181 0.592-1.19 1.259v1.291c-0.637 0.235-1.085 0.834-1.090 1.539v10.131c-0 0.003-0 0.007-0 0.010 0 0.89 0.713 1.613 1.598 1.63l0.002 0h7.35c0.003 0 0.006 0 0.010 0 0.906 0 1.64-0.734 1.64-1.64 0 0 0-0 0-0v0-10.13c0-0.012 0.001-0.026 0.001-0.041 0-0.688-0.437-1.275-1.049-1.496l-0.011-0.004zM14.32 9.57c0.691-0.304 1.164-0.983 1.164-1.771 0-0.282-0.060-0.549-0.169-0.791l0.005 0.012c-0.047-0.116-0.082-0.251-0.099-0.392l-0.001-0.008c0-0.475 0.385-0.86 0.86-0.86s0.86 0.385 0.86 0.86v0c-0.021 0.161-0.056 0.307-0.105 0.446l0.005-0.016c-0.107 0.233-0.169 0.505-0.169 0.792 0 0.773 0.453 1.441 1.107 1.753l0.012 0.005c0.36 0.279 0.59 0.711 0.59 1.198 0 0.011-0 0.023-0 0.034l0-0.002v0.28h-4.6v-0.28c-0.001-0.021-0.002-0.045-0.002-0.069 0-0.482 0.226-0.912 0.578-1.188l0.003-0.002zM13.1 11.87h5.9c0.29 0.005 0.524 0.24 0.53 0.529v1.191h-6.98v-1.19c-0-0.003-0-0.007-0-0.010 0-0.284 0.227-0.514 0.51-0.52h0.001zM12.35 14.35h7.35c0.484 0.006 0.874 0.396 0.88 0.879v3.001c-0.213 0.173-0.487 0.277-0.785 0.277-0.356 0-0.677-0.149-0.904-0.387l-0-0-0.33-0.32c-0.364-0.378-0.875-0.612-1.44-0.612s-1.076 0.234-1.439 0.611l-0.001 0.001-0.22 0.22c-0.228 0.236-0.547 0.383-0.9 0.383s-0.672-0.147-0.9-0.382l-0-0c-0.363-0.368-0.867-0.595-1.424-0.595-0.288 0-0.562 0.061-0.809 0.17l0.013-0.005v-2.36c0.017-0.489 0.417-0.88 0.909-0.88 0 0 0 0 0.001 0h-0zM19.7 26.24h-7.35c-0.484-0.006-0.874-0.396-0.88-0.879v-6.921c0.213-0.178 0.49-0.285 0.791-0.285 0.353 0 0.672 0.148 0.898 0.385l0 0c0.371 0.363 0.879 0.587 1.44 0.587s1.069-0.224 1.44-0.587l-0 0 0.22-0.23c0.23-0.231 0.548-0.374 0.9-0.374s0.67 0.143 0.9 0.374l0.33 0.33c0.361 0.359 0.859 0.58 1.409 0.58 0.011 0 0.022-0 0.033-0l-0.002 0c0.001 0 0.003 0 0.004 0 0.279 0 0.546-0.055 0.789-0.155l-0.014 0.005v6.31c-0.037 0.477-0.428 0.851-0.909 0.86h-0.001z"></path>
<path d="M17.5 16.42h1.44c0.21 0 0.38-0.17 0.38-0.38s-0.17-0.38-0.38-0.38h-1.44c-0.21 0-0.38 0.17-0.38 0.38s0.17 0.38 0.38 0.38v0z"></path>
<path d="M18.94 19.9h-1.44c-0.21 0-0.38 0.17-0.38 0.38s0.17 0.38 0.38 0.38v0h1.44c0.21 0 0.38-0.17 0.38-0.38s-0.17-0.38-0.38-0.38v0z"></path>
<path d="M18.94 24.15h-1.44c-0.018-0.003-0.040-0.005-0.061-0.005-0.21 0-0.38 0.17-0.38 0.38s0.17 0.38 0.38 0.38c0.022 0 0.043-0.002 0.064-0.005l-0.002 0h1.44c0.018 0.003 0.040 0.005 0.061 0.005 0.21 0 0.38-0.17 0.38-0.38s-0.17-0.38-0.38-0.38c-0.022 0-0.043 0.002-0.064 0.005l0.002-0z"></path>
<path d="M18.94 22h-0.73c-0.21 0-0.38 0.17-0.38 0.38s0.17 0.38 0.38 0.38v0h0.73c0.21 0 0.38-0.17 0.38-0.38s-0.17-0.38-0.38-0.38v0z"></path>
</svg>
