<!-- Generated by IcoMoon.io -->
<svg version="1.1" xmlns="http://www.w3.org/2000/svg" width="32" height="32" viewBox="0 0 32 32">
<title>belleza-y-cuidado-personal</title>
<path d="M26 15.8c0-1.657-1.343-3-3-3v0h-4v-0.45c0-0.007 0-0.015 0-0.023 0-0.47-0.26-0.88-0.644-1.093l-0.006-0.003v-5c0.002-0.026 0.003-0.056 0.003-0.087 0-0.579-0.436-1.057-0.998-1.122l-0.005-0h-2c-0.567 0.066-1.003 0.543-1.003 1.123 0 0.031 0.001 0.061 0.004 0.091l-0-0.004v5.060c-0.39 0.206-0.651 0.609-0.651 1.073 0 0.017 0 0.033 0.001 0.049l-0-0.002v0.44h-3.97c-1.657 0-3 1.343-3 3v0 7.66c-0.005 0.070-0.008 0.152-0.008 0.234 0 1.722 1.315 3.137 2.995 3.295l0.013 0.001h13.21c1.694-0.165 3.008-1.582 3.008-3.305 0-0.079-0.003-0.157-0.008-0.235l0.001 0.010zM15.29 5.8h2.12c0.176 0.020 0.311 0.168 0.311 0.348 0 0.008-0 0.016-0.001 0.023l0-0.001v5.12h-2.72v-5.17c-0-0.007-0.001-0.014-0.001-0.022 0-0.179 0.135-0.327 0.309-0.348l0.002-0zM14.59 12h3.48c0.164 0.015 0.291 0.152 0.291 0.319 0 0.008-0 0.015-0.001 0.022l0-0.001v0.5h-4.060v-0.5c-0-0.006-0.001-0.014-0.001-0.021 0-0.166 0.127-0.303 0.289-0.319l0.001-0zM9.73 13.58h13.21c1.261 0.002 2.294 0.975 2.39 2.212l0 0.008v1.69h-18v-1.68c0.096-1.25 1.134-2.228 2.4-2.23h0zM22.94 26.24h-13.21c-1.358-0.16-2.401-1.304-2.401-2.692 0-0.031 0-0.061 0.002-0.092l-0 0.004v-4.17h18v-0.45h-18v-0.9h18v5.53c0.001 0.029 0.002 0.063 0.002 0.097 0 1.381-1.040 2.518-2.379 2.672l-0.012 0.001z"></path>
<path d="M16.33 9.32c0.442 0 0.8-0.358 0.8-0.8v0c0-0 0-0 0-0 0-0.436-0.354-0.79-0.79-0.79-0.004 0-0.007 0-0.011 0h0.001c-0.436 0-0.79 0.354-0.79 0.79v0c-0 0.003-0 0.006-0 0.010 0 0.436 0.354 0.79 0.79 0.79 0 0 0 0 0 0v0z"></path>
</svg>
