<!-- Generated by IcoMoon.io -->
<svg version="1.1" xmlns="http://www.w3.org/2000/svg" width="32" height="32" viewBox="0 0 32 32">
<title>billings</title>
<path d="M17.33 19.23c0.036 0.044 0.057 0.101 0.057 0.163 0 0.090-0.046 0.17-0.116 0.217l-0.001 0.001c-0.024 0.024-0.055 0.041-0.089 0.050l-0.001 0c-0.053 0.025-0.115 0.040-0.18 0.040-0.144 0-0.271-0.070-0.349-0.178l-0.001-0.001c-0.050-0.121-0.147-0.214-0.267-0.259l-0.003-0.001c-0.098-0.063-0.217-0.101-0.345-0.101-0.012 0-0.025 0-0.037 0.001l0.002-0c-0.009-0-0.019-0.001-0.029-0.001-0.178 0-0.342 0.060-0.472 0.162l0.002-0.001c-0.127 0.115-0.209 0.277-0.22 0.458l-0 0.002c0 0.46 0.42 0.56 0.8 0.63 0.72 0.17 1.42 0.3 1.42 1.28-0.003 0.37-0.173 0.7-0.438 0.918l-0.002 0.002c-0.192 0.157-0.425 0.272-0.679 0.328l-0.011 0.002v0.49c0 0.21-0.17 0.38-0.38 0.38s-0.38-0.17-0.38-0.38v0-0.49c-0.159-0.022-0.301-0.079-0.424-0.162l0.004 0.002c-0.232-0.114-0.416-0.298-0.527-0.523l-0.003-0.007c-0.033-0.044-0.053-0.1-0.053-0.16 0-0.090 0.044-0.17 0.112-0.219l0.001-0.001 0.090-0.050c0.055-0.028 0.12-0.045 0.189-0.045 0.14 0 0.264 0.068 0.34 0.174l0.001 0.001c0.053 0.122 0.148 0.217 0.267 0.269l0.003 0.001c0.11 0.060 0.24 0.096 0.379 0.1l0.001 0c0.201-0.001 0.387-0.060 0.544-0.162l-0.004 0.002c0.119-0.118 0.195-0.279 0.2-0.459l0-0.001c0-0.46-0.42-0.56-0.81-0.63-0.72-0.12-1.41-0.29-1.41-1.27-0-0.008-0-0.018-0-0.028 0-0.364 0.162-0.691 0.419-0.911l0.002-0.001c0.192-0.157 0.425-0.272 0.679-0.328l0.011-0.002v-0.48c0-0.21 0.17-0.38 0.38-0.38s0.38 0.17 0.38 0.38v0 0.49c0.159 0.035 0.299 0.091 0.427 0.164l-0.007-0.004c0.229 0.119 0.411 0.301 0.527 0.523l0.003 0.007zM21.070 7.23c0.003-0 0.006-0 0.010-0 0.21 0 0.38 0.17 0.38 0.38 0 0 0 0 0 0v0c0 0.006 0.001 0.013 0.001 0.021 0 0.192-0.15 0.349-0.34 0.359l-0.001 0h-10.19c-0.21 0-0.38-0.17-0.38-0.38v0c0.010-0.206 0.174-0.37 0.379-0.38l0.001-0zM21.070 9.33c0.009-0.001 0.020-0.001 0.031-0.001 0.189 0 0.344 0.145 0.359 0.33l0 0.001v0.050c0 0.21-0.17 0.38-0.38 0.38v0h-10.15c-0.206-0.010-0.37-0.174-0.38-0.379l-0-0.001c0-0.21 0.17-0.38 0.38-0.38v0zM21.070 11.39c0 0 0 0 0 0 0.215 0 0.39 0.175 0.39 0.39 0 0.004-0 0.007-0 0.011v-0.001c0 0.21-0.17 0.38-0.38 0.38v0h-10.15c-0.206-0.010-0.37-0.174-0.38-0.379l-0-0.001c0-0.001 0-0.001 0-0.002 0-0.218 0.166-0.397 0.378-0.418l0.002-0zM21.070 13.48c0.003-0 0.007-0 0.010-0 0.21 0 0.38 0.17 0.38 0.38 0 0.004-0 0.007-0 0.011v-0.001c0 0.003 0 0.007 0 0.011 0 0.194-0.149 0.353-0.339 0.369l-0.001 0h-10.19c-0.208-0.005-0.375-0.172-0.38-0.38v-0.001c0.010-0.208 0.173-0.375 0.379-0.39l0.001-0zM23.36 27h-14.72c-0.204-0.015-0.365-0.176-0.38-0.379l-0-0.001v-21.24c0.015-0.204 0.176-0.365 0.379-0.38l0.001-0h14.72c0.21 0 0.38 0.17 0.38 0.38v0 21.24c0 0.21-0.17 0.38-0.38 0.38v0zM9 26.24h14v-20.48h-14z"></path>
</svg>
