		<svg id="icn-calendario-outline" xmlns="http://www.w3.org/2000/svg" width="32" height="32" viewBox="0 0 48 48" >
			<title>icn-calendario-outline</title>
			<g fill="#333333">
	            <path d="M43.1,17.05 L43.1,10.24 C43.1,10.0522232 42.9477768,9.9 42.76,9.9 L34,9.9 L34,12.1 C34,12.6522847 33.5522847,13.1 33,13.1 C32.4477153,13.1 32,12.6522847 32,12.1 L32,9.9 L14,9.9 L14,12 C14,12.5522847 13.5522847,13 13,13 C12.4477153,13 12,12.5522847 12,12 L12,9.9 L5.24,9.9 C5.05222319,9.9 4.9,10.0522232 4.9,10.24 L4.9,17.05 L43.1,17.05 Z M43.1,18.95 L4.9,18.95 L4.9,40.76 C4.9,40.8501736 4.93582133,40.9366539 4.99958369,41.0004163 C5.06334606,41.0641787 5.14982639,41.1 5.24,41.1 L42.76,41.1 C42.8501736,41.1 42.9366539,41.0641787 43.0004163,41.0004163 C43.0641787,40.9366539 43.1,40.8501736 43.1,40.76 L43.1,18.95 Z M14,8 L32,8 L32,5.1 C32,4.54771525 32.4477153,4.1 33,4.1 C33.5522847,4.1 34,4.54771525 34,5.1 L34,8 L42.76,8 C43.9971178,8 45,9.00288216 45,10.24 L45,40.76 C45,41.9971178 43.9971178,43 42.76,43 L5.24,43 C4.00288216,43 3,41.9971178 3,40.76 L3,10.24 C3,9.00288216 4.00288216,8 5.24,8 L12,8 L12,5 C12,4.44771525 12.4477153,4 13,4 C13.5522847,4 14,4.44771525 14,5 L14,8 Z"/>
			</g>
		</svg>	