<!-- Generated by IcoMoon.io -->
<svg version="1.1" xmlns="http://www.w3.org/2000/svg" width="32" height="32" viewBox="0 0 32 32">
<title>cart</title>
<path d="M12 22c-1.105 0-2 0.895-2 2s0.895 2 2 2c1.105 0 2-0.895 2-2v0c0-1.105-0.895-2-2-2v0zM26 9c0-0.552-0.448-1-1-1v0h-14.8l-0.63-1.39c-0.156-0.362-0.509-0.61-0.921-0.61-0.007 0-0.013 0-0.020 0h-1.629c-0.552 0-1 0.448-1 1s0.448 1 1 1v0h1l3.6 7.7-1.4 2.43c-0.107 0.295-0.179 0.636-0.2 0.99l-0 0.010c0 1.105 0.895 2 2 2v0h11c0.552 0 1-0.448 1-1s-0.448-1-1-1v0h-10.6c-0.106-0.010-0.19-0.094-0.2-0.199l-0-0.001v-0.1l0.9-1.72h7.4c0.022 0.001 0.048 0.002 0.074 0.002 0.707 0 1.319-0.403 1.621-0.991l0.005-0.010zM21.6 22c-1.105 0-2 0.895-2 2s0.895 2 2 2c1.105 0 2-0.895 2-2v0c0-1.105-0.895-2-2-2v0z"></path>
</svg>
