<!-- Generated by IcoMoon.io -->
<svg version="1.1" xmlns="http://www.w3.org/2000/svg" width="32" height="32" viewBox="0 0 32 32">
<title>cart-checkout</title>
<path d="M26.74 10.87c-0.198-0.28-0.52-0.461-0.885-0.461-0.012 0-0.025 0-0.037 0.001l0.002-0h-14.52l-0.83-3c-0.161-0.485-0.61-0.829-1.14-0.83h-3.74c-0.329 0.016-0.59 0.287-0.59 0.619 0 0.004 0 0.008 0 0.011v-0.001c0.011 0.321 0.269 0.579 0.589 0.59l0.001 0h3.71l0.92 3.29s0 0 0 0.060l2.91 10.47c-0.558 0.375-0.92 1.003-0.92 1.716 0 1.138 0.922 2.060 2.060 2.060 1.136 0 2.058-0.92 2.060-2.056v-0c0-0.005 0-0.010 0-0.016 0-0.297-0.070-0.577-0.195-0.825l0.005 0.011h4.58c-0.12 0.238-0.19 0.518-0.19 0.814 0 0.005 0 0.011 0 0.016v-0.001c0 1.138 0.922 2.060 2.060 2.060s2.060-0.922 2.060-2.060c0-1.138-0.922-2.060-2.060-2.060v0h-8.3l-0.58-2.12 10.35-0.67c0.63-0.053 1.145-0.487 1.317-1.069l0.003-0.011 1.62-5.53c0.026-0.088 0.040-0.189 0.040-0.293 0-0.27-0.098-0.518-0.261-0.708l0.001 0.002zM22.66 24.5c-0.608 0-1.1-0.492-1.1-1.1v0c0.006-0.328 0.147-0.622 0.369-0.829l0.001-0.001c0.178-0.168 0.419-0.271 0.685-0.271 0.016 0 0.032 0 0.048 0.001l-0.002-0c0.002-0 0.005-0 0.008-0 0.163 0 0.319 0.033 0.46 0.093l-0.008-0.003c0.394 0.173 0.664 0.56 0.664 1.010 0 0.608-0.492 1.1-1.1 1.1-0.005 0-0.010-0-0.015-0h0.001zM15.41 23.4c0.003 0.032 0.005 0.068 0.005 0.105 0 0.613-0.497 1.11-1.11 1.11s-1.11-0.497-1.11-1.11c0-0.037 0.002-0.074 0.005-0.11l-0 0.005c0.013-0.357 0.177-0.673 0.428-0.889l0.002-0.001c0.17-0.138 0.389-0.221 0.627-0.221 0.018 0 0.037 0 0.055 0.002l-0.003-0c0.28 0.010 0.533 0.114 0.732 0.281l-0.002-0.001c0.227 0.196 0.37 0.484 0.37 0.805 0 0.009-0 0.018-0 0.026l0-0.001zM13.41 18l-1.78-6.36h2.24l1.23 6.23zM16.41 17.81l-1.2-6.17h2.7l0.22 6.050zM21.13 17.5l-1.78 0.13-0.22-6h2.74zM24.27 17.14c-0.048 0.085-0.125 0.149-0.217 0.179l-0.003 0.001-1.69 0.12 0.77-5.8h2.67z"></path>
</svg>
