<!-- Generated by IcoMoon.io -->
<svg version="1.1" xmlns="http://www.w3.org/2000/svg" width="32" height="32" viewBox="0 0 32 32">
<title>cash</title>
<path d="M18.18 13.35c-0.42-0.475-1.030-0.775-1.709-0.78h-0.001c-0.78 0-1.17 0.31-1.17 1 0 1.48 4.21 1.41 4.21 4.45 0.002 0.041 0.003 0.088 0.003 0.136 0 1.46-1.082 2.667-2.488 2.862l-0.015 0.002v1.64h-1.56v-1.59c-1.085-0.129-2.046-0.58-2.805-1.255l0.005 0.005 1-1.56c0.594 0.554 1.383 0.905 2.253 0.94l0.007 0c0.86 0 1.33-0.39 1.33-1.090 0-1.64-4.21-1.64-4.21-4.53-0.003-0.050-0.005-0.108-0.005-0.166 0-1.424 1.038-2.606 2.398-2.831l0.017-0.002v-1.58h1.56v1.64c0.974 0.137 1.817 0.618 2.416 1.315l0.004 0.005z"></path>
<path d="M16 27c-6.075 0-11-4.925-11-11s4.925-11 11-11c6.075 0 11 4.925 11 11v0c0 6.075-4.925 11-11 11v0zM16 7c-4.971 0-9 4.029-9 9s4.029 9 9 9c4.971 0 9-4.029 9-9v0c0-4.971-4.029-9-9-9v0z"></path>
</svg>
