<!-- Generated by IcoMoon.io -->
<svg version="1.1" xmlns="http://www.w3.org/2000/svg" width="32" height="32" viewBox="0 0 32 32">
<title>check</title>
<path d="M23.16 12.2v0l-7.5 8.64c-0.24 0.291-0.601 0.475-1.005 0.475-0.314 0-0.602-0.111-0.827-0.297l0.002 0.002c-0.064-0.053-0.12-0.112-0.168-0.177l-0.002-0.003-3.46-4.14c-0.194-0.225-0.313-0.519-0.313-0.842 0-0.401 0.183-0.76 0.47-0.996l0.002-0.002c0.224-0.184 0.514-0.296 0.83-0.296 0.406 0 0.768 0.184 1.009 0.474l0.002 0.002 2.45 2.96 6.49-7.45c0.246-0.293 0.612-0.478 1.021-0.478 0.319 0 0.612 0.112 0.841 0.3l-0.002-0.002c0.29 0.238 0.474 0.597 0.474 0.999 0 0.318-0.115 0.608-0.305 0.833l0.002-0.002z"></path>
</svg>
