<!-- Generated by IcoMoon.io -->
<svg version="1.1" xmlns="http://www.w3.org/2000/svg" width="32" height="32" viewBox="0 0 32 32">
<title>check-full</title>
<path d="M16 4c-6.627 0-12 5.373-12 12s5.373 12 12 12c6.627 0 12-5.373 12-12v0c0-6.627-5.373-12-12-12v0zM21.2 13.88l-5.45 6.49c-0.22 0.261-0.546 0.425-0.911 0.425-0.285 0-0.546-0.1-0.751-0.267l0.002 0.002c-0.059-0.049-0.111-0.101-0.158-0.158l-0.002-0.002-3.13-3.74c-0.169-0.203-0.272-0.467-0.272-0.755 0-0.653 0.529-1.182 1.182-1.182 0.365 0 0.692 0.165 0.908 0.426l0.002 0.002 2.22 2.65 4.55-5.41c0.22-0.257 0.544-0.419 0.906-0.419 0.287 0 0.55 0.102 0.756 0.271l-0.002-0.002c0.266 0.216 0.434 0.543 0.434 0.91 0 0.282-0.1 0.54-0.266 0.742l0.002-0.002z"></path>
</svg>
