<!-- Generated by IcoMoon.io -->
<svg version="1.1" xmlns="http://www.w3.org/2000/svg" width="32" height="32" viewBox="0 0 32 32">
<title>close</title>
<path d="M17.83 16l5.29-5.29c0.234-0.234 0.379-0.558 0.379-0.915 0-0.715-0.579-1.294-1.294-1.294-0.357 0-0.681 0.145-0.915 0.379v0l-5.29 5.29-5.29-5.29c-0.234-0.234-0.558-0.379-0.915-0.379-0.715 0-1.294 0.579-1.294 1.294 0 0.357 0.145 0.681 0.379 0.915l5.29 5.29-5.29 5.29c-0.234 0.234-0.379 0.558-0.379 0.915 0 0.715 0.579 1.294 1.294 1.294 0.357 0 0.681-0.145 0.915-0.379v0l5.29-5.29 5.29 5.29c0.234 0.234 0.558 0.379 0.915 0.379 0.715 0 1.294-0.579 1.294-1.294 0-0.357-0.145-0.681-0.379-0.915v0z"></path>
</svg>
