<!-- Generated by IcoMoon.io -->
<svg version="1.1" xmlns="http://www.w3.org/2000/svg" width="32" height="32" viewBox="0 0 32 32">
<title>colchones-y-muebles</title>
<path d="M27 15.72c0 0 0-0 0-0 0-1.005-0.815-1.82-1.82-1.82-0.004 0-0.007 0-0.011 0h-0.229l-0.77-3.12c-0.36-1-1.090-2.19-3.49-2.19h-9.36c-2.4 0-3.13 1.17-3.49 2.19l-0.77 3.12h-0.23c-0.005-0-0.011-0-0.017-0-1.005 0-1.82 0.815-1.82 1.82 0 0.782 0.493 1.448 1.184 1.706l0.013 0.004v4.080c-0 0.003-0 0.007-0 0.010 0 0.464 0.376 0.84 0.84 0.84 0.004 0 0.007-0 0.011-0h-0.001c-0.003 0.030-0.004 0.065-0.004 0.1s0.002 0.070 0.005 0.104l-0-0.004c0.006 0.46 0.38 0.83 0.84 0.83 0 0 0 0 0 0h0.49c0 0 0 0 0 0 0.46 0 0.834-0.37 0.84-0.829v-0.001c0.004-0.027 0.005-0.058 0.005-0.090s-0.002-0.063-0.006-0.094l0 0.004h13.65c-0.003 0.027-0.006 0.058-0.006 0.090s0.002 0.063 0.006 0.094l-0-0.004c0.006 0.46 0.38 0.83 0.84 0.83 0 0 0 0 0 0h0.49c0 0 0 0 0 0 0.46 0 0.834-0.37 0.84-0.829v-0.001c0.003-0.030 0.004-0.065 0.004-0.1s-0.002-0.070-0.005-0.104l0 0.004c0.003 0 0.007 0 0.010 0 0.464 0 0.84-0.376 0.84-0.84 0-0.004-0-0.007-0-0.011v0.001-4.080c0.664-0.288 1.12-0.937 1.12-1.693 0-0.006-0-0.012-0-0.018v0.001zM16.17 9.12h4.51c2.060 0 2.66 0.87 3 1.83l0.76 3.050c-0.559 0.242-0.965 0.744-1.068 1.349l-0.002 0.011h-7.2zM23.34 15.7v0c0 0.001 0 0.003 0 0.005 0 0.631 0.323 1.187 0.813 1.511l0.007 0.004h-16.32c0.496-0.324 0.82-0.876 0.82-1.504 0-0.005-0-0.011-0-0.016v0.001zM8.32 11c0.34-1 0.94-1.83 3-1.83h4.51v6.23h-7.2c-0.092-0.632-0.502-1.151-1.058-1.395l-0.012-0.005zM6.32 17c-0.48-0.211-0.808-0.682-0.808-1.23 0-0.736 0.593-1.333 1.328-1.34h0.111c0.186 0.009 0.357 0.064 0.505 0.153l-0.005-0.003c0.441 0.222 0.739 0.671 0.74 1.19v0c-0.011 0.739-0.61 1.334-1.349 1.34h-0.001c-0.007 0-0.016 0-0.025 0-0.173 0-0.337-0.041-0.482-0.113l0.006 0.003zM8.43 23h-0.68c-0.135-0.011-0.24-0.123-0.24-0.259 0-0.004 0-0.008 0-0.011l-0 0.001c-0-0.003-0-0.007-0-0.010 0-0.135 0.106-0.244 0.24-0.25l0-0h0.65c0.129 0.011 0.23 0.118 0.23 0.249 0 0.004-0 0.008-0 0.011l0-0.001c0 0.003 0 0.008 0 0.012 0 0.133-0.1 0.243-0.229 0.258l-0.001 0zM24.25 23h-0.65c-0.13-0.015-0.23-0.125-0.23-0.258 0-0.004 0-0.008 0-0.012l-0 0.001c-0-0.003-0-0.007-0-0.011 0-0.131 0.101-0.239 0.229-0.249l0.001-0h0.65c0.134 0.005 0.24 0.115 0.24 0.25 0 0.004-0 0.007-0 0.011l0-0c0 0.003 0 0.007 0 0.011 0 0.137-0.105 0.249-0.239 0.259l-0.001 0zM25.25 21.6c0 0.003 0 0.007 0 0.010 0 0.149-0.121 0.27-0.27 0.27-0.004 0-0.007-0-0.011-0l0 0h-17.97c-0.003 0-0.007 0-0.010 0-0.149 0-0.27-0.121-0.27-0.27 0-0.004 0-0.007 0-0.011l-0 0v-4h18.5zM25.69 17c-0.139 0.070-0.302 0.11-0.475 0.11-0.009 0-0.017-0-0.026-0l0.001 0c-0.74-0.006-1.339-0.601-1.35-1.339v-0.001c0.001-0.519 0.299-0.968 0.732-1.187l0.008-0.004c0.143-0.086 0.314-0.141 0.497-0.15l0.003-0h0.11c0.74 0 1.34 0.6 1.34 1.34v0c0 0 0 0 0 0 0 0.556-0.344 1.032-0.831 1.227l-0.009 0.003z"></path>
</svg>
