<svg xmlns="http://www.w3.org/2000/svg" id="Group_478" data-name="Group 478" viewBox="0 0 112.339 32.711">
    <defs>
        <style>
            .cls-1{fill:#da291c}.cls-2{fill:#1f1f1d}.cls-3{fill:#fff;stroke:#fff;stroke-miterlimit:10;stroke-width:.5px}.cls-4{fill:#020203}
        </style>
    </defs>
    <g id="Group_420" data-name="Group 420" transform="translate(29.982 4.303)">
        <path id="Path_602" d="M138.459 51.87H64.8V36h82.357z" class="cls-1" data-name="Path 602" transform="translate(-64.8 -23.646)" style="fill: #e42313"/>
        <g id="Group_418" data-name="Group 418" transform="translate(5.182)">
            <path id="Path_603" d="M78.313 10.433H76V9.6h5.645v.833h-2.314v6.894h-1.018z" class="cls-2" data-name="Path 603" transform="translate(-76 -9.461)"/>
            <path id="Path_604" d="M89.6 17.509V13.9h.972v3.47c0 1.064.324 1.527 1.064 1.527.6 0 1.018-.278 1.527-.972V13.9h.972v5.691h-.787l-.093-.879h-.046a2.46 2.46 0 0 1-1.9 1.018c-1.2 0-1.709-.741-1.709-2.221z" class="cls-2" data-name="Path 604" transform="translate(-83.308 -11.772)"/>
            <path id="Path_605" d="M107.9 13.279c0-2.452 1.434-3.979 3.424-3.979a2.9 2.9 0 0 1 2.128.972l-.509.648a2.209 2.209 0 0 0-1.573-.74c-1.434 0-2.406 1.2-2.406 3.1 0 1.943.925 3.146 2.36 3.146a2.349 2.349 0 0 0 1.8-.879l.555.6a2.965 2.965 0 0 1-2.36 1.11c-2.031.001-3.419-1.479-3.419-3.978z" class="cls-2" data-name="Path 605" transform="translate(-93.141 -9.3)"/>
            <path id="Path_606" d="M122.2 16.607a2.66 2.66 0 1 1 5.275 0 2.655 2.655 0 1 1-5.275 0zm4.257 0c0-1.3-.648-2.221-1.619-2.221s-1.619.879-1.619 2.221c0 1.3.648 2.175 1.619 2.175s1.619-.882 1.619-2.175z" class="cls-2" data-name="Path 606" transform="translate(-100.824 -11.61)"/>
            <path id="Path_607" d="M136.8 13.739h.787l.093.833h.046a2.529 2.529 0 0 1 1.758-.972 1.488 1.488 0 0 1 1.573 1.11 2.755 2.755 0 0 1 1.9-1.11c1.157 0 1.758.787 1.758 2.221v3.609h-.972v-3.47c0-1.064-.324-1.527-1.064-1.527a1.979 1.979 0 0 0-1.434.879v4.118h-.972v-3.47c0-1.064-.324-1.527-1.064-1.527a2.061 2.061 0 0 0-1.434.879v4.118h-.975v-5.691z" class="cls-2" data-name="Path 607" transform="translate(-108.669 -11.61)"/>
            <path id="Path_608" d="M157.8 13.739h.787l.093.648h.046a3.036 3.036 0 0 1 1.8-.787c1.481 0 2.267 1.157 2.267 2.915 0 1.943-1.157 3.054-2.452 3.054a2.566 2.566 0 0 1-1.573-.648l.046 1.018v1.943h-.972v-8.143zm3.979 2.776c0-1.249-.416-2.082-1.481-2.082a2.432 2.432 0 0 0-1.527.787v3.007a2.348 2.348 0 0 0 1.388.6c.972-.045 1.62-.927 1.62-2.312z" class="cls-2" data-name="Path 608" transform="translate(-119.953 -11.61)"/>
            <path id="Path_609" d="M171.9 13.739h.787l.093 1.018h.046a1.947 1.947 0 0 1 1.619-1.157 1.281 1.281 0 0 1 .6.139l-.185.833a1.988 1.988 0 0 0-.555-.093c-.463 0-1.064.37-1.434 1.3v3.651h-.971z" class="cls-2" data-name="Path 609" transform="translate(-127.529 -11.61)"/>
            <path id="Path_610" d="M179.3 17.949c0-1.249 1.064-1.851 3.516-2.128 0-.74-.231-1.434-1.157-1.434a3.452 3.452 0 0 0-1.712.6l-.37-.648a4.359 4.359 0 0 1 2.221-.74c1.388 0 1.99.925 1.99 2.36v3.516H183l-.093-.694h-.046a2.966 2.966 0 0 1-1.9.833 1.63 1.63 0 0 1-1.661-1.665zm3.516.093v-1.573c-1.9.231-2.545.694-2.545 1.434a.9.9 0 0 0 1.018.925 2.331 2.331 0 0 0 1.527-.786z" class="cls-2" data-name="Path 610" transform="translate(-131.505 -11.61)"/>
        </g>
        <g id="Group_419" data-name="Group 419" transform="translate(4.997 15.916)" style="fill: #ffffff">
            <path id="Path_611" d="M75.6 50.839h1.666v-4.9h-1.388V45.1a4.925 4.925 0 0 0 1.712-.6h1.018v6.339h1.481v1.11H75.6v-1.11z" class="cls-3" data-name="Path 611" transform="translate(-75.6 -44.13)"/>
            <path id="Path_612" d="M87.8 48.04c0-2.5.972-3.84 2.545-3.84s2.545 1.342 2.545 3.84-.972 3.887-2.545 3.887S87.8 50.539 87.8 48.04zm3.748 0c0-2.128-.509-2.776-1.249-2.776-.694 0-1.249.648-1.249 2.776s.509 2.869 1.249 2.869c.74-.046 1.249-.787 1.249-2.869z" class="cls-3" data-name="Path 612" transform="translate(-82.155 -43.969)"/>
            <path id="Path_613" d="M100.8 48.04c0-2.5.972-3.84 2.545-3.84s2.545 1.342 2.545 3.84-.972 3.887-2.545 3.887-2.545-1.388-2.545-3.887zm3.748 0c0-2.128-.509-2.776-1.249-2.776-.694 0-1.249.648-1.249 2.776s.509 2.869 1.249 2.869c.74-.046 1.249-.787 1.249-2.869z" class="cls-3" data-name="Path 613" transform="translate(-89.14 -43.969)"/>
            <path id="Path_614" d="M113.5 46.152c0-1.527.74-2.406 1.851-2.406 1.064 0 1.851.879 1.851 2.406s-.74 2.452-1.851 2.452c-1.064-.046-1.851-.925-1.851-2.452zm2.684 0c0-1.157-.37-1.619-.879-1.619s-.833.463-.833 1.619.37 1.666.833 1.666.879-.555.879-1.666zm-.6 5.506l4.164-7.958h.833l-4.164 7.958zm3.424-2.452c0-1.527.74-2.406 1.851-2.406 1.064 0 1.851.879 1.851 2.406s-.74 2.452-1.851 2.452-1.853-.879-1.853-2.452zm2.684 0c0-1.157-.37-1.619-.879-1.619s-.833.463-.833 1.619.37 1.666.833 1.666.876-.509.876-1.666z" class="cls-3" data-name="Path 614" transform="translate(-95.964 -43.7)"/>
            <path id="Path_615" d="M140.6 52.249a2.466 2.466 0 0 0 1.573.648c.6 0 .925-.278.925-.694 0-.463-.6-.694-1.249-.925-.74-.278-1.619-.694-1.619-1.666 0-1.018.787-1.712 2.082-1.712a3.038 3.038 0 0 1 1.9.694l-.6.833a2.258 2.258 0 0 0-1.249-.509c-.555 0-.833.278-.833.648 0 .463.555.648 1.2.879.787.278 1.666.648 1.666 1.758 0 .972-.787 1.8-2.221 1.8a3.565 3.565 0 0 1-2.175-.782z" class="cls-3" data-name="Path 615" transform="translate(-110.203 -45.957)"/>
            <path id="Path_616" d="M153.936 47.9c1.573 0 2.36 1.11 2.36 2.73 0 .278-.046.509-.046.648h-3.655a1.653 1.653 0 0 0 1.712 1.619 2.3 2.3 0 0 0 1.342-.416l.463.833a3.6 3.6 0 0 1-1.99.6 2.772 2.772 0 0 1-2.822-3.007 2.74 2.74 0 0 1 2.636-3.007zm1.2 2.5c0-.925-.37-1.481-1.157-1.481-.694 0-1.249.509-1.388 1.481z" class="cls-3" data-name="Path 616" transform="translate(-116.274 -45.957)"/>
            <path id="Path_617" d="M164.681 53.537v-.046a1.134 1.134 0 0 1-.509-.972 1.377 1.377 0 0 1 .648-1.064v-.046a1.946 1.946 0 0 1-.74-1.527 2.091 2.091 0 0 1 2.267-2.082 2.241 2.241 0 0 1 .833.139h2.082v1.018H168.2a1.527 1.527 0 0 1 .324.972 1.935 1.935 0 0 1-2.175 1.943 2.566 2.566 0 0 1-.787-.139.606.606 0 0 0-.278.555c0 .324.231.509.925.509h1.018c1.388 0 2.128.416 2.128 1.434 0 1.157-1.2 2.036-3.054 2.036-1.388 0-2.406-.509-2.406-1.481a1.379 1.379 0 0 1 .786-1.249zm1.758 1.851c.925 0 1.573-.416 1.573-.925 0-.463-.37-.555-1.018-.555h-.787a3.67 3.67 0 0 1-.787-.093.958.958 0 0 0-.463.74c.048.509.604.833 1.483.833zm.879-5.506a1.026 1.026 0 1 0-1.018 1.157 1.038 1.038 0 0 0 1.019-1.157z" class="cls-3" data-name="Path 617" transform="translate(-123.04 -45.903)"/>
            <path id="Path_618" d="M177.7 48.2h1.342v3.424c0 .972.278 1.3.879 1.3.509 0 .833-.231 1.3-.787V48.2h1.342v5.737h-1.11l-.093-.833h-.046a2.325 2.325 0 0 1-1.851.972c-1.249 0-1.758-.833-1.758-2.267z" class="cls-3" data-name="Path 618" transform="translate(-130.46 -46.118)"/>
            <path id="Path_619" d="M191.9 48.039h1.11l.093 1.018h.046a1.975 1.975 0 0 1 1.619-1.157 1.344 1.344 0 0 1 .648.139l-.231 1.157a2.344 2.344 0 0 0-.6-.093c-.463 0-1.018.324-1.342 1.2v3.516H191.9z" class="cls-3" data-name="Path 619" transform="translate(-138.09 -45.957)"/>
            <path id="Path_620" d="M203.524 50.121a.984.984 0 0 0-1.064-1.11 3.57 3.57 0 0 0-1.619.555l-.509-.925a4.326 4.326 0 0 1 2.36-.74c1.434 0 2.128.879 2.128 2.5v3.424h-1.064l-.093-.648h-.046a2.92 2.92 0 0 1-1.8.787A1.616 1.616 0 0 1 200.1 52.3c.046-1.3 1.064-1.948 3.424-2.179zm-1.249 2.73a1.752 1.752 0 0 0 1.249-.648v-1.3c-1.573.185-2.082.6-2.082 1.2 0 .563.324.748.833.748z" class="cls-3" data-name="Path 620" transform="translate(-142.496 -45.957)"/>
        </g>
    </g>
    <path id="Path_621" d="M26.789 14.852c0 8.236-5.691 15.962-13.371 17.859C5.691 30.861 0 23.134 0 14.852V5.969L13.371 0l13.372 5.969v8.883M13.371 29.75c5.6-1.481 10.41-8.143 10.41-14.574v-7.31l-10.41-4.627-10.41 4.627v7.31c0 6.431 4.858 13.094 10.41 14.574z" class="cls-4" data-name="Path 621"/>
    <path id="Path_622" d="M23.419 29.785a1.2 1.2 0 1 0-1.2-1.2 1.195 1.195 0 0 0 1.2 1.2m3.563-5.321a1.2 1.2 0 0 1 1.2 1.2v5.922a1.2 1.2 0 0 1-1.2 1.2H19.9a1.2 1.2 0 0 1-1.2-1.2v-5.919a1.2 1.2 0 0 1 1.2-1.2h.6v-1.2a2.961 2.961 0 1 1 5.922 0v1.2h.555m-3.563-2.915a1.757 1.757 0 0 0-1.758 1.758v1.2h3.563v-1.2a1.8 1.8 0 0 0-1.8-1.761z" class="cls-4" data-name="Path 622" transform="translate(-10.048 -10.908)"/>
</svg>
