<!-- Generated by IcoMoon.io -->
<svg version="1.1" xmlns="http://www.w3.org/2000/svg" width="32" height="32" viewBox="0 0 32 32">
<title>computo</title>
<path d="M25.62 21.16v-12c0-0.552-0.448-1-1-1v0h-17.22c-0.552 0-1 0.448-1 1v0 12h-1.4v2.060c0 0 0 0 0 0 0 0.378 0.303 0.684 0.679 0.69h20.631c0.381 0 0.69-0.309 0.69-0.69v0-2.060zM6.91 9c0-0 0-0 0-0 0-0.19 0.151-0.344 0.34-0.35h17.49c0.189 0.006 0.34 0.16 0.34 0.35 0 0 0 0 0 0v0 12.16h-6.82l-0.69 0.68h-3.15l-0.69-0.68h-6.82zM26.45 23.46h-20.93v-1.8h7.75l0.6 0.64h4.25l0.65-0.64h7.68z"></path>
<path d="M17.72 14.63h0.69v0.69h-0.69v-0.69z"></path>
<path d="M16.35 14.63h0.69v0.69h-0.69v-0.69z"></path>
<path d="M14.97 14.63h0.69v0.69h-0.69v-0.69z"></path>
<path d="M13.6 14.63h0.69v0.69h-0.69v-0.69z"></path>
<path d="M8 20.42h16v-10.69h-16zM23.84 20.2h-15.66v-10.2h15.63z"></path>
</svg>
