<!-- Generated by IcoMoon.io -->
<svg version="1.1" xmlns="http://www.w3.org/2000/svg" width="32" height="32" viewBox="0 0 32 32">
<title>delivery-box</title>
<path d="M25 5.8l-6.84-1.8h-0.16l-6.85 1.8h-0.14c-0.086 0.076-0.14 0.186-0.14 0.309 0 0 0 0.001 0 0.002v-0 9.63c0.003 0.172 0.119 0.315 0.277 0.359l0.003 0.001 6.85 1.83c0.028 0.012 0.061 0.020 0.095 0.020s0.067-0.007 0.097-0.020l-0.002 0.001 6.81-1.78c0.161-0.034 0.28-0.174 0.28-0.343 0-0.006-0-0.012-0-0.018l0 0.001v-9.63c0-0.005 0-0.011 0-0.017 0-0.169-0.119-0.309-0.278-0.343l-0.002-0zM17.69 17.080l-6.060-1.59v-8.82l6.060 1.58zM18.070 7.56l-5.32-1.4 5.32-1.39 5.32 1.39zM24.51 15.49l-6.070 1.59v-8.84l6.070-1.59z"></path>
<path d="M26.88 21.51c-0.212-0.361-0.597-0.599-1.039-0.599-0.075 0-0.148 0.007-0.219 0.020l0.007-0.001-7.3 1.27-2.080-2.070c-0.061-0.072-0.149-0.121-0.249-0.13l-0.001-0h-3.68c0-0 0-0 0-0 0-0.206-0.164-0.374-0.37-0.38h-6.631c-0.181 0.020-0.321 0.173-0.321 0.358 0 0.008 0 0.016 0.001 0.023l-0-0.001c0 0 0 0 0 0.001 0 0.203 0.159 0.369 0.359 0.379l0.001 0h4.79v5.14h-4.83c-0 0-0 0-0.001 0-0.199 0-0.36 0.161-0.36 0.36 0 0.007 0 0.014 0.001 0.021l-0-0.001c0 0.199 0.161 0.36 0.36 0.36v0h6.68c0.003 0 0.006 0 0.010 0 0.199 0 0.36-0.161 0.36-0.36 0-0 0-0 0-0v0h1l3.94 2c0.165 0.090 0.361 0.143 0.57 0.143s0.405-0.053 0.576-0.146l-0.006 0.003 8-4.68c0.36-0.216 0.598-0.605 0.598-1.050 0-0.221-0.059-0.428-0.161-0.606l0.003 0.006zM11.6 25.57h-0.74v-5.18h0.74zM26.18 22.45c-0.028 0.049-0.069 0.087-0.118 0.109l-0.002 0.001-8.060 4.64c-0.064 0.035-0.139 0.056-0.22 0.056s-0.156-0.021-0.222-0.057l-3.998-1.999c-0.027-0.005-0.058-0.008-0.090-0.008s-0.063 0.003-0.093 0.008l0.003-0h-1.060v-4.44h3.52l2.89 2.89c0.141 0.122 0.229 0.301 0.229 0.5s-0.088 0.378-0.228 0.499l-0.001 0.001c-0.119 0.124-0.285 0.201-0.47 0.201s-0.351-0.077-0.47-0.201l-0-0-1.9-1.88c-0.065-0.063-0.153-0.102-0.251-0.102-0.199 0-0.36 0.161-0.36 0.36 0 0.008 0 0.015 0.001 0.023l-0-0.001c0.005 0.091 0.038 0.174 0.091 0.241l-0.001-0.001 1.9 1.88c0.26 0.339 0.666 0.555 1.122 0.555 0.779 0 1.41-0.631 1.41-1.41 0-0.384-0.153-0.731-0.402-0.986l0 0c-0.043-0.058-0.092-0.107-0.148-0.149l-0.002-0.001-0.25-0.34 6.77-1.19c0.022-0.004 0.048-0.006 0.074-0.006 0.121 0 0.231 0.044 0.317 0.116l-0.001-0.001c0.104 0.081 0.17 0.207 0.17 0.348 0 0.117-0.046 0.224-0.12 0.303l0-0z"></path>
</svg>
