<!-- Generated by IcoMoon.io -->
<svg version="1.1" xmlns="http://www.w3.org/2000/svg" width="32" height="32" viewBox="0 0 32 32">
<title>deportes</title>
<path d="M25.71 6.52c-1.22-1.23-3.83-1.64-6.81-1.080-6.844 1.401-12.159 6.669-13.609 13.375l-0.021 0.115c-0.6 3-0.19 5.57 1.1 6.86 0.61 0.62 2.14 1 4.090 1 4.474-0.023 8.534-1.777 11.548-4.627l-0.008 0.007c5.34-5.32 6-13.27 3.68-15.65zM25.68 14.52c-0.502-2.010-1.471-3.747-2.786-5.157l0.006 0.007 2.37-2.37c1.080 1.11 1.43 4.12 0.46 7.48zM21.58 5.89c0.111-0.008 0.24-0.012 0.37-0.012 1.167 0 2.251 0.356 3.15 0.965l-0.020-0.013-2.36 2.36c-1.346-1.268-3.011-2.213-4.861-2.702l-0.079-0.018c1.134-0.352 2.439-0.562 3.791-0.58l0.009-0zM6 19.16c0.080-0.41 0.18-0.81 0.3-1.22 0.568 1.9 1.572 3.523 2.898 4.818l0.002 0.002-2.49 2.44c-1-1.13-1.28-3.42-0.75-6zM6.89 25.43l2.45-2.46c1.346 1.251 3.002 2.187 4.839 2.681l0.081 0.018c-3.46 0.86-6.53 0.48-7.37-0.24zM21.51 21.69c-1.696 1.659-3.779 2.928-6.101 3.66l-0.109 0.030c-2.273-0.408-4.25-1.47-5.781-2.981l0.001 0.001c-1.493-1.399-2.544-3.253-2.931-5.34l-0.009-0.060c1.73-4.78 5.43-8.48 10.093-10.173l0.117-0.037c2.239 0.373 4.191 1.403 5.702 2.882l-0.002-0.002c1.482 1.536 2.522 3.507 2.91 5.704l0.010 0.066s0 0 0 0c-0.876 2.421-2.21 4.489-3.91 6.19l0-0z"></path>
<path d="M19.7 11.94l-1.15 1.16-0.83-0.83c-0.044-0.047-0.106-0.076-0.175-0.076s-0.131 0.029-0.175 0.076l-0 0c-0.047 0.046-0.076 0.109-0.076 0.18s0.029 0.134 0.076 0.18l0.82 0.82-1.45 1.45-0.82-0.83c-0.046-0.046-0.11-0.075-0.18-0.075-0.141 0-0.255 0.114-0.255 0.255 0 0.070 0.028 0.134 0.075 0.18v0l0.83 0.82-1.45 1.45-0.82-0.82c-0.046-0.047-0.109-0.076-0.18-0.076s-0.134 0.029-0.18 0.076l-0 0c-0.042 0.046-0.068 0.107-0.068 0.175s0.026 0.129 0.068 0.175l-0-0 0.83 0.83-1.45 1.44-0.82-0.82c-0.025-0.009-0.054-0.015-0.085-0.015-0.138 0-0.25 0.112-0.25 0.25 0 0.030 0.005 0.060 0.015 0.087l-0.001-0.002 0.83 0.82-0.85 0.84c-0.047 0.046-0.076 0.109-0.076 0.18s0.029 0.134 0.076 0.18l0 0c0.046 0.043 0.109 0.070 0.178 0.070 0.001 0 0.002 0 0.003 0h-0c0.003 0 0.007 0 0.010 0 0.066 0 0.126-0.027 0.17-0.070v0l0.84-0.85 0.82 0.83c0.043 0.043 0.103 0.070 0.17 0.070 0.004 0 0.007-0 0.011-0l-0.001 0c0.001 0 0.003 0 0.005 0 0.065 0 0.123-0.027 0.165-0.070l0-0c0.047-0.046 0.076-0.109 0.076-0.18s-0.029-0.134-0.076-0.18l-0.82-0.82 1.44-1.45 0.83 0.83c0.043 0.043 0.103 0.070 0.17 0.070 0.004 0 0.007-0 0.011-0l-0.001 0c0.003 0 0.006 0 0.009 0 0.064 0 0.121-0.027 0.161-0.070l0-0c0.047-0.046 0.076-0.109 0.076-0.18s-0.029-0.134-0.076-0.18l-0.82-0.82 1.44-1.45 0.83 0.82c0.045 0.049 0.109 0.079 0.18 0.080h0c0.071-0.003 0.134-0.033 0.18-0.080l0-0c0.042-0.046 0.068-0.108 0.068-0.175s-0.026-0.129-0.068-0.175l0 0-0.83-0.83 1.45-1.44 0.82 0.82c0.045 0.049 0.109 0.079 0.18 0.080h0c0.071-0.003 0.134-0.033 0.18-0.080l0-0c0.047-0.044 0.076-0.106 0.076-0.175s-0.029-0.131-0.076-0.175l-0.83-0.83 1.16-1.15c0.046-0.046 0.075-0.11 0.075-0.18 0-0.141-0.114-0.255-0.255-0.255-0.070 0-0.134 0.028-0.18 0.075v0z"></path>
</svg>
