<!-- Generated by IcoMoon.io -->
<svg version="1.1" xmlns="http://www.w3.org/2000/svg" width="32" height="32" viewBox="0 0 32 32">
<title>edit</title>
<path d="M18.36 9.16l-8.9 8.9 4.45 4.45 8.9-8.9z"></path>
<path d="M8 19.56l4.44 4.44-4.64 1.32c-0.038 0.005-0.083 0.008-0.127 0.008-0.509 0-0.93-0.381-0.992-0.873l-0-0.005c-0.010-0.038-0.015-0.081-0.015-0.125s0.005-0.087 0.016-0.129l-0.001 0.004z"></path>
<path d="M24.32 12.13c0.619-0.542 1.008-1.334 1.008-2.216 0-0.733-0.268-1.403-0.711-1.918l0.003 0.004-0.3-0.3c-0.551-0.611-1.346-0.993-2.23-0.993-0.737 0-1.412 0.266-1.934 0.707l0.004-0.004-0.3 0.29z"></path>
</svg>
