<!-- Generated by IcoMoon.io -->
<svg version="1.1" xmlns="http://www.w3.org/2000/svg" width="32" height="32" viewBox="0 0 32 32">
<title>electronica</title>
<path d="M26.74 8.83h-21.48c-0.144 0-0.26 0.116-0.26 0.26v0 12.48c0 0 0 0 0 0 0 0.146 0.115 0.264 0.26 0.27h1.85v0.72c-0.003 0.012-0.004 0.026-0.004 0.040s0.002 0.028 0.005 0.041l-0-0.001h-0.82c-0 0-0 0-0 0-0.144 0-0.26 0.116-0.26 0.26 0 0.004 0 0.007 0 0.011l-0-0c-0 0.003-0 0.007-0 0.010 0 0.138 0.112 0.25 0.25 0.25 0.004 0 0.007-0 0.011-0l-0 0h19.42c0.144 0 0.26-0.116 0.26-0.26v0c0-0 0-0 0-0 0-0.146-0.115-0.264-0.259-0.27h-0.83c0.003-0.012 0.004-0.026 0.004-0.040s-0.002-0.028-0.005-0.041l0 0.001v-0.72h1.85c0.145-0.006 0.26-0.124 0.26-0.27 0-0 0-0 0-0v0-12.48c0-0.144-0.116-0.26-0.26-0.26v0zM7.62 22.64c0.003-0.012 0.004-0.026 0.004-0.040s-0.002-0.028-0.005-0.041l0 0.001v-0.72h16.74v0.72c-0.003 0.012-0.004 0.026-0.004 0.040s0.002 0.028 0.005 0.041l-0-0.001zM26.56 21.35h-21.12v-12h21.12z"></path>
<path d="M15.6 21h0.8c0.145-0.006 0.26-0.124 0.26-0.27 0-0 0-0 0-0v0c0-0.144-0.116-0.26-0.26-0.26h-0.8c-0.144 0-0.26 0.116-0.26 0.26v0c0 0 0 0 0 0 0 0.146 0.115 0.264 0.259 0.27h0.001z"></path>
<path d="M5.18 19.82h21.6v0.27h-21.6v-0.27z"></path>
</svg>
