<!-- Generated by IcoMoon.io -->
<svg version="1.1" xmlns="http://www.w3.org/2000/svg" width="32" height="32" viewBox="0 0 32 32">
<title>envelope</title>
<path d="M25.11 8.060h-18.23c-1.592 0.005-2.88 1.297-2.88 2.89 0 0.018 0 0.035 0 0.053l-0-0.003v10.060c0 0.003-0 0.006-0 0.010 0 1.585 1.285 2.87 2.87 2.87 0 0 0 0 0 0h18.24c1.59-0.006 2.879-1.29 2.89-2.879v-10.061c-0.006-1.594-1.296-2.884-2.889-2.89h-0.001zM25.11 9.56l-8.11 8.050c-0.257 0.242-0.604 0.39-0.986 0.39-0.005 0-0.010-0-0.015-0h0.001c-0.391-0.002-0.745-0.162-1-0.42l-0-0c-0.71-0.72-6-6-8.060-8.080h18.18zM26.55 21.11c-0.038 0.773-0.672 1.385-1.45 1.39h-18.22c-0.793-0.006-1.434-0.647-1.44-1.439v-10.061c0-0.002 0-0.004 0-0.005 0-0.255 0.067-0.494 0.184-0.702l-0.004 0.007c1.38 1.31 5.5 5.46 8.38 8.32 0.514 0.514 1.217 0.838 1.996 0.86l0.004 0c0.782-0.008 1.487-0.328 2-0.84l8.35-8.35c0.106 0.194 0.169 0.424 0.17 0.67v0z"></path>
</svg>
