<!-- Generated by IcoMoon.io -->
<svg version="1.1" xmlns="http://www.w3.org/2000/svg" width="32" height="32" viewBox="0 0 32 32">
<title>free-shipping</title>
<path d="M24.17 11.070c-1.45-1.9-3.3-3.93-5.49-3.93h-12.12c-0.007-0-0.015-0-0.023-0-0.856 0-1.55 0.694-1.55 1.55 0 0.071 0.005 0.14 0.014 0.208l-0.001-0.008v3.66h9v-1.93h0.090l3 3v0.19l-3 3h-0.090v-1.91h-9v5c0 1.66 1.1 2 1.75 2h0.8c0.186 1.607 1.539 2.843 3.18 2.843s2.994-1.236 3.179-2.828l0.001-0.015h4.19c0.186 1.607 1.539 2.843 3.18 2.843s2.994-1.236 3.179-2.828l0.001-0.015h0.79c0 0 0.001 0 0.001 0 0.942 0 1.71-0.744 1.748-1.677l0-0.003v-3.090c0-2.12-2-5-2.83-6.060zM21.17 12.96v-3.47s0 0 0 0l0.27 0.26c0.557 0.527 1.068 1.089 1.535 1.687l0.025 0.033c0.078 0.087 0.153 0.181 0.223 0.28l0.007 0.010 0.080 0.11c0.041 0.041 0.077 0.087 0.108 0.137l0.002 0.003c0.357 0.455 0.71 0.968 1.032 1.501l0.038 0.069 0.090 0.16h-3c-0.096-0.007-0.181-0.052-0.24-0.12l-0-0c-0.116-0.161-0.186-0.363-0.186-0.581 0-0.038 0.002-0.076 0.006-0.114l-0 0.005zM10.73 22.87c-0.663 0-1.2-0.537-1.2-1.2s0.537-1.2 1.2-1.2v0c0.663 0 1.2 0.537 1.2 1.2s-0.537 1.2-1.2 1.2v0zM21.28 22.87c-0.663 0-1.2-0.537-1.2-1.2s0.537-1.2 1.2-1.2c0.663 0 1.2 0.537 1.2 1.2v0c0 0.663-0.537 1.2-1.2 1.2v0zM25.85 20.22c0 0.003 0 0.007 0 0.010 0 0.326-0.264 0.59-0.59 0.59-0.004 0-0.007-0-0.011-0h-0.889c-0.385-1.366-1.62-2.35-3.085-2.35s-2.7 0.984-3.080 2.327l-0.005 0.023h-4.37c-0.385-1.366-1.62-2.35-3.085-2.35s-2.7 0.984-3.080 2.327l-0.005 0.023h-0.9c-0.41 0-0.6-0.28-0.6-0.88v-3.89h6.68v0.78c-0 0.009-0 0.020-0 0.030 0 0.63 0.51 1.14 1.14 1.14 0.011 0 0.021-0 0.032-0l-0.002 0h0.090c0.006 0 0.012 0 0.019 0 0.311 0 0.592-0.13 0.791-0.34l0-0 3-3c0.208-0.204 0.34-0.486 0.35-0.798l0-0.002v-0.19c0-0.002 0-0.003 0-0.005 0-0.317-0.134-0.603-0.349-0.804l-0.001-0.001-3-3c-0.208-0.207-0.494-0.336-0.809-0.34h-0.091c-0.003-0-0.007-0-0.010-0-0.63 0-1.14 0.51-1.14 1.14 0 0.004 0 0.007 0 0.011v-0.001 0.78h-6.7v-2.56c0-0.55 0.21-0.6 0.41-0.6h12.1c0.712 0.047 1.356 0.307 1.877 0.716l-0.007-0.006v4c-0.003 0.037-0.004 0.079-0.004 0.122 0 0.405 0.141 0.778 0.377 1.071l-0.003-0.003c0.212 0.228 0.515 0.371 0.85 0.371 0.014 0 0.028-0 0.042-0.001l-0.002 0h3.21c0.447 0.759 0.747 1.656 0.838 2.614l0.002 0.026z"></path>
</svg>
