<!-- Generated by IcoMoon.io -->
<svg version="1.1" xmlns="http://www.w3.org/2000/svg" width="32" height="32" viewBox="0 0 32 32">
<title>free-shipping-full</title>
<path d="M24.16 11.070c-1.45-1.91-3.3-3.94-5.48-3.94h-12.12c-0.007-0-0.015-0-0.023-0-0.856 0-1.55 0.694-1.55 1.55 0 0.071 0.005 0.14 0.014 0.208l-0.001-0.008v3.67h9v-1.93h0.090l3 3v0.19l-3 3h-0.090v-1.92h-9v5.050c0 1.66 1.1 2 1.75 2h0.8c0.186 1.607 1.539 2.843 3.18 2.843s2.994-1.236 3.179-2.828l0.001-0.015h4.19c0.186 1.607 1.539 2.843 3.18 2.843s2.994-1.236 3.179-2.828l0.001-0.015h0.78c0 0 0 0 0 0 0.961 0 1.743-0.771 1.76-1.728l0-0.002v-3.080c0-2.13-2-5-2.84-6.060zM10.73 22.86c-0.003 0-0.006 0-0.010 0-0.657 0-1.19-0.533-1.19-1.19 0 0 0-0 0-0v0c0-0.663 0.537-1.2 1.2-1.2s1.2 0.537 1.2 1.2v0c0 0 0 0 0 0 0 0.657-0.533 1.19-1.19 1.19-0.004 0-0.007 0-0.011-0h0.001zM21.28 22.86c-0.003 0-0.006 0-0.010 0-0.657 0-1.19-0.533-1.19-1.19 0 0 0-0 0-0v0c0-0.663 0.537-1.2 1.2-1.2s1.2 0.537 1.2 1.2v0c0 0 0 0 0 0 0 0.657-0.533 1.19-1.19 1.19-0.004 0-0.007 0-0.011-0h0.001zM21.5 14.24h-0.18c-0.103-0.019-0.192-0.069-0.26-0.14l-0-0c-0.131-0.167-0.209-0.381-0.209-0.612 0-0.049 0.003-0.096 0.010-0.143l-0.001 0.005v-3.87l0.3 0.28c0.584 0.577 1.128 1.19 1.629 1.838l0.031 0.042 0.25 0.32c0.043 0.027 0.077 0.064 0.099 0.108l0.001 0.002 0.12 0.16c0.395 0.5 0.782 1.062 1.131 1.648l0.039 0.072c0.034 0.073 0.071 0.135 0.112 0.194l-0.002-0.004z"></path>
</svg>
