<!-- Generated by IcoMoon.io -->
<svg version="1.1" xmlns="http://www.w3.org/2000/svg" width="32" height="32" viewBox="0 0 32 32">
<title>hogar</title>
<path d="M27.2 11.52l-2.34-1.41v-4.81c0-0.003 0-0.007 0-0.010 0-0.157-0.124-0.284-0.28-0.29h-2.921c-0.15 0.006-0.27 0.129-0.27 0.28 0 0 0 0 0 0v0 2.72l-4.91-3c-0.013-0.004-0.029-0.006-0.045-0.006s-0.032 0.002-0.046 0.007l0.001-0c-0.031-0.014-0.067-0.022-0.105-0.022s-0.074 0.008-0.107 0.023l0.002-0.001-10.71 6.52c-0.084 0.047-0.14 0.135-0.14 0.237 0 0.001 0 0.002 0 0.004v-0 2.24c0.003 0.102 0.058 0.19 0.139 0.239l0.001 0.001c0.040 0.024 0.088 0.037 0.14 0.037s0.1-0.014 0.141-0.038l-0.001 0.001 1.61-0.94v11.1h-0.77c-0.15 0.006-0.27 0.129-0.27 0.28 0 0 0 0 0 0v0 2.050c0 0.149 0.121 0.27 0.27 0.27v0h19.48c0 0 0 0 0 0 0.151 0 0.274-0.12 0.28-0.27v-2.050c-0.005-0.152-0.128-0.275-0.279-0.28h-0.77v-11.080l1.62 0.94c0.021 0.007 0.045 0.011 0.070 0.011s0.049-0.004 0.072-0.011l-0.002 0c0.020 0.004 0.042 0.007 0.065 0.007s0.045-0.002 0.067-0.007l-0.002 0c0.084-0.047 0.14-0.135 0.14-0.237 0-0.001 0-0.002-0-0.004v0-2.26c0-0.001 0-0.002 0-0.004 0-0.099-0.051-0.186-0.129-0.236l-0.001-0.001zM21.94 5.57h2.37v4.21l-2.37-1.44zM25.8 26.45h-18.93v-1.45h18.93zM18.31 24.4h-3.95v-10.32h3.95zM24.76 24.4h-5.9v-10.6c0-0 0-0 0-0 0-0.149-0.121-0.27-0.27-0.27-0.004 0-0.007 0-0.011 0h-4.5c-0.149 0-0.27 0.121-0.27 0.27v0 10.6h-5.9v-11.4l8.42-4.92 8.43 4.92zM26.76 13.55l-10.31-6c-0.040-0.025-0.088-0.039-0.14-0.039s-0.1 0.015-0.141 0.040l0.001-0.001-10.31 6v-1.64l10.47-6.32 10.45 6.32z"></path>
<path d="M10.8 13.11c-0.9 0-1.63 0.73-1.63 1.63v0 2.18c-0 0.003-0 0.007-0 0.010 0 0.149 0.121 0.27 0.27 0.27 0.004 0 0.007-0 0.011-0l-0.001 0h2.71c0.155 0 0.28-0.125 0.28-0.28v0-2.18c-0.006-0.901-0.738-1.63-1.64-1.63 0 0-0 0-0 0v0zM11.89 16.65h-2.17v-1.91c0.055-0.555 0.52-0.986 1.085-0.986s1.030 0.43 1.085 0.981l0 0.005z"></path>
<path d="M20.51 17.2h2.71c0.155 0 0.28-0.125 0.28-0.28v0-2.18c-0.068-0.849-0.774-1.512-1.635-1.512s-1.567 0.663-1.635 1.506l-0 0.006v2.18c-0 0.003-0 0.007-0 0.010 0 0.149 0.121 0.27 0.27 0.27 0.004 0 0.007-0 0.011-0l-0 0zM20.78 14.74c0.055-0.555 0.52-0.986 1.085-0.986s1.030 0.43 1.085 0.981l0 0.005v1.91h-2.17z"></path>
<path d="M10.8 18.76c-0.9 0-1.63 0.73-1.63 1.63v0 2.18c0 0.155 0.125 0.28 0.28 0.28h2.71c0.152-0.005 0.275-0.128 0.28-0.279v-2.18c-0.006-0.901-0.738-1.63-1.64-1.63 0 0-0 0-0 0v0zM11.89 22.3h-2.17v-1.91c0.055-0.555 0.52-0.986 1.085-0.986s1.030 0.43 1.085 0.981l0 0.005z"></path>
<path d="M20.51 22.85h2.71c0.152-0.005 0.275-0.128 0.28-0.279v-2.18c-0.068-0.849-0.774-1.512-1.635-1.512s-1.567 0.663-1.635 1.506l-0 0.006v2.18c0 0.155 0.125 0.28 0.28 0.28v0zM20.78 20.39c0.055-0.555 0.52-0.986 1.085-0.986s1.030 0.43 1.085 0.981l0 0.005v1.91h-2.17z"></path>
</svg>
