<!-- Generated by IcoMoon.io -->
<svg version="1.1" xmlns="http://www.w3.org/2000/svg" width="32" height="32" viewBox="0 0 32 32">
<title>linea-blanca</title>
<path d="M22.69 5h-13.38c-1.139 0.006-2.060 0.93-2.060 2.070 0 0 0 0 0 0v0 17.86c0 0 0 0 0 0 0 1.14 0.921 2.064 2.059 2.070h13.381c1.139-0.006 2.060-0.93 2.060-2.070 0 0 0-0 0-0v0-17.86c0 0 0 0 0-0 0-1.14-0.921-2.064-2.059-2.070h-0.001zM9.31 5.67h13.38c0.773 0 1.4 0.627 1.4 1.4v3.080h-16.18v-3.080c0-0.773 0.627-1.4 1.4-1.4v0zM22.69 26.33h-13.38c-0.773 0-1.4-0.627-1.4-1.4v0-14.52h16.18v14.52c0 0.773-0.627 1.4-1.4 1.4v0z"></path>
<path d="M19.56 9.050h2.82c0.475 0 0.86-0.385 0.86-0.86v0-1c0-0.475-0.385-0.86-0.86-0.86v0h-2.82c-0.003-0-0.006-0-0.010-0-0.475 0-0.86 0.385-0.86 0.86 0 0 0 0 0 0v0 1c0 0 0 0 0 0 0 0.475 0.385 0.86 0.86 0.86 0.004 0 0.007-0 0.011-0h-0.001zM19 7.21c0-0.331 0.269-0.6 0.6-0.6v0h2.82c0 0 0 0 0 0 0.326 0 0.59 0.264 0.59 0.59 0 0.004-0 0.007-0 0.011v-0.001 1c0 0.003 0 0.006 0 0.010 0 0.326-0.264 0.59-0.59 0.59-0 0-0 0-0 0h-2.86c-0.331 0-0.6-0.269-0.6-0.6v0z"></path>
<path d="M16 12.2c-3.424 0-6.2 2.776-6.2 6.2s2.776 6.2 6.2 6.2c3.424 0 6.2-2.776 6.2-6.2v0c-0.006-3.422-2.778-6.194-6.199-6.2h-0.001zM16 24.070c-3.131 0-5.67-2.539-5.67-5.67s2.539-5.67 5.67-5.67c3.131 0 5.67 2.539 5.67 5.67v0c0 3.131-2.539 5.67-5.67 5.67v0z"></path>
<path d="M16 14.52c-2.143 0-3.88 1.737-3.88 3.88s1.737 3.88 3.88 3.88c2.143 0 3.88-1.737 3.88-3.88v0c0-2.143-1.737-3.88-3.88-3.88v0zM16 22c-1.995-0.006-3.61-1.624-3.61-3.62 0 0 0 0 0 0v0c0-0.090 0-0.17 0-0.26 0.394 0.042 0.741 0.217 1 0.48l0 0c0.33 0.345 0.795 0.56 1.309 0.56 0.004 0 0.008 0 0.011-0h-0.001c0 0 0.001 0 0.001 0 0.519 0 0.988-0.219 1.318-0.569l0.001-0.001c0.288-0.309 0.696-0.501 1.15-0.501s0.863 0.192 1.149 0.5l0.001 0.001c0.302 0.294 0.699 0.491 1.141 0.539l0.009 0.001c-0.358 1.629-1.773 2.836-3.476 2.87l-0.004 0zM19.57 18.87c-0.394-0.041-0.741-0.217-1-0.48l-0-0c-0.327-0.345-0.789-0.56-1.301-0.56-0.007 0-0.014 0-0.020 0h0.001c-0.001 0-0.002 0-0.002 0-0.517 0-0.984 0.215-1.317 0.559l-0.001 0.001c-0.289 0.308-0.696 0.503-1.149 0.51l-0.001 0c-0.453-0.005-0.86-0.195-1.149-0.499l-0.001-0.001c-0.303-0.303-0.71-0.503-1.163-0.54l-0.007-0c0.236-1.78 1.744-3.14 3.571-3.14 1.988 0 3.6 1.612 3.6 3.6 0 0.021-0 0.042-0.001 0.063l0-0.003c0.005 0.073 0.008 0.159 0.008 0.245s-0.003 0.172-0.008 0.257l0.001-0.012z"></path>
<path d="M10.23 9.5c0.015 0.001 0.032 0.001 0.050 0.001 0.707 0 1.28-0.573 1.28-1.28s-0.573-1.28-1.28-1.28c-0.707 0-1.279 0.573-1.28 1.279v0c0 0 0 0.001 0 0.001 0 0.689 0.545 1.251 1.228 1.279l0.002 0zM10.23 7.2c0.552 0 1 0.448 1 1s-0.448 1-1 1c-0.552 0-1-0.448-1-1v0c0-0.552 0.448-1 1-1v0z"></path>
<path d="M13.15 9.5c0.707 0 1.28-0.573 1.28-1.28s-0.573-1.28-1.28-1.28c-0.707 0-1.28 0.573-1.28 1.28v0c0 0.707 0.573 1.28 1.28 1.28v0zM13.15 7.2c0.552 0 1 0.448 1 1s-0.448 1-1 1c-0.552 0-1-0.448-1-1v0c0-0.552 0.448-1 1-1v0z"></path>
</svg>
