<!-- Generated by IcoMoon.io -->
<svg version="1.1" xmlns="http://www.w3.org/2000/svg" width="110" height="32" viewBox="0 0 110 32">
<title>logo-elektra</title>
<path d="M46.65 21.92v-16.020l-3 1.46v15.9c0 1.9 0.69 2.87 2.070 2.87 0.053 0.004 0.115 0.006 0.178 0.006 0.966 0 1.806-0.539 2.235-1.333l0.007-0.013c-1-0.32-1.45-1.27-1.45-2.87z"></path>
<path d="M54.83 12.61c-0.023-0-0.051-0.001-0.078-0.001-1.762 0-3.352 0.736-4.48 1.918l-0.002 0.002c-1.18 1.202-1.908 2.851-1.908 4.671 0 0.116 0.003 0.231 0.009 0.346l-0.001-0.016c-0.008 0.123-0.013 0.268-0.013 0.413 0 1.722 0.663 3.29 1.747 4.461l-0.004-0.004c1.135 1.083 2.676 1.75 4.373 1.75 0.122 0 0.243-0.003 0.364-0.010l-0.017 0.001c0.158 0.012 0.342 0.018 0.528 0.018 1.594 0 3.074-0.489 4.299-1.325l-0.026 0.017c-0.138-0.258-0.277-0.477-0.431-0.685l0.011 0.015c-0.203-0.361-0.505-0.646-0.868-0.825l-0.012-0.005c-0.203-0.048-0.437-0.076-0.677-0.076-0.435 0-0.848 0.090-1.223 0.253l0.020-0.008c-0.271 0.070-0.582 0.109-0.903 0.109-0.094 0-0.187-0.003-0.279-0.010l0.012 0.001c-0.066 0.004-0.143 0.006-0.22 0.006-0.925 0-1.773-0.327-2.436-0.872l0.007 0.005c-0.657-0.603-1.070-1.462-1.080-2.418l-0-0.002h9.32c0.145-0.506 0.236-1.089 0.25-1.692l0-0.008c0.002-0.051 0.003-0.112 0.003-0.173 0-1.612-0.655-3.072-1.712-4.127l-0-0c-1.123-1.056-2.639-1.706-4.307-1.706-0.093 0-0.185 0.002-0.276 0.006l0.013-0zM51.64 18q0.63-2.85 3.24-2.85c0.081-0.008 0.175-0.013 0.27-0.013 1.574 0 2.85 1.276 2.85 2.85 0 0.005 0 0.009-0 0.014v-0.001z"></path>
<path d="M35.63 12.61c-0.023-0-0.051-0.001-0.078-0.001-1.762 0-3.352 0.736-4.48 1.918l-0.002 0.002c-1.18 1.202-1.908 2.851-1.908 4.671 0 0.116 0.003 0.231 0.009 0.346l-0.001-0.016c-0.008 0.122-0.013 0.265-0.013 0.409 0 1.722 0.658 3.29 1.737 4.466l-0.004-0.005c1.141 1.083 2.687 1.749 4.389 1.749 0.12 0 0.239-0.003 0.358-0.010l-0.016 0.001c0.156 0.011 0.338 0.018 0.522 0.018 1.596 0 3.078-0.489 4.304-1.325l-0.026 0.017c-0.138-0.258-0.277-0.477-0.431-0.685l0.011 0.015c-0.203-0.361-0.505-0.646-0.868-0.825l-0.012-0.005c-0.203-0.048-0.437-0.076-0.677-0.076-0.435 0-0.848 0.090-1.223 0.253l0.020-0.008c-0.275 0.070-0.59 0.11-0.915 0.11-0.097 0-0.193-0.004-0.288-0.011l0.013 0.001c-0.066 0.004-0.143 0.006-0.22 0.006-0.925 0-1.773-0.327-2.436-0.872l0.007 0.005c-0.65-0.606-1.059-1.464-1.070-2.418l-0-0.002h9.32c0.135-0.502 0.225-1.085 0.249-1.684l0.001-0.016c0.001-0.049 0.002-0.106 0.002-0.163 0-1.617-0.658-3.081-1.722-4.137l-0-0c-1.104-1.057-2.604-1.707-4.256-1.707-0.103 0-0.206 0.003-0.308 0.008l0.014-0.001zM32.45 18q0.63-2.85 3.25-2.85c0.093-0.011 0.201-0.017 0.31-0.017 1.574 0 2.85 1.276 2.85 2.85 0 0.006-0 0.012-0 0.018v-0.001z"></path>
<path d="M74.13 12.63h-3.66l-4.63 5.25v-11.98l-3 1.4v18.81h3v-4.57l1.46-1.54s3.52 5.36 3.65 5.57c0.223 0.32 0.586 0.53 0.999 0.54l0.001 0h2.93l-5.47-8.29z"></path>
<path d="M80.81 23c-0.279-0.489-0.443-1.075-0.443-1.699 0-0.106 0.005-0.211 0.014-0.314l-0.001 0.013v-6h3.62v-2.37h-3.62v-3.77l-3 1.12v2.65h-1.55l-2.19 2.45h3.7v6.82c-0.007 0.092-0.011 0.2-0.011 0.309 0 1.078 0.382 2.067 1.017 2.839l-0.006-0.008c0.7 0.681 1.657 1.101 2.711 1.101 0.102 0 0.202-0.004 0.302-0.012l-0.013 0.001c0.091 0.003 0.197 0.005 0.304 0.005 0.959 0 1.888-0.133 2.767-0.382l-0.072 0.017v-2.77c-0.567 0.364-1.257 0.583-1.998 0.59h-0.002c-0.048 0.004-0.104 0.007-0.16 0.007-0.54 0-1.027-0.229-1.369-0.596l-0.001-0.001z"></path>
<path d="M93.91 13.75c0.133-0.265 0.311-0.488 0.527-0.667l0.003-0.003c-0.688-0.298-1.489-0.471-2.33-0.471-0.039 0-0.077 0-0.115 0.001l0.006-0c-0.025-0.001-0.054-0.001-0.083-0.001-1.294 0-2.454 0.571-3.242 1.476l-0.004 0.005v-1.48h-3v13.52h3v-7.61c-0.001-0.031-0.002-0.068-0.002-0.105 0-0.857 0.315-1.64 0.835-2.24l-0.004 0.004c0.522-0.583 1.263-0.96 2.093-1l0.007-0c0.003 0 0.006 0 0.010 0 0.794 0 1.53 0.251 2.132 0.678l-0.011-0.008c-0.055-0.232-0.087-0.499-0.087-0.772 0-0.483 0.098-0.942 0.275-1.361l-0.009 0.023z"></path>
<path d="M104.66 21.89v0-2.78c0-2.51-0.47-4.22-1.39-5.12-0.865-0.867-2.062-1.404-3.384-1.404-0.168 0-0.333 0.009-0.497 0.025l0.020-0.002c-0.045-0.001-0.097-0.001-0.15-0.001-0.759 0-1.497 0.092-2.203 0.264l0.063-0.013c-2.2 0.64-1.31 2.87-1.31 2.87h0.080l0.42-0.17c0.645-0.23 1.389-0.364 2.164-0.364 0.076 0 0.152 0.001 0.227 0.004l-0.011-0c1.93 0 2.92 0.76 2.92 2.29-0.377-0.101-0.816-0.169-1.266-0.189l-0.014-0c-0.152-0.011-0.33-0.017-0.509-0.017-1.609 0-3.105 0.484-4.35 1.314l0.029-0.018c-1.038 0.768-1.704 1.987-1.704 3.363 0 0.062 0.001 0.125 0.004 0.186l-0-0.009c-0.005 0.075-0.008 0.163-0.008 0.251 0 1.087 0.465 2.064 1.206 2.746l0.003 0.002c0.824 0.665 1.884 1.067 3.039 1.067 0.092 0 0.183-0.003 0.274-0.008l-0.013 0.001c0.014 0 0.031 0 0.048 0 0.761 0 1.483-0.162 2.136-0.453l-0.033 0.013c0.602-0.208 1.097-0.597 1.434-1.1l0.006-0.010c0.147 0.421 0.387 0.777 0.698 1.058l0.002 0.002c0.311 0.286 0.723 0.469 1.176 0.49l0.004 0c0.047 0.003 0.101 0.005 0.156 0.005 0.325 0 0.635-0.060 0.921-0.171l-0.017 0.006c0.369-0.166 0.661-0.449 0.836-0.8l0.004-0.010c-0.67-0.45-1-1.54-1-3.27zM101.67 21.020c0.015 0.101 0.024 0.218 0.024 0.336 0 1.331-1.079 2.41-2.41 2.41-0.125 0-0.247-0.009-0.367-0.028l0.013 0.002c-1.36 0-2-0.57-2-1.74 0-1.57 1.2-2.35 3.6-2.35 0.421 0.012 0.823 0.066 1.21 0.158l-0.040-0.008z"></path>
<path d="M20.78 14.73c0.032 0.172 0.050 0.369 0.050 0.571 0 0.868-0.339 1.656-0.892 2.24l0.001-0.002c-0.553 0.734-1.423 1.204-2.403 1.204-0.567 0-1.098-0.158-1.551-0.431l0.013 0.008c-0.835-0.56-1.474-1.353-1.829-2.287l-0.011-0.033c2.4-2.37 2.1-4.88 0.79-7.2-0.861-1.423-2.262-2.447-3.911-2.793l-0.039-0.007c-1.541 0.475-2.875 1.214-4.017 2.174l0.017-0.014 2.17 2.52c0.548-0.482 1.271-0.776 2.062-0.776 0.273 0 0.537 0.035 0.789 0.1l-0.022-0.005c1.495 0.218 2.63 1.491 2.63 3.030 0 0.007-0 0.014-0 0.021v-0.001c-0.060 1.066-0.462 2.027-1.096 2.788l0.006-0.008c-3.22-0.92-5.22 0.59-6.54 2.91-0.452 0.839-0.717 1.835-0.717 2.894 0 0.722 0.123 1.415 0.35 2.059l-0.013-0.043c1.074 1.022 2.355 1.837 3.772 2.374l0.078 0.026 1.080-3.16c-0.968-0.361-1.704-1.143-1.994-2.117l-0.006-0.023c-0.143-0.346-0.226-0.747-0.226-1.168 0-1.133 0.601-2.125 1.502-2.674l0.014-0.008c0.607-0.32 1.326-0.508 2.090-0.508 0.297 0 0.588 0.029 0.869 0.083l-0.029-0.005c0.83 3.3 3.12 4.3 5.77 4.3 1.757-0.060 3.314-0.867 4.373-2.111l0.007-0.009c0.171-0.745 0.268-1.601 0.268-2.479 0-0.736-0.069-1.455-0.2-2.153l0.011 0.072z"></path>
<path d="M18.27 15.23c1.064-0.092 1.991-0.615 2.614-1.393l0.006-0.007c0.606-0.644 0.979-1.515 0.979-2.472 0-0.618-0.155-1.199-0.428-1.707l0.009 0.019c-0.38-0.602-0.864-1.102-1.433-1.489l-0.017-0.011-0.23-0.71-0.5-1.59-1.98 1.13 0.71 2.25c3.88 2.35 0.31 6 0.31 6z"></path>
<path d="M10.81 12.66c-0.579-0.833-1.463-1.419-2.487-1.597l-0.023-0.003c-0.253-0.065-0.544-0.103-0.844-0.103-1.26 0-2.366 0.662-2.988 1.658l-0.009 0.015c-0.308 0.599-0.501 1.304-0.53 2.051l-0 0.009-0.5 0.56-1.1 1.26 1.93 1.11 1.61-1.69c0.060-4.58 4.94-3.27 4.94-3.27z"></path>
<path d="M17.6 23.17c-3.94 2.22-5.27-2.72-5.27-2.72-0.224 0.479-0.355 1.041-0.355 1.633 0 0.491 0.090 0.961 0.254 1.394l-0.009-0.027c0.418 1.449 1.71 2.5 3.254 2.55l0.006 0c0.738-0.043 1.421-0.245 2.026-0.573l-0.026 0.013 0.71 0.15 1.62 0.35v-2.24z"></path>
</svg>
