<!-- Generated by IcoMoon.io -->
<svg version="1.1" xmlns="http://www.w3.org/2000/svg" width="166" height="32" viewBox="0 0 166 32">
<title>logo-mx</title>
<path d="M102.88 24.81c-0.198 0.194-0.321 0.465-0.321 0.765 0 0.020 0.001 0.039 0.002 0.058l-0-0.003c-0 0.008-0 0.018-0 0.028 0 0.308 0.122 0.587 0.321 0.793l-0-0c0.201 0.204 0.481 0.33 0.79 0.33s0.589-0.126 0.79-0.33l0-0c0.205-0.212 0.331-0.501 0.331-0.82s-0.126-0.608-0.332-0.82l0 0c-0.207-0.203-0.491-0.329-0.805-0.329s-0.598 0.125-0.805 0.329l0-0z"></path>
<path d="M137.53 24.9c-0.181 0.167-0.294 0.405-0.294 0.67 0 0.032 0.002 0.063 0.005 0.094l-0-0.004c0.002 0.292 0.112 0.558 0.291 0.761l-0.001-0.001c0.183 0.195 0.442 0.317 0.73 0.317s0.547-0.122 0.73-0.316l0-0.001c0.191-0.196 0.309-0.464 0.309-0.76s-0.118-0.564-0.309-0.76l0 0c-0.191-0.189-0.455-0.306-0.745-0.306s-0.554 0.117-0.745 0.306l0-0z"></path>
<path d="M111.18 25.19c-1.64 0-2.45-0.88-2.45-2.6-0.002-0.043-0.003-0.093-0.003-0.143 0-0.704 0.242-1.351 0.648-1.863l-0.005 0.006c0.391-0.45 0.964-0.733 1.603-0.733 0.041 0 0.082 0.001 0.122 0.003l-0.006-0c0.037-0.002 0.080-0.003 0.123-0.003 0.652 0 1.247 0.244 1.699 0.645l-0.003-0.002 0.82-1.43c-0.665-0.512-1.51-0.82-2.427-0.82-0.022 0-0.044 0-0.066 0.001l0.003-0c-0.061-0.003-0.132-0.005-0.204-0.005-1.189 0-2.271 0.458-3.079 1.207l0.003-0.003c-0.745 0.775-1.203 1.83-1.203 2.991 0 0.059 0.001 0.118 0.004 0.177l-0-0.008c-0.003 0.063-0.005 0.136-0.005 0.21 0 1.111 0.415 2.124 1.099 2.894l-0.004-0.004c0.718 0.691 1.695 1.116 2.772 1.116 0.080 0 0.16-0.002 0.239-0.007l-0.011 0c0.040 0.001 0.086 0.002 0.133 0.002 0.471 0 0.929-0.055 1.367-0.16l-0.040 0.008c0.56-0.14 1.051-0.371 1.483-0.679l-0.013 0.009-0.71-1.52c-0.483 0.452-1.134 0.73-1.85 0.73-0.007 0-0.014-0-0.021-0h0.001z"></path>
<path d="M118.14 18.23c-0.042-0.002-0.091-0.003-0.141-0.003-1.070 0-2.032 0.463-2.696 1.2l-0.003 0.003c-0.674 0.773-1.084 1.79-1.084 2.904 0 0.069 0.002 0.138 0.005 0.206l-0-0.010c-0.005 0.078-0.007 0.169-0.007 0.261 0 1.090 0.38 2.091 1.014 2.878l-0.007-0.009c0.669 0.724 1.624 1.176 2.683 1.176 0.073 0 0.145-0.002 0.216-0.006l-0.010 0c0.068 0.005 0.147 0.007 0.227 0.007 1.054 0 2.002-0.453 2.66-1.174l0.003-0.003c0.629-0.778 1.009-1.778 1.009-2.868 0-0.103-0.003-0.205-0.010-0.306l0.001 0.014c0.005-0.077 0.007-0.167 0.007-0.257 0-1.091-0.38-2.093-1.014-2.881l0.007 0.009c-0.672-0.707-1.619-1.147-2.67-1.147-0.081 0-0.161 0.003-0.241 0.008l0.011-0.001zM119.54 24.55c-0.292 0.426-0.776 0.702-1.324 0.702-0.030 0-0.060-0.001-0.090-0.002l0.004 0c-1.28 0-1.93-0.91-1.93-2.75-0.003-0.050-0.004-0.109-0.004-0.168 0-0.68 0.199-1.314 0.542-1.846l-0.008 0.013c0.29-0.426 0.772-0.702 1.319-0.702 0.028 0 0.057 0.001 0.085 0.002l-0.004-0c1.29 0 1.93 0.91 1.93 2.69 0.005 0.071 0.008 0.154 0.008 0.238 0 0.673-0.197 1.299-0.536 1.825l0.008-0.013z"></path>
<path d="M131.63 18.23c-0.464 0.006-0.907 0.090-1.318 0.239l0.028-0.009c-0.392 0.148-0.726 0.369-0.999 0.649l-0.001 0.001c-0.578-0.567-1.371-0.916-2.246-0.916-0.072 0-0.143 0.002-0.214 0.007l0.010-0c-0.016-0-0.035-0.001-0.054-0.001-0.774 0-1.469 0.34-1.943 0.878l-0.002 0.003-0.38-0.73h-1.32v8.39h1.81v-6.080c0.157-0.245 0.365-0.444 0.611-0.585l0.009-0.005c0.241-0.164 0.539-0.262 0.86-0.262 0.374 0 0.716 0.133 0.983 0.354l-0.003-0.002c0.236 0.246 0.381 0.58 0.381 0.948 0 0.018-0 0.036-0.001 0.055l0-0.003v5.61h1.9v-6c0.132-0.246 0.322-0.446 0.553-0.586l0.007-0.004c0.224-0.163 0.504-0.26 0.806-0.26 0.005 0 0.010 0 0.014 0h-0.001c1 0 1.43 0.55 1.43 1.64v5.24h1.9v-5.59c0.004-0.057 0.006-0.124 0.006-0.192 0-0.76-0.291-1.452-0.768-1.97l0.002 0.002c-0.476-0.51-1.152-0.828-1.902-0.828-0.070 0-0.139 0.003-0.207 0.008l0.009-0.001z"></path>
<path d="M150.45 18.23c-0.461 0.007-0.9 0.091-1.308 0.239l0.028-0.009c-0.396 0.135-0.733 0.359-0.998 0.648l-0.002 0.002c-0.578-0.567-1.372-0.917-2.246-0.917-0.075 0-0.15 0.003-0.223 0.008l0.010-0.001c-0.016-0-0.035-0.001-0.054-0.001-0.774 0-1.469 0.34-1.943 0.878l-0.002 0.003-0.38-0.73h-1.33v8.39h1.9v-6.080c0.162-0.241 0.369-0.439 0.611-0.585l0.009-0.005c0.219-0.161 0.493-0.258 0.789-0.26h0.001c0.021-0.001 0.046-0.002 0.071-0.002 0.373 0 0.715 0.133 0.982 0.354l-0.003-0.002c0.236 0.246 0.381 0.58 0.381 0.948 0 0.018-0 0.036-0.001 0.055l0-0.003v5.61h1.9v-6c0.132-0.246 0.322-0.446 0.553-0.586l0.007-0.004c0.224-0.163 0.504-0.26 0.806-0.26 0.005 0 0.010 0 0.014 0h-0.001c1 0 1.43 0.55 1.43 1.64v5.24h1.9v-5.59c0.004-0.057 0.006-0.124 0.006-0.192 0-0.76-0.291-1.452-0.768-1.97l0.002 0.002c-0.478-0.51-1.155-0.828-1.907-0.828-0.071 0-0.142 0.003-0.212 0.009l0.009-0.001z"></path>
<path d="M159.37 22.44l3.25-4.18h-2.25l-1.96 2.6-1.78-2.6h-2.26l2.96 4.18-3.22 4.36h2.34l1.93-2.78 2.16 2.78h2.37l-3.54-4.36z"></path>
<path d="M44.71 22.76v-15l-2.85 1.36v14.88c0 1.79 0.64 2.69 1.94 2.69 0.056 0.005 0.12 0.007 0.185 0.007 0.897 0 1.675-0.504 2.068-1.245l0.006-0.013c-0.91-0.3-1.35-1.19-1.35-2.69z"></path>
<path d="M52.37 14.060c-0.021-0-0.047-0-0.072-0-1.652 0-3.144 0.686-4.206 1.789l-0.002 0.002c-1.11 1.133-1.795 2.687-1.795 4.4 0 0.091 0.002 0.182 0.006 0.273l-0-0.013c-0.007 0.112-0.011 0.242-0.011 0.373 0 1.618 0.624 3.091 1.645 4.19l-0.004-0.004c1.072 1.014 2.523 1.638 4.119 1.638 0.106 0 0.211-0.003 0.315-0.008l-0.015 0.001c0.157 0.012 0.339 0.020 0.523 0.020 1.487 0 2.866-0.464 4-1.255l-0.023 0.015c-0.122-0.24-0.255-0.447-0.406-0.638l0.006 0.008c-0.178-0.347-0.462-0.619-0.809-0.776l-0.011-0.004c-0.193-0.048-0.414-0.076-0.642-0.076-0.404 0-0.789 0.087-1.135 0.243l0.017-0.007c-0.281 0.059-0.604 0.093-0.935 0.093-0.991 0-1.91-0.304-2.671-0.824l0.016 0.011c-0.613-0.566-0.997-1.373-1-2.269v-0.001h8.72c0.119-0.464 0.201-1.005 0.229-1.56l0.001-0.020c0.001-0.046 0.002-0.099 0.002-0.153 0-1.504-0.613-2.865-1.602-3.847l-0-0c-1.030-0.977-2.425-1.578-3.961-1.578-0.105 0-0.21 0.003-0.314 0.008l0.014-0.001zM49.37 19.090c0.4-1.78 1.41-2.68 3-2.68 0.096-0.012 0.207-0.019 0.32-0.019 1.48 0 2.68 1.2 2.68 2.68 0 0.007-0 0.013-0 0.020v-0.001z"></path>
<path d="M34.39 14.060c-0.021-0-0.047-0-0.072-0-1.652 0-3.144 0.686-4.206 1.789l-0.002 0.002c-1.11 1.133-1.795 2.687-1.795 4.4 0 0.091 0.002 0.182 0.006 0.273l-0-0.013c-0.005 0.097-0.008 0.209-0.008 0.323 0 1.643 0.643 3.135 1.691 4.24l-0.003-0.003c1.072 1.014 2.523 1.638 4.12 1.638 0.109 0 0.218-0.003 0.325-0.009l-0.015 0.001c0.154 0.012 0.333 0.019 0.514 0.019 1.487 0 2.865-0.464 3.999-1.254l-0.023 0.015c-0.124-0.241-0.253-0.448-0.398-0.642l0.008 0.012c-0.184-0.346-0.471-0.616-0.819-0.776l-0.011-0.004c-0.193-0.048-0.414-0.075-0.641-0.075-0.405 0-0.789 0.087-1.136 0.242l0.018-0.007c-0.252 0.063-0.54 0.1-0.838 0.1-0.092 0-0.184-0.003-0.274-0.010l0.012 0.001c-0.058 0.003-0.126 0.005-0.194 0.005-0.873 0-1.675-0.308-2.302-0.82l0.007 0.005c-0.607-0.571-0.988-1.375-1-2.268l-0-0.002h8.65c0.119-0.464 0.201-1.005 0.229-1.56l0.001-0.020c0.001-0.046 0.002-0.099 0.002-0.153 0-1.504-0.613-2.865-1.602-3.847l-0-0c-1.048-0.977-2.459-1.576-4.010-1.576-0.095 0-0.189 0.002-0.283 0.007l0.013-0.001zM31.35 19.090c0.39-1.78 1.39-2.68 3-2.68 0.096-0.012 0.207-0.019 0.32-0.019 1.48 0 2.68 1.2 2.68 2.68 0 0.007-0 0.013-0 0.020v-0.001z"></path>
<path d="M70.43 14.060h-3.43l-4.33 4.94v-11.25l-2.85 1.31v17.62h2.85v-4.27l1.33-1.41 3.41 5.21c0.214 0.31 0.567 0.51 0.966 0.51 0.012 0 0.024-0 0.035-0.001l-0.002 0h2.75l-5.16-7.8z"></path>
<path d="M76.69 23.76c-0.264-0.46-0.42-1.012-0.42-1.6 0-0.088 0.004-0.175 0.010-0.261l-0.001 0.011v-5.56h3.35v-2.29h-3.35v-3.53l-2.85 1v2.49h-1.43l-2 2.28h3.46v6.39c-0.006 0.079-0.009 0.171-0.009 0.264 0 1.021 0.383 1.953 1.012 2.66l-0.004-0.004c0.658 0.626 1.551 1.010 2.533 1.010 0.097 0 0.194-0.004 0.29-0.011l-0.013 0.001c0.089 0.003 0.195 0.005 0.3 0.005 0.904 0 1.779-0.126 2.607-0.361l-0.067 0.016v-2.6c-0.54 0.351-1.201 0.56-1.91 0.56h-0c-0.049 0.005-0.106 0.007-0.163 0.007-0.508 0-0.968-0.21-1.296-0.547l-0-0z"></path>
<path d="M89 15.1c0.125-0.246 0.293-0.452 0.496-0.617l0.004-0.003c-0.607-0.268-1.315-0.424-2.059-0.424-0.074 0-0.148 0.002-0.221 0.005l0.010-0c-0.026-0.001-0.057-0.001-0.088-0.001-1.21 0-2.294 0.537-3.028 1.386l-0.004 0.005v-1.38h-2.89v12.64h2.85v-7.14c-0.001-0.026-0.001-0.057-0.001-0.087 0-0.805 0.296-1.542 0.785-2.107l-0.003 0.004c0.497-0.551 1.205-0.904 1.995-0.93l0.005-0c0.749 0 1.443 0.236 2.011 0.637l-0.011-0.007c-0.063-0.237-0.099-0.508-0.099-0.789 0-0.437 0.088-0.853 0.247-1.232l-0.008 0.021z"></path>
<path d="M99 22.74v0-2.6c0-2.35-0.42-3.95-1.29-4.8-0.808-0.806-1.924-1.305-3.157-1.305-0.167 0-0.331 0.009-0.493 0.027l0.020-0.002c-0.061-0.002-0.134-0.003-0.206-0.003-0.69 0-1.36 0.085-2.001 0.245l0.057-0.012c-0.799 0.274-1.363 1.019-1.363 1.896 0 0.295 0.064 0.575 0.178 0.827l-0.005-0.013h0.080l0.39-0.16c0.644-0.216 1.386-0.34 2.157-0.34 0.029 0 0.059 0 0.088 0.001l-0.004-0c1.82 0 2.72 0.72 2.72 2.15-0.338-0.106-0.735-0.187-1.144-0.228l-0.026-0.002c-0.137-0.009-0.296-0.014-0.457-0.014-1.514 0-2.923 0.449-4.101 1.221l0.028-0.018c-0.971 0.72-1.593 1.862-1.593 3.15 0 0.056 0.001 0.112 0.004 0.168l-0-0.008c-0.004 0.065-0.007 0.141-0.007 0.218 0 1.016 0.433 1.931 1.124 2.57l0.002 0.002c0.782 0.627 1.786 1.006 2.878 1.006 0.082 0 0.163-0.002 0.243-0.006l-0.011 0c0.005 0 0.012 0 0.018 0 0.716 0 1.397-0.147 2.015-0.413l-0.033 0.013c0.558-0.189 1.020-0.538 1.344-0.992l0.006-0.008c0.138 0.397 0.365 0.734 0.658 0.998l0.002 0.002c0.289 0.269 0.673 0.441 1.096 0.46l0.004 0c0.054 0.005 0.116 0.007 0.179 0.007 0.296 0 0.578-0.058 0.836-0.163l-0.015 0.005c0.341-0.16 0.614-0.419 0.786-0.741l0.004-0.009c-0.64-0.43-1-1.44-1-3.060zM96.18 21.95c0.014 0.094 0.022 0.203 0.022 0.313 0 1.248-1.012 2.26-2.26 2.26-0.114 0-0.225-0.008-0.334-0.025l0.012 0.002c-1.28 0-1.91-0.54-1.91-1.64 0-1.47 1.13-2.21 3.38-2.21 0.395 0.016 0.769 0.070 1.129 0.158l-0.039-0.008z"></path>
<path d="M20.47 16.34c0.032 0.165 0.050 0.356 0.050 0.55 0 0.818-0.32 1.561-0.841 2.111l0.001-0.001c-0.525 0.668-1.332 1.093-2.239 1.093-0.531 0-1.029-0.146-1.454-0.4l0.013 0.007c-0.792-0.531-1.393-1.293-1.71-2.189l-0.009-0.031c2.25-2.22 2-4.57 0.73-6.74-0.809-1.343-2.135-2.304-3.695-2.614l-0.035-0.006c-1.438 0.46-2.681 1.164-3.745 2.072l0.015-0.012 2 2.36c0.51-0.436 1.176-0.701 1.905-0.701 0.258 0 0.507 0.033 0.745 0.095l-0.020-0.005c1.408 0.199 2.48 1.396 2.48 2.843 0 0.002 0 0.005 0 0.007v-0c-0.041 0.996-0.412 1.898-1.006 2.607l0.006-0.007c-3-0.87-4.89 0.54-6.13 2.73-0.423 0.78-0.672 1.709-0.672 2.695 0 0.679 0.118 1.331 0.334 1.935l-0.013-0.040c1.001 0.971 2.195 1.751 3.517 2.275l0.073 0.025 1-3c-0.903-0.335-1.589-1.067-1.855-1.979l-0.005-0.021c-0.131-0.32-0.207-0.691-0.207-1.080 0-1.062 0.567-1.991 1.414-2.502l0.013-0.007c0.567-0.308 1.242-0.49 1.959-0.49 0.287 0 0.567 0.029 0.838 0.084l-0.027-0.005c0.77 3.1 2.93 4 5.4 4 1.646-0.064 3.103-0.824 4.093-1.992l0.007-0.008c0.171-0.728 0.269-1.564 0.269-2.423 0-0.66-0.058-1.306-0.168-1.933l0.010 0.066z"></path>
<path d="M18.14 16.79c0.993-0.095 1.857-0.582 2.445-1.304l0.005-0.006c0.571-0.601 0.923-1.416 0.923-2.313 0-0.577-0.145-1.12-0.402-1.595l0.009 0.018c-0.359-0.572-0.828-1.041-1.382-1.389l-0.018-0.011-0.22-0.67-0.5-1.52-1.8 1.070 0.64 2.1c3.6 2.19 0.28 5.6 0.28 5.6z"></path>
<path d="M11.14 14.38c-0.541-0.781-1.369-1.33-2.329-1.497l-0.021-0.003c-0.236-0.061-0.508-0.096-0.787-0.096-1.184 0-2.221 0.629-2.795 1.572l-0.008 0.014c-0.292 0.558-0.474 1.215-0.5 1.912l-0 0.008-0.45 0.53-1.030 1.18 1.78 1 1.49-1.59c0.060-4.3 4.63-3.070 4.63-3.070z"></path>
<path d="M17.5 24.21c-3.7 2.090-4.92-2.54-4.92-2.54-0.22 0.453-0.348 0.985-0.348 1.547 0 0.454 0.084 0.888 0.236 1.288l-0.008-0.025c0.379 1.372 1.598 2.369 3.056 2.41l0.005 0c0.698-0.035 1.344-0.227 1.913-0.541l-0.023 0.011 0.68 0.15 1.53 0.32v-2.12z"></path>
</svg>
