<!-- Generated by IcoMoon.io -->
<svg version="1.1" xmlns="http://www.w3.org/2000/svg" width="32" height="32" viewBox="0 0 32 32">
<title>moda-y-accesorios</title>
<path d="M24.43 14.17h-1.3c-0.37-1.518-1.115-2.828-2.132-3.872l0.002 0.002v-4.1c0-0 0-0 0-0.001 0-0.649-0.515-1.177-1.158-1.199l-0.002-0h-9.52c-0.663 0-1.2 0.537-1.2 1.2v4.1c-1.417 1.477-2.29 3.487-2.29 5.7s0.873 4.223 2.292 5.703l-0.003-0.003v4.1c0 0.663 0.537 1.2 1.2 1.2v0h9.52c0.645-0.022 1.16-0.551 1.16-1.199 0-0 0-0 0-0.001v0-4.1c1-1.045 1.731-2.355 2.079-3.813l0.011-0.057h1.3c0.409 0 0.74-0.331 0.74-0.74v0-2.18c0-0.409-0.331-0.74-0.74-0.74v0zM10.3 5.66h9.55c0.282 0 0.51 0.228 0.51 0.51v0 3.51c-1.436-1.158-3.269-1.877-5.268-1.93l-0.012-0c-2.009 0.031-3.85 0.726-5.32 1.875l0.020-0.015v-3.43c0-0.287 0.233-0.52 0.52-0.52v0zM12.89 8.75c0.639-0.195 1.374-0.307 2.134-0.307 4.186 0 7.58 3.394 7.58 7.58 0 0.758-0.111 1.49-0.318 2.18l0.014-0.054c-0.712 2.48-2.628 4.392-5.058 5.087l-0.052 0.013c-0.636 0.193-1.367 0.304-2.124 0.304-4.186 0-7.58-3.394-7.58-7.58 0-0.757 0.111-1.488 0.317-2.177l-0.014 0.054c0.711-2.478 2.622-4.389 5.048-5.087l0.052-0.013zM19.63 26.34h-9.2c-0.359 0-0.65-0.291-0.65-0.65v0-3.37c1.308 1.201 3.060 1.937 4.984 1.937 0.111 0 0.222-0.002 0.332-0.007l-0.016 0.001c2.021-0.002 3.872-0.723 5.314-1.921l-0.014 0.011v3.24c0 0.003 0 0.006 0 0.010 0 0.414-0.336 0.75-0.75 0.75-0 0-0 0-0 0v0zM23.33 17.17v-2.36h1.19v2.36z"></path>
<path d="M18.52 13.76c-0.041-0.040-0.098-0.065-0.16-0.065s-0.119 0.025-0.16 0.065l0-0-3.35 2.67-1.66-1.47c-0.038-0.032-0.088-0.052-0.142-0.052-0.010 0-0.020 0.001-0.029 0.002l0.001-0c-0.063 0.003-0.119 0.029-0.16 0.070v0c-0.043 0.042-0.070 0.1-0.070 0.165s0.027 0.123 0.070 0.165l0 0 1.8 1.6c0.043 0.037 0.099 0.059 0.16 0.060h0c0.056-0.003 0.108-0.021 0.151-0.051l-0.001 0.001 3.5-2.79c0.041-0.043 0.066-0.101 0.066-0.165s-0.025-0.122-0.066-0.165l0 0z"></path>
<path d="M15.13 22.4c-3.518-0-6.37-2.852-6.37-6.37s2.852-6.37 6.37-6.37c3.508 0 6.353 2.835 6.37 6.338v0.002c-0.006 3.516-2.854 6.364-6.369 6.37h-0.001zM15.13 10c-3.314 0-6 2.686-6 6s2.686 6 6 6c3.314 0 6-2.686 6-6v0c0-3.314-2.686-6-6-6v0z"></path>
</svg>
