<!-- Generated by IcoMoon.io -->
<svg version="1.1" xmlns="http://www.w3.org/2000/svg" width="32" height="32" viewBox="0 0 32 32">
<title>motos</title>
<path d="M23.45 17.57c-1.005 0-1.82 0.815-1.82 1.82s0.815 1.82 1.82 1.82c1.005 0 1.82-0.815 1.82-1.82v0c-0.006-1.003-0.817-1.814-1.819-1.82h-0.001zM23.45 20.9c-0.817-0.022-1.47-0.69-1.47-1.509 0-0.834 0.676-1.51 1.51-1.51s1.51 0.676 1.51 1.509v0c0 0.834-0.676 1.51-1.51 1.51v0z"></path>
<path d="M8.55 15.84c-1.956 0.006-3.54 1.593-3.54 3.55 0 1.961 1.589 3.55 3.55 3.55s3.55-1.589 3.55-3.55v0c0 0 0 0 0 0 0-1.961-1.589-3.55-3.55-3.55-0.004 0-0.007 0-0.011 0h0.001zM8.55 22.42c-1.657 0-3-1.343-3-3s1.343-3 3-3c1.657 0 3 1.343 3 3v0c0 1.657-1.343 3-3 3v0z"></path>
<path d="M8.55 17.57c-1.005 0-1.82 0.815-1.82 1.82s0.815 1.82 1.82 1.82c1.005 0 1.82-0.815 1.82-1.82v0c0-1.005-0.815-1.82-1.82-1.82v0zM8.55 20.9c-0.832-0.006-1.504-0.678-1.51-1.509v-0.001c0-0.834 0.676-1.51 1.51-1.51s1.51 0.676 1.51 1.51c0 0.83-0.67 1.504-1.499 1.51h-0.001z"></path>
<path d="M23.45 15.83c-0 0-0.001 0-0.001 0-0.316 0-0.622 0.044-0.912 0.126l0.024-0.006-0.44-1.22 0.55-0.19c0.236-0.045 0.507-0.070 0.785-0.070 0.009 0 0.018 0 0.027 0h-0.001c0.333 0 0.658 0.033 0.972 0.095l-0.032-0.005h0.060c0.159-0.002 0.291-0.117 0.32-0.268l0-0.002c0.004-0.019 0.007-0.041 0.007-0.064 0-0.066-0.021-0.127-0.058-0.177l0.001 0.001c-0.049-0.070-0.122-0.121-0.208-0.14l-0.002-0c-0.32-0.064-0.688-0.1-1.065-0.1-0.238 0-0.473 0.015-0.703 0.043l0.028-0.003-1.3-3.45c-0.047-0.129-0.168-0.22-0.31-0.22h-0.11l-0.54 0.19-0.25-0.69c-0.147-0.374-0.502-0.634-0.919-0.64h-1.281c-0.177 0-0.32 0.143-0.32 0.32v0c-0 0.003-0 0.006-0 0.010 0 0.177 0.143 0.32 0.32 0.32 0 0 0 0 0 0h1.26c0.14 0.001 0.26 0.081 0.319 0.198l0.001 0.002s0.16 0.44 0.24 0.67v0l-0.54 0.19c-0.085 0.029-0.152 0.090-0.189 0.168l-0.001 0.002c-0.017 0.037-0.026 0.080-0.026 0.125s0.010 0.088 0.027 0.127l-0.001-0.002 0.080 0.22h-0.070c-0.32-0.083-0.687-0.13-1.065-0.13-0.012 0-0.025 0-0.037 0h0.002c-0.030-0.001-0.064-0.001-0.099-0.001-0.735 0-1.422 0.205-2.008 0.561l0.017-0.010c-0.644 0.39-1.414 0.637-2.238 0.68l-0.012 0c-0.005 0-0.011 0-0.018 0-0.236 0-0.464-0.033-0.68-0.094l0.018 0.004c-3.15-0.89-7.19-2.090-7.22-2.1h-0.1c-0.128 0.004-0.237 0.079-0.289 0.188l-0.001 0.002c-0.076 0.182-0.12 0.393-0.12 0.615s0.044 0.433 0.124 0.626l-0.004-0.011c0.271 0.498 0.734 0.862 1.286 0.997l0.014 0.003c1.463 0.43 2.708 1.222 3.675 2.274l0.005 0.006c0.486 0.62 1.235 1.015 2.076 1.015 0.1 0 0.199-0.006 0.296-0.016l-0.012 0.001c0.64 1.75 1 2.76 1 2.77 0.043 0.128 0.161 0.218 0.3 0.22h3.28c0.099-0 0.188-0.042 0.25-0.11l0-0 3.37-3.76 0.47-0.16 0.44 1.22c-1.188 0.599-1.99 1.804-2 3.199v0.001c0 1.966 1.594 3.56 3.56 3.56s3.56-1.594 3.56-3.56c0-1.966-1.594-3.56-3.56-3.56v0zM18.1 11.82c0.016-0 0.036-0 0.055-0 0.514 0 1.003 0.103 1.45 0.29l-0.025-0.009 0.69 1.93c-1.76 0.5-3.21 0.5-4.15-0.060-0.47-0.278-0.823-0.709-0.995-1.224l-0.005-0.016c0.835-0.533 1.832-0.891 2.902-0.998l0.028-0.002zM17.3 18.3h-3l-0.37-1h2.57c0.015 0.003 0.032 0.005 0.050 0.005 0.138 0 0.25-0.112 0.25-0.25s-0.112-0.25-0.25-0.25c-0.018 0-0.035 0.002-0.051 0.005l0.002-0h-2.72l-0.37-1h2.050c0.071-0.001 0.135-0.031 0.18-0.080l0-0c0.043-0.043 0.070-0.103 0.070-0.169 0-0 0-0 0-0.001v0c-0.006-0.134-0.115-0.24-0.25-0.24-0 0-0 0-0 0h-2.67c-0.078 0.010-0.167 0.016-0.258 0.016-0.684 0-1.293-0.326-1.678-0.831l-0.004-0.005c-1.045-1.093-2.37-1.909-3.859-2.335l-0.061-0.015c-0.432-0.086-0.789-0.351-0.996-0.713l-0.004-0.007c-0.045-0.11-0.071-0.237-0.071-0.371 0-0.017 0-0.035 0.001-0.052l-0 0.002v-0.010h0.14c1 0.28 4.25 1.25 6.87 2 0.247 0.070 0.531 0.11 0.824 0.11 0.002 0 0.004 0 0.006 0h-0c0.001 0 0.001 0 0.002 0 0.463 0 0.91-0.069 1.33-0.198l-0.032 0.008c0.191 0.576 0.577 1.043 1.079 1.334l0.011 0.006c0.528 0.297 1.159 0.472 1.831 0.472 0.038 0 0.077-0.001 0.115-0.002l-0.006 0c0.862-0.027 1.681-0.172 2.454-0.418l-0.064 0.018 0.17 0.46zM21 14.63l-1.25-3.48 1.25-0.46 1.25 3.49zM23.43 22.42c-1.657 0-3-1.343-3-3s1.343-3 3-3c1.657 0 3 1.343 3 3v0c0 1.657-1.343 3-3 3v0z"></path>
</svg>
