<!-- Generated by IcoMoon.io -->
<svg version="1.1" xmlns="http://www.w3.org/2000/svg" width="32" height="32" viewBox="0 0 32 32">
<title>msi-label-full</title>
<path d="M27.59 14.38l-5.42-6c-0.488-0.345-1.094-0.553-1.748-0.56h-0.002l-14 0.92c-1.342 0.021-2.422 1.114-2.422 2.46 0 0.035 0.001 0.070 0.002 0.105l-0-0.005 0.54 10.56c0.035 0.682 0.344 1.286 0.818 1.708l0.002 0.002c0.432 0.393 1.007 0.635 1.639 0.64h0.131l14-0.91c0.651-0.070 1.229-0.338 1.683-0.743l-0.003 0.003 4.88-6.56c0.188-0.198 0.304-0.467 0.304-0.763 0-0.344-0.157-0.652-0.402-0.855l-0.002-0.002zM17.58 17c-0.044-0.073-0.101-0.133-0.168-0.179l-0.002-0.001-0.28-0.13-0.36-0.13-0.77-0.32c-0.172-0.060-0.321-0.135-0.458-0.225l0.008 0.005c-0.157-0.083-0.289-0.19-0.398-0.318l-0.002-0.002c-0.116-0.12-0.213-0.258-0.286-0.411l-0.004-0.009c-0.069-0.172-0.119-0.372-0.139-0.581l-0.001-0.009c0-0.002 0-0.005 0-0.008 0-0.245 0.044-0.479 0.124-0.696l-0.005 0.014c0.099-0.229 0.241-0.423 0.418-0.578l0.002-0.002c0.18-0.171 0.392-0.31 0.627-0.405l0.013-0.005c0.248-0.105 0.536-0.167 0.839-0.17h0.001c0.053-0.004 0.114-0.006 0.176-0.006 0.295 0 0.578 0.050 0.842 0.142l-0.018-0.005c0.35 0.131 0.651 0.311 0.914 0.534l-0.004-0.004-0.63 0.88c-0.173-0.119-0.37-0.226-0.579-0.312l-0.021-0.008c-0.167-0.052-0.359-0.082-0.557-0.082-0.033 0-0.065 0.001-0.097 0.002l0.005-0c-0.005-0-0.011-0-0.017-0-0.192 0-0.369 0.060-0.515 0.162l0.003-0.002c-0.117 0.089-0.191 0.227-0.191 0.384 0 0.013 0 0.026 0.002 0.038l-0-0.002c0.004 0.080 0.033 0.153 0.081 0.211l-0-0.001c0.055 0.069 0.121 0.126 0.197 0.168l0.003 0.002 0.29 0.12c0.11 0 0.23 0.1 0.36 0.14l0.78 0.26c0.348 0.117 0.643 0.309 0.879 0.559l0.001 0.001c0.221 0.264 0.356 0.606 0.36 0.979v0.001c0.001 0.021 0.001 0.046 0.001 0.071 0 0.23-0.045 0.449-0.126 0.65l0.004-0.012c-0.094 0.235-0.23 0.435-0.4 0.6l-0 0c-0.191 0.176-0.417 0.319-0.666 0.415l-0.014 0.005c-0.274 0.12-0.593 0.193-0.927 0.2l-0.003 0c-0.066 0.005-0.143 0.008-0.22 0.008-0.336 0-0.659-0.054-0.962-0.154l0.022 0.006c-0.41-0.128-0.764-0.331-1.063-0.593l0.003 0.003 0.71-0.95c0.208 0.155 0.445 0.289 0.699 0.392l0.021 0.008c0.206 0.089 0.445 0.141 0.697 0.141 0.022 0 0.044-0 0.067-0.001l-0.003 0c0.007 0 0.015 0 0.023 0 0.221 0 0.424-0.071 0.59-0.192l-0.003 0.002c0.117-0.088 0.192-0.228 0.192-0.384 0-0.016-0.001-0.032-0.002-0.048l0 0.002c0-0.004 0-0.008 0-0.012 0-0.080-0.030-0.153-0.080-0.208l0 0zM9.35 13.33l1.080 2.56c0.070 0.146 0.138 0.322 0.193 0.503l0.007 0.027c0.070 0.19 0.14 0.36 0.2 0.54v0c0.060-0.19 0.1-0.36 0.15-0.55s0.080-0.37 0.13-0.55l0.79-2.66 1.45-0.080 0.35 5.88-1.21 0.060-0.11-2.16c0-0.13 0-0.29 0-0.48s0-0.34 0-0.52 0-0.36 0-0.53 0-0.33 0-0.48v0l-0.38 1.43-0.72 2.29h-0.73l-0.95-2.2-0.54-1.37h-0.060c0 0.14 0.050 0.29 0.080 0.46s0.050 0.35 0.080 0.52 0.050 0.36 0.080 0.54 0 0.33 0 0.48l0.1 2.14-1.18 0.070-0.26-5.85zM19.79 12.78l1.34-0.080 0.3 5.9-1.32 0.060z"></path>
</svg>
