<!-- Generated by IcoMoon.io -->
<svg version="1.1" xmlns="http://www.w3.org/2000/svg" width="32" height="32" viewBox="0 0 32 32">
<title>msi-label</title>
<path d="M7 24.21c-1.319-0.004-2.394-1.041-2.46-2.344l-0-0.006-0.54-10.55c-0.002-0.040-0.004-0.087-0.004-0.134 0-1.318 1.028-2.396 2.327-2.475l0.007-0 14.050-0.91c0.001 0 0.003 0 0.005 0 0.655 0 1.261 0.21 1.754 0.566l-0.009-0.006 5.42 6c0.233 0.191 0.387 0.47 0.41 0.786l0 0.004c0 0.011 0.001 0.024 0.001 0.037 0 0.308-0.122 0.588-0.321 0.793l0-0-4.79 6.54c-0.449 0.406-1.028 0.675-1.668 0.739l-0.012 0.001-14.17 0.91zM20.47 8.52v0l-14 0.9c-0.918 0.053-1.643 0.81-1.643 1.737 0 0.036 0.001 0.072 0.003 0.108l-0-0.005 0.55 10.55c0.010 0.463 0.195 0.88 0.491 1.191l-0.001-0.001c0.297 0.275 0.695 0.443 1.133 0.443 0.038 0 0.075-0.001 0.112-0.004l-0.005 0 14-0.91c0.455-0.046 0.86-0.227 1.183-0.503l-0.003 0.003 4.79-6.55c0.074-0.066 0.12-0.162 0.12-0.268 0-0.004-0-0.008-0-0.012v0.001c-0.004-0.112-0.062-0.21-0.149-0.269l-0.001-0.001-5.42-6c-0.333-0.225-0.738-0.367-1.174-0.39l-0.006-0z"></path>
<path d="M8.47 19.38l-0.21-5.7 1.72-0.070 1.18 3.85 0.88-3.92 1.72-0.070 0.22 5.7-1.070 0.040-0.17-4.49-0.96 4.53-1.11 0.050-1.3-4.45 0.17 4.49-1.070 0.040z"></path>
<path d="M14.76 17.28l1.12-0.15c0.053 0.324 0.211 0.604 0.439 0.809l0.001 0.001c0.204 0.152 0.461 0.244 0.739 0.244 0.036 0 0.071-0.002 0.106-0.004l-0.005 0c0.007 0 0.015 0 0.023 0 0.304 0 0.585-0.102 0.81-0.273l-0.003 0.002c0.159-0.131 0.26-0.328 0.26-0.549 0-0.004-0-0.008-0-0.011v0.001c0-0.002 0-0.005 0-0.008 0-0.128-0.049-0.245-0.13-0.333l0 0c-0.113-0.109-0.255-0.19-0.414-0.229l-0.006-0.001c-0.14 0-0.45-0.12-0.93-0.22-0.499-0.071-0.946-0.252-1.33-0.517l0.010 0.007c-0.342-0.263-0.563-0.67-0.57-1.129v-0.001c-0.001-0.022-0.002-0.048-0.002-0.074 0-0.276 0.079-0.534 0.215-0.752l-0.003 0.006c0.169-0.264 0.403-0.472 0.68-0.606l0.010-0.004c0.33-0.145 0.714-0.232 1.117-0.24l0.003-0c0.081-0.010 0.174-0.015 0.269-0.015 0.509 0 0.981 0.159 1.369 0.43l-0.008-0.005c0.362 0.295 0.597 0.733 0.62 1.226l0 0.004-1.15 0.11c-0.036-0.25-0.16-0.465-0.339-0.619l-0.001-0.001c-0.179-0.11-0.395-0.175-0.627-0.175-0.040 0-0.079 0.002-0.118 0.006l0.005-0c-0.291 0.003-0.561 0.092-0.785 0.243l0.005-0.003c-0.104 0.077-0.171 0.2-0.171 0.338 0 0.008 0 0.015 0.001 0.023l-0-0.001c0.007 0.141 0.080 0.264 0.189 0.339l0.001 0.001c0.309 0.171 0.671 0.291 1.055 0.339l0.015 0.001c0.473 0.077 0.897 0.202 1.296 0.374l-0.036-0.014c0.542 0.255 0.91 0.797 0.91 1.425 0 0.012-0 0.025-0 0.037l0-0.002c0.001 0.024 0.002 0.051 0.002 0.079 0 0.675-0.408 1.255-0.991 1.507l-0.011 0.004c-0.363 0.157-0.784 0.252-1.227 0.26l-0.003 0c-0.078 0.009-0.168 0.014-0.26 0.014-0.533 0-1.026-0.17-1.428-0.459l0.007 0.005c-0.412-0.354-0.69-0.855-0.749-1.421l-0.001-0.009z"></path>
<path d="M20.218 13.198l1.15-0.046 0.228 5.7-1.15 0.046-0.228-5.7z"></path>
</svg>
