<!-- Generated by IcoMoon.io -->
<svg version="1.1" xmlns="http://www.w3.org/2000/svg" width="32" height="32" viewBox="0 0 32 32">
<title>open-box</title>
<path d="M26.63 13.76l-1.63-1.76 1.54-1.5c0.266-0.258 0.43-0.619 0.43-1.018 0-0.57-0.336-1.062-0.822-1.288l-0.009-0.004-6-2.46c-0.16-0.076-0.348-0.12-0.546-0.12-0.002 0-0.003 0-0.005 0h0c-0.001 0-0.001 0-0.002 0-0.229 0-0.445 0.055-0.636 0.154l0.008-0.004-2.96 1.36-2.95-1.42c-0.178-0.088-0.388-0.14-0.61-0.14v0c-0.203 0-0.395 0.045-0.569 0.124l0.009-0.004-6 2.42c-0.494 0.232-0.83 0.726-0.83 1.298 0 0.39 0.156 0.744 0.41 1.002l-0-0 1.54 1.6-1.63 1.77c-0.235 0.258-0.38 0.603-0.38 0.982 0 0.059 0.004 0.117 0.010 0.175l-0.001-0.007c0.068 0.429 0.321 0.787 0.673 0.996l2.006 1.104c-0.41 0.242-0.681 0.681-0.681 1.184 0 0.020 0 0.039 0.001 0.059l-0-0.003v3c0.001 0.519 0.288 0.972 0.713 1.206l0.007 0.004 7.28 3.8c0.197 0.107 0.431 0.169 0.68 0.17h0c0.23-0.005 0.446-0.060 0.639-0.154l-0.009 0.004 7.87-3.76c0.484-0.219 0.815-0.695 0.82-1.249v-3.001c-0.002-0.516-0.29-0.965-0.713-1.196l-0.007-0.004 2-1.1c0.354-0.216 0.603-0.574 0.669-0.992l0.001-0.008c0.007-0.053 0.011-0.114 0.011-0.177 0-0.378-0.14-0.722-0.372-0.985l0.001 0.002zM16 9.65l4.5 2.26-4.5 2.26-4.5-2.26zM6.27 15c-0.078-0.041-0.132-0.118-0.14-0.209l-0-0.001c-0.001-0.009-0.001-0.019-0.001-0.029 0-0.077 0.027-0.147 0.072-0.202l-0 0.001 2.080-2.27c0.087-0.085 0.14-0.204 0.14-0.335s-0.054-0.25-0.14-0.335l-2-2c-0.054-0.050-0.087-0.12-0.087-0.199 0-0.022 0.003-0.043 0.007-0.063l-0 0.002c0.017-0.093 0.077-0.17 0.158-0.209l0.002-0.001 6-2.42h0.24l2.92 1.41c0.092 0.049 0.154 0.142 0.16 0.249l0 0.001c0 0 0 0.001 0 0.001 0 0.108-0.055 0.203-0.139 0.258l-0.001 0.001-5.7 2.83c-0.159 0.080-0.267 0.243-0.267 0.43s0.107 0.35 0.264 0.429l0.003 0.001 5.66 2.84c0.070 0.047 0.118 0.122 0.13 0.208l0 0.002c0.003 0.015 0.005 0.033 0.005 0.051 0 0.070-0.029 0.133-0.075 0.179l-0 0-2.56 2.82c-0.049 0.055-0.121 0.090-0.2 0.090h-0c-0.022 0.006-0.048 0.010-0.075 0.010s-0.053-0.004-0.077-0.011l0.002 0zM23.88 21.31c-0.003 0.099-0.058 0.184-0.139 0.229l-0.001 0.001-7.89 3.76c-0.019 0.006-0.042 0.010-0.065 0.010s-0.046-0.004-0.067-0.010l0.002 0c-0.023 0.004-0.049 0.007-0.075 0.007s-0.052-0.002-0.078-0.007l0.003 0-7.32-3.8-0.13-0.22v-3c0-0.155 0.125-0.28 0.28-0.28v0c0.060 0.001 0.115 0.020 0.161 0.051l-0.001-0.001 3.89 2.24c0.070 0.042 0.154 0.067 0.244 0.067 0.131 0 0.249-0.052 0.336-0.137l-0 0 2.77-2.64c0.052-0.049 0.123-0.079 0.2-0.080h0c0.006-0.001 0.013-0.001 0.020-0.001 0.071 0 0.135 0.031 0.179 0.081l0 0 2.8 2.64c0.089 0.084 0.21 0.136 0.342 0.136 0.091 0 0.176-0.024 0.25-0.067l-0.002 0.001 3.89-2.24c0.034-0.024 0.074-0.042 0.118-0.050l0.002-0c0 0 0 0 0.001 0 0.148 0 0.269 0.114 0.279 0.259l0 0.001zM25.73 15l-6.36 3.52c-0.022 0.006-0.048 0.010-0.075 0.010s-0.053-0.004-0.077-0.011l0.002 0c-0.079-0-0.151-0.035-0.2-0.090l-0-0-2.58-2.81c-0.050-0.056-0.081-0.131-0.081-0.213 0-0.010 0-0.019 0.001-0.028l-0 0.001c0.019-0.088 0.070-0.161 0.139-0.209l0.001-0.001 0.21-0.11 5.45-2.73c0.159-0.080 0.267-0.243 0.267-0.43s-0.107-0.35-0.264-0.429l-0.003-0.001-5.44-2.73-0.22-0.1c-0.091-0.050-0.152-0.145-0.152-0.255s0.061-0.205 0.15-0.254l0.002-0.001 2.87-1.41c0.018-0.004 0.039-0.007 0.060-0.007s0.042 0.002 0.062 0.007l-0.002-0c0.016-0.005 0.035-0.008 0.055-0.008s0.039 0.003 0.056 0.008l-0.001-0 6 2.46c0.085 0.042 0.146 0.123 0.16 0.218l0 0.002c0.004 0.017 0.006 0.037 0.006 0.057 0 0.077-0.033 0.146-0.086 0.193l-0 0-2 1.94c-0.081 0.090-0.13 0.209-0.13 0.34s0.049 0.25 0.13 0.34l-0-0 2.070 2.26c0.050 0.052 0.081 0.123 0.081 0.201 0 0.010-0 0.020-0.002 0.030l0-0.001c-0.008 0.092-0.062 0.169-0.139 0.209l-0.001 0.001z"></path>
</svg>
