<svg id="icn-numero-pedido" xmlns="http://www.w3.org/2000/svg" width="32" height="32" viewBox="0 0 48 48">
	<title>icn-numero-pedido</title>
	<g fill="#333333">
	    <path d="M40.5547,3 C43.0097,3 44.9997,4.99 44.9997,7.446 L44.9997,40.555 C44.9997,43.01 43.0097,45 40.5547,45 L7.4457,45 C4.9907,45 2.9997,43.01 2.9997,40.555 L2.9997,7.446 C2.9997,4.99 4.9907,3 7.4457,3 L40.5547,3 Z M40.5547,4.9 L7.4457,4.9 C6.0417,4.9 4.8997,6.042 4.8997,7.446 L4.8997,40.555 C4.8997,41.958 6.0417,43.1 7.4457,43.1 L40.5547,43.1 C41.9577,43.1 43.0997,41.958 43.0997,40.555 L43.0997,7.446 C43.0997,6.042 41.9577,4.9 40.5547,4.9 Z M28.541,19.9897 L20.547,19.9897 L19.459,27.0317 L27.453,27.0317 L28.541,19.9897 Z M37.515,19.9927 L32.098,19.9927 L31.009,27.0347 L36.272,27.0347 L36.272,30.0227 L30.544,30.0227 L28.996,39.9997 L25.502,39.9997 L25.52,39.8857 L26.99,30.0197 L18.993,30.0197 L17.439,39.9997 L13.884,39.9997 L15.437,30.0197 L10.485,30.0197 L10.485,27.0317 L15.903,27.0317 L16.991,19.9897 L11.727,19.9897 L11.727,16.9567 L17.457,16.9567 L18.884,7.9997 L22.378,7.9997 L20.949,16.9517 L29.01,16.9517 L30.496,7.9997 L33.991,7.9997 L32.5,16.9517 L37.515,16.9517 L37.515,19.9927 Z"/>
	</g>
</svg>