<!-- Generated by IcoMoon.io -->
<svg version="1.1" xmlns="http://www.w3.org/2000/svg" width="32" height="32" viewBox="0 0 32 32">
<title>outlet</title>
<path d="M27 8c-0.053-0.664-0.228-1.276-0.503-1.829l0.013 0.029c-0.127-0.237-0.299-0.434-0.505-0.587l-0.005-0.003c-0.286-0.196-0.62-0.347-0.979-0.436l-0.021-0.004c-0.393-0.109-0.844-0.171-1.31-0.171-0.042 0-0.084 0-0.126 0.002l0.006-0h-0.23c-1.112 0.022-2.176 0.185-3.189 0.471l0.089-0.021c-1.028 0.248-1.883 0.515-2.713 0.831l0.153-0.051c-0.47 0.176-0.876 0.389-1.25 0.643l0.020-0.013c-0.204 0.139-0.381 0.294-0.538 0.467l-0.002 0.003-0.17 0.17-10.29 10.21c-0.252 0.235-0.416 0.561-0.44 0.926l-0 0.004v0.16c0.046 0.375 0.217 0.704 0.47 0.95l0 0 2.3 2.25 4.6 4.56c0.252 0.231 0.581 0.381 0.944 0.41l0.005 0h0.17c0.265-0.040 0.504-0.121 0.722-0.236l-0.012 0.006c0.122-0.095 0.23-0.197 0.328-0.307l0.002-0.003 5.3-5.27 2-2 3.3-3.29c0.178-0.187 0.326-0.405 0.434-0.645l0.006-0.015c0.254-0.47 0.479-1.018 0.645-1.59l0.015-0.060c0.21-0.78 0.36-1.45 0.48-2.090 0.147-0.745 0.248-1.619 0.279-2.511l0.001-0.029v-0.25c0.007-0.102 0.010-0.22 0.010-0.34s-0.004-0.238-0.011-0.356l0.001 0.016zM25.88 10.51c-0.197 1.353-0.505 2.564-0.921 3.722l0.041-0.132-0.11 0.24c-0.106 0.32-0.248 0.599-0.427 0.85l0.007-0.010c-0.080 0.1-0.17 0.19-0.26 0.29l-0.27 0.26-5.16 5.070c-1.71 1.7-3.41 3.39-5.12 5.070-0.074 0.074-0.177 0.12-0.29 0.12-0.007 0-0.014-0-0.021-0l0.001 0c-0.003 0-0.007 0-0.010 0-0.113 0-0.216-0.046-0.29-0.12v0c-1.14-1.1-2.25-2.21-3.37-3.32s-2.23-2.21-3.33-3.3l-0.2-0.2-0.060-0.050c-0.044-0.064-0.071-0.144-0.071-0.23s0.026-0.166 0.072-0.231l-0.001 0.001v-0.070c0.022-0.052 0.061-0.094 0.109-0.119l0.001-0.001 10.59-10.58c0.131-0.132 0.287-0.24 0.46-0.316l0.010-0.004c0.333-0.192 0.72-0.364 1.125-0.497l0.045-0.013c0.841-0.302 1.851-0.566 2.889-0.744l0.111-0.016c0.38-0.074 0.852-0.138 1.331-0.177l0.049-0.003h0.54c0.023-0 0.050-0.001 0.077-0.001 0.441 0 0.87 0.055 1.279 0.158l-0.036-0.008c0.318 0.082 0.593 0.231 0.822 0.432l-0.002-0.002c0.193 0.283 0.322 0.623 0.359 0.991l0.001 0.009v0.050c0.057 0.429 0.090 0.926 0.090 1.43s-0.033 1.001-0.096 1.487l0.006-0.057z"></path>
<path d="M24.050 9.050c0.008 0.056 0.012 0.12 0.012 0.186 0 0.344-0.122 0.66-0.324 0.907l0.002-0.002c-0.247 0.293-0.596 0.494-0.992 0.549l-0.008 0.001c-0.044 0.005-0.095 0.008-0.146 0.008-0.432 0-0.817-0.197-1.072-0.505l-0.002-0.002c-0.185-0.243-0.296-0.551-0.296-0.885 0-0.13 0.017-0.256 0.048-0.375l-0.002 0.010c0.123-0.495 0.505-0.877 0.991-0.998l0.009-0.002c0.098-0.022 0.21-0.035 0.325-0.035 0.282 0 0.546 0.076 0.772 0.209l-0.007-0.004c0.313 0.246 0.538 0.591 0.628 0.988l0.002 0.012z"></path>
<path d="M15 13.29c0.018-0.004 0.039-0.006 0.060-0.006 0.172 0 0.312 0.135 0.32 0.305l0 0.001v6.66c0.001 0.008 0.001 0.017 0.001 0.026 0 0.177-0.143 0.32-0.32 0.32-0.022 0-0.043-0.002-0.063-0.006l0.002 0c-0.149-0.029-0.26-0.159-0.26-0.314 0-0.002 0-0.004 0-0.006v0-6.7c0.022-0.139 0.125-0.248 0.258-0.28l0.002-0z"></path>
<path d="M14.080 16.41c-0.122-0.245-0.315-0.438-0.553-0.557l-0.007-0.003c-0.158-0.083-0.344-0.132-0.542-0.132-0.486 0-0.904 0.294-1.085 0.714l-0.003 0.008c-0.052 0.124-0.083 0.269-0.083 0.42s0.030 0.296 0.085 0.427l-0.003-0.007c0.108 0.272 0.291 0.494 0.525 0.647l0.005 0.003c0.176 0.102 0.388 0.162 0.613 0.162 0.027 0 0.054-0.001 0.080-0.003l-0.004 0c0.268-0.024 0.508-0.125 0.703-0.282l-0.002 0.002c0.173-0.145 0.3-0.34 0.358-0.562l0.002-0.008c0.031-0.103 0.048-0.222 0.048-0.344 0-0.175-0.036-0.342-0.101-0.494l0.003 0.008zM13.33 17.41c-0.086 0.052-0.191 0.083-0.302 0.083-0.168 0-0.32-0.070-0.427-0.183l-0-0c-0.098-0.095-0.158-0.227-0.158-0.374 0-0.071 0.014-0.138 0.040-0.2l-0.001 0.003c0.067-0.182 0.225-0.317 0.417-0.35l0.003-0c0.032-0.006 0.068-0.009 0.105-0.009 0.24 0 0.448 0.141 0.544 0.346l0.002 0.004c0.024 0.060 0.037 0.13 0.037 0.203 0 0.198-0.101 0.373-0.255 0.475l-0.002 0.001z"></path>
<path d="M18.3 16.46c-0.102-0.283-0.309-0.506-0.573-0.627l-0.007-0.003c-0.15-0.069-0.325-0.109-0.509-0.109-0.053 0-0.106 0.003-0.157 0.010l0.006-0.001c-0.405 0.065-0.741 0.312-0.927 0.653l-0.003 0.007c-0.084 0.153-0.134 0.335-0.134 0.528 0 0.122 0.020 0.24 0.056 0.349l-0.002-0.008c0.147 0.495 0.599 0.851 1.133 0.851 0.013 0 0.026-0 0.039-0.001l-0.002 0c0.286-0.019 0.545-0.125 0.753-0.292l-0.003 0.002c0.185-0.151 0.319-0.356 0.378-0.592l0.002-0.008c0.029-0.093 0.045-0.201 0.045-0.312 0-0.162-0.035-0.316-0.098-0.455l0.003 0.007zM17.46 17.4c-0.078 0.041-0.17 0.065-0.267 0.065-0.177 0-0.336-0.079-0.442-0.204l-0.001-0.001c-0.080-0.097-0.128-0.223-0.128-0.36s0.048-0.263 0.129-0.361l-0.001 0.001c0.078-0.096 0.19-0.162 0.317-0.18l0.003-0c0.031-0.006 0.066-0.009 0.102-0.009 0.252 0 0.466 0.161 0.546 0.385l0.001 0.004c0.014 0.047 0.022 0.101 0.022 0.157 0 0.217-0.121 0.405-0.299 0.502l-0.003 0.002z"></path>
</svg>
