<!-- Generated by IcoMoon.io -->
<svg version="1.1" xmlns="http://www.w3.org/2000/svg" width="32" height="32" viewBox="0 0 32 32">
<title>peliculas-musica-y-libros</title>
<path d="M10.81 17.39c0.003-0 0.006-0 0.009-0 0.122 0 0.24 0.022 0.348 0.062l-0.007-0.002v-0.37c-0.053-0.007-0.113-0.011-0.175-0.011s-0.122 0.004-0.182 0.012l0.007-0.001c-0.726 0.012-1.309 0.603-1.309 1.33 0 0.362 0.145 0.691 0.38 0.93l-0-0c0.24 0.234 0.568 0.379 0.93 0.38h0c0.011 0 0.023 0.001 0.036 0.001 0.112 0 0.22-0.019 0.321-0.053l-0.007 0.002v-0.37c-0.104 0.042-0.223 0.068-0.349 0.070h-0.001c-0.003 0-0.006 0-0.009 0-0.264 0-0.502-0.111-0.67-0.29l-0-0c-0.146-0.173-0.235-0.398-0.235-0.644 0-0.522 0.4-0.951 0.911-0.996l0.004-0z"></path>
<path d="M10.13 17.67c-0.165 0.178-0.267 0.417-0.267 0.68s0.101 0.502 0.267 0.681l-0.001-0.001c0.168 0.179 0.406 0.29 0.671 0.29 0.003 0 0.007-0 0.010-0h-0.001c0.127-0.002 0.246-0.028 0.357-0.072l-0.007 0.002v0.37c-0.094 0.032-0.202 0.051-0.314 0.051-0.013 0-0.025-0-0.038-0.001l0.002 0c-0.362-0.001-0.69-0.146-0.93-0.38l0 0c-0.253-0.242-0.41-0.583-0.41-0.96 0-0.735 0.595-1.33 1.33-1.33 0.003 0 0.007 0 0.010 0h-0.001c0.053-0.007 0.113-0.011 0.175-0.011s0.122 0.004 0.182 0.012l-0.007-0.001v0.37c-0.101-0.038-0.219-0.060-0.341-0.060-0.003 0-0.006 0-0.009 0h0c-0.265 0.004-0.504 0.11-0.68 0.28l0-0z"></path>
<path d="M26.42 13.44h-13.5l0.37-0.11h0.26l0.23-0.060h0.24l11.83-3.72c0.065-0.020 0.117-0.063 0.149-0.119l0.001-0.001c0.012-0.030 0.019-0.064 0.019-0.1s-0.007-0.070-0.020-0.102l0.001 0.002-0.36-1.23c-0.153-0.483-0.596-0.827-1.12-0.83h-0c-0.118 0.002-0.232 0.020-0.339 0.052l0.009-0.002-12.62 3.78c-0.13 0.041-0.243 0.099-0.344 0.172l0.004-0.002c-0.296 0.207-0.486 0.546-0.486 0.929 0 0.043 0.002 0.085 0.007 0.126l-0-0.005c-3.363 0.040-6.075 2.772-6.080 6.139v0.001c0 0 0 0 0 0 0 3.393 2.748 6.144 6.139 6.15h0.001c0.22 0 0.43 0 0.64 0 0.039 0.049 0.081 0.091 0.128 0.129l0.002 0.001c0.197 0.168 0.455 0.27 0.737 0.27 0.001 0 0.002 0 0.004 0h13.18c0 0 0 0 0 0 0.643 0 1.164-0.518 1.17-1.159v-10.001c-0.005-0.136-0.114-0.245-0.25-0.25h-0zM10.81 12.81h0.070l0.28 0.93v2.2c-0.052-0.005-0.113-0.008-0.175-0.008s-0.123 0.003-0.183 0.008l0.008-0.001c-0.007-0-0.015-0-0.024-0-0.308 0-0.602 0.059-0.872 0.166l0.016-0.006-1.39-2.8c0.668-0.302 1.448-0.478 2.269-0.48h0.001zM11.16 16.32v4.2c-0.052 0.005-0.113 0.008-0.175 0.008s-0.123-0.003-0.183-0.008l0.008 0.001c-0.003 0-0.007 0-0.010 0-1.171 0-2.12-0.949-2.12-2.12 0-0.004 0-0.007 0-0.011v0.001c0-1.176 0.954-2.13 2.13-2.13v0c0.052-0.005 0.113-0.008 0.175-0.008s0.123 0.003 0.183 0.008l-0.008-0.001zM6.85 14.39c0.41-0.399 0.886-0.733 1.408-0.986l0.032-0.014 1.39 2.79c-0.241 0.127-0.448 0.277-0.631 0.451l0.001-0.001c-0.133 0.136-0.252 0.286-0.354 0.449l-0.006 0.011-2.8-1.38c0.282-0.49 0.614-0.911 0.998-1.278l0.002-0.002zM10.89 23.99c-3.087-0.014-5.585-2.521-5.585-5.61 0-0.868 0.197-1.69 0.549-2.424l-0.015 0.034 2.8 1.38c-0.15 0.31-0.238 0.675-0.238 1.060 0 1.37 1.11 2.48 2.48 2.48 0.003 0 0.006 0 0.008 0h-0c0.052 0.005 0.113 0.008 0.175 0.008s0.123-0.003 0.183-0.008l-0.008 0.001v2.79c-0.005 0.036-0.007 0.078-0.007 0.12s0.003 0.084 0.008 0.125l-0.001-0.005h-0.38zM24 14l-1.15 1.67h-2.8l1.15-1.67zM20.89 14l-1.15 1.67h-2.8l1.15-1.67zM14.8 14.31l0.050-0.080 0.1-0.14 0.050-0.090h2.78l-1.18 1.62h-2.77l0.89-1.28zM14.64 14v0 0.080l-0.050 0.070-1 1.48h-1.93v-1.63zM24.33 7.72c0.029-0.005 0.061-0.007 0.095-0.007s0.066 0.003 0.099 0.008l-0.004-0c0.297 0.006 0.547 0.199 0.639 0.465l0.001 0.005 0.31 1-1.75 0.53-1.6-1.33zM21.8 8.48l1.6 1.33-2.58 0.78-1.59-1.38zM18.9 9.36v0l1.6 1.33-2.62 0.79-1.6-1.33zM16 10.19l1.6 1.33-2.67 0.81-1.64-1.33zM11.46 12.78v-0.46c-0.002-0.012-0.004-0.026-0.004-0.040s0.001-0.028 0.004-0.041l-0 0.001c-0.008-0.038-0.013-0.082-0.013-0.128 0-0.292 0.193-0.539 0.458-0.621l0.005-0.001 1.090-0.39 1.6 1.33-1.17 0.35h-0.27l-0.26 0.080h-0.3l-1 0.29zM26.16 23.7c0 0.364-0.296 0.66-0.66 0.66v0h-13.32c-0.060-0.010-0.114-0.031-0.162-0.061l0.002 0.001-0.12-0.070c-0.048-0.045-0.091-0.094-0.128-0.147l-0.002-0.003v-0.17c-0.005-0.029-0.007-0.061-0.007-0.095s0.003-0.066 0.008-0.099l-0 0.004v-7.6h14.5zM26.16 15.62h-3l1.16-1.62h1.84z"></path>
<path d="M23.7 18.89v0.18c0 0.003 0 0.006 0 0.010 0 0.099-0.081 0.18-0.18 0.18-0 0-0 0-0 0v0h-9.14c-0 0-0 0-0 0-0.099 0-0.18-0.081-0.18-0.18 0-0.004 0-0.007 0-0.010l-0 0v-0.18c-0-0.003-0-0.006-0-0.010 0-0.099 0.081-0.18 0.18-0.18 0 0 0 0 0 0v0h9.14c0 0 0 0 0 0 0.099 0 0.18 0.081 0.18 0.18 0 0.004-0 0.007-0 0.010l0-0z"></path>
<path d="M23.7 17.66v0.19c0 0 0 0 0 0 0 0.101-0.079 0.184-0.18 0.19l-0 0h-9.14c-0.101-0.005-0.18-0.088-0.18-0.19 0-0 0-0 0-0v0-0.19c0-0.099 0.081-0.18 0.18-0.18v0h9.14c0.099 0 0.18 0.081 0.18 0.18v0z"></path>
</svg>
