<!-- Generated by IcoMoon.io -->
<svg version="1.1" xmlns="http://www.w3.org/2000/svg" width="32" height="32" viewBox="0 0 32 32">
<title>phone-full</title>
<path d="M26.56 24.34c-1.48 1.56-2.32 2.82-4.15 2.73-7.7-0.54-17.92-11.76-17.41-18.15 0.1-1.34 1.49-2.41 2.71-3.57 0.196-0.256 0.501-0.42 0.845-0.42s0.649 0.164 0.843 0.417l0.002 0.003c4.34 4.34 4.6 3.49 1.2 6.7-0.257 0.205-0.42 0.518-0.42 0.869 0 0.175 0.040 0.34 0.112 0.487l-0.003-0.007c1.35 3.3 4.91 6.61 8.13 8.27 1.93 0.93 3.28-4 5-2.2 1 1 2.1 2.060 3.13 3.13 0.261 0.203 0.427 0.517 0.427 0.87s-0.166 0.667-0.424 0.868l-0.002 0.002z"></path>
</svg>
