<!-- Generated by IcoMoon.io -->
<svg version="1.1" xmlns="http://www.w3.org/2000/svg" width="32" height="32" viewBox="0 0 32 32">
<title>phone</title>
<path d="M23.48 18.12c-1.95-2-3.71 0.35-4.92 1.57-2.681-1.429-4.821-3.569-6.211-6.17l-0.039-0.080c3.64-3.32 2.93-3.79-1.17-7.69-2-2-3.71 0.39-5 1.71-0.596 0.598-0.985 1.403-1.049 2.298l-0.001 0.012c-0.66 5.93 8.91 16.83 16.44 17.23 2.26 0.15 3.080-1.14 4.68-2.74 0.459-0.422 0.745-1.025 0.745-1.695s-0.287-1.273-0.744-1.694l-0.002-0.002zM25.24 23.32c-1.29 1.36-2 2.46-3.63 2.38-6.72-0.47-15.61-10.27-15.19-15.85 0.080-1.18 1.29-2.11 2.34-3.13 0.172-0.224 0.439-0.367 0.74-0.367s0.568 0.143 0.738 0.364l0.002 0.002c3.79 3.79 4 3.050 1.060 5.86-0.231 0.185-0.378 0.467-0.378 0.783 0 0.14 0.029 0.273 0.080 0.394l-0.002-0.007c1.17 2.89 4.29 5.78 7.1 7.22 1.68 0.82 2.85-3.51 4.38-1.91 0.89 0.9 1.83 1.8 2.73 2.73 0.218 0.185 0.356 0.459 0.356 0.765s-0.138 0.58-0.355 0.764l-0.001 0.001z"></path>
</svg>
