<!-- Generated by IcoMoon.io -->
<svg version="1.1" xmlns="http://www.w3.org/2000/svg" width="32" height="32" viewBox="0 0 32 32">
<title>phone-checkout</title>
<path d="M14.79 13.15l0.21-3.15c0-0.008 0-0.016 0-0.025 0-0.237-0.118-0.447-0.298-0.573l-0.002-0.002c-0.1-0.080-0.216-0.148-0.341-0.197l-0.009-0.003-0.35-0.15c-0.177-0.045-0.379-0.070-0.588-0.070-1.155 0-2.126 0.786-2.408 1.853l-0.004 0.017c-0.159 0.613-0.25 1.317-0.25 2.041 0 1.569 0.427 3.038 1.171 4.298l-0.022-0.039c1.178 1.887 3.014 3.27 5.18 3.837l0.060 0.013c0.15 0.033 0.323 0.052 0.5 0.052 0.035 0 0.070-0.001 0.105-0.002l-0.005 0c0.009 0 0.020 0 0.030 0 1.139 0 2.103-0.75 2.425-1.782l0.005-0.018c0-0.15 0-0.25 0-0.4v-0.4c-0.022-0.248-0.179-0.455-0.396-0.548l-0.004-0.002-2.91-1.3-0.1-0.050c-0.050-0.014-0.107-0.022-0.166-0.022-0.193 0-0.366 0.086-0.484 0.221l-0.001 0.001-0.3 0.35c-0.502-0.415-0.932-0.893-1.285-1.426l-0.015-0.024c-0.338-0.514-0.583-1.12-0.696-1.772l-0.004-0.028 0.45-0.1c0.282-0.061 0.492-0.305 0.5-0.599l0-0.001zM13.84 12.8c-0.198 0.005-0.387 0.041-0.562 0.104l0.012-0.004c-0.29 0.060-0.505 0.314-0.505 0.618 0 0.029 0.002 0.058 0.006 0.086l-0-0.003c0.114 0.959 0.438 1.824 0.924 2.573l-0.014-0.023c0.455 0.815 1.075 1.486 1.82 1.987l0.020 0.013c0.049 0.058 0.12 0.096 0.199 0.1l0.001 0c0.053 0.016 0.114 0.025 0.177 0.025 0.193 0 0.367-0.087 0.482-0.224l0.001-0.001c0.121-0.121 0.233-0.252 0.334-0.391l0.006-0.009 2.5 1c0 0.1 0 0.15 0 0.25-0.164 0.664-0.754 1.149-1.458 1.149-0.136 0-0.267-0.018-0.392-0.052l0.011 0.002c-3.25-0.798-5.623-3.686-5.623-7.128 0-0.607 0.074-1.198 0.213-1.762l-0.011 0.050c0.17-0.644 0.73-1.119 1.406-1.16l0.004-0c0.021-0.001 0.045-0.002 0.070-0.002 0.118 0 0.232 0.019 0.338 0.054l-0.008-0.002c0.1 0 0.15 0 0.25 0.1z"></path>
<path d="M18.64 9.25l-0.25 0.95c1.097 0.238 2.002 0.914 2.54 1.832l0.010 0.018c0.355 0.585 0.565 1.293 0.565 2.049 0 0.338-0.042 0.665-0.121 0.979l0.006-0.028 0.95 0.25c0.088-0.361 0.139-0.774 0.139-1.2 0-0.956-0.256-1.853-0.702-2.625l0.014 0.025c-0.685-1.152-1.799-1.989-3.117-2.294l-0.033-0.006z"></path>
<path d="M19.14 6.8l-0.25 1c1.794 0.392 3.28 1.485 4.184 2.971l0.016 0.029c0.588 0.945 0.937 2.092 0.937 3.32 0 0.543-0.068 1.071-0.197 1.574l0.009-0.044 0.95 0.25c0.002-0.025 0.004-0.055 0.004-0.085s-0.001-0.060-0.004-0.089l0 0.004c0.119-0.498 0.187-1.069 0.187-1.657 0-3.543-2.473-6.508-5.787-7.264l-0.050-0.010z"></path>
<path d="M20.49 20.5c-0.276 0-0.5 0.224-0.5 0.5v0 2h-11.99v-15h9.48c0.129-0.011 0.23-0.118 0.23-0.249 0-0.004-0-0.008-0-0.011l0 0.001c0-0 0-0.001 0-0.001 0-0.133-0.107-0.24-0.24-0.24-0.007 0-0.014 0-0.021 0.001l0.001-0h-9.45v-0.5c0-1.105 0.895-2 2-2v0h8c0.541 0.001 1.033 0.21 1.401 0.551l-0.001-0.001c0.088 0.085 0.208 0.137 0.34 0.137s0.252-0.052 0.34-0.137l-0 0c0.087-0.087 0.141-0.207 0.141-0.34s-0.054-0.253-0.141-0.34v0c-0.531-0.536-1.267-0.868-2.080-0.87h-8c-1.657 0-3 1.343-3 3v0 18c0 1.657 1.343 3 3 3v0h8c1.657 0 3-1.343 3-3v0-4c0-0.276-0.224-0.5-0.5-0.5v0zM18 27h-8c-1.105 0-2-0.895-2-2v0-1.5h12v1.5c0 1.105-0.895 2-2 2v0z"></path>
<path d="M13 6v0c-0.124 0.011-0.22 0.114-0.22 0.239 0 0.004 0 0.008 0 0.011l-0-0.001c-0 0.003-0 0.007-0 0.011 0 0.126 0.096 0.229 0.219 0.239l0.001 0h2c0.124-0.011 0.22-0.114 0.22-0.239 0-0.004-0-0.008-0-0.011l0 0.001c0.001-0.006 0.001-0.013 0.001-0.020 0-0.124-0.098-0.225-0.22-0.23h-0z"></path>
<path d="M14 24c-0.69 0-1.25 0.56-1.25 1.25s0.56 1.25 1.25 1.25v0 0c0.676-0.011 1.22-0.562 1.22-1.24 0-0.004 0-0.007-0-0.011v0.001c0-0 0-0 0-0 0-0.68-0.543-1.233-1.218-1.25l-0.002-0zM14 26c-0.414 0-0.75-0.336-0.75-0.75s0.336-0.75 0.75-0.75v0c0.41 0.011 0.739 0.34 0.75 0.749l0 0.001c0 0.003 0 0.007 0 0.010 0 0.409-0.331 0.74-0.74 0.74-0.004 0-0.007-0-0.011-0h0.001z"></path>
</svg>
