<!-- Generated by IcoMoon.io -->
<svg version="1.1" xmlns="http://www.w3.org/2000/svg" width="32" height="32" viewBox="0 0 32 32">
<title>plus-full</title>
<path d="M16 5c-6.075 0-11 4.925-11 11s4.925 11 11 11c6.075 0 11-4.925 11-11v0c0-6.075-4.925-11-11-11v0zM22.88 16.15c-0.022 0.471-0.406 0.845-0.88 0.85h-5v5c-0.006 0.484-0.396 0.874-0.879 0.88h-0.301c-0.458-0.037-0.816-0.416-0.82-0.88v-5h-5c-0 0-0 0-0 0-0.488 0-0.884-0.393-0.89-0.879v-0.301c0.037-0.46 0.42-0.82 0.887-0.82 0.001 0 0.002 0 0.003 0h5v-5c0-0.486 0.394-0.88 0.88-0.88v0h0.3c0.459 0.032 0.82 0.413 0.82 0.878 0 0.001 0 0.001 0 0.002v-0 5h5c0 0 0 0 0 0 0.488 0 0.884 0.393 0.89 0.879v0.001z"></path>
</svg>
