<!-- Generated by IcoMoon.io -->
<svg version="1.1" xmlns="http://www.w3.org/2000/svg" width="32" height="32" viewBox="0 0 32 32">
<title>promotions-full</title>
<path d="M7 24.21c-1.319-0.004-2.394-1.041-2.46-2.344l-0-0.006-0.54-10.55c-0.002-0.040-0.004-0.087-0.004-0.134 0-1.318 1.028-2.396 2.327-2.475l0.007-0 14.050-0.91c0.001 0 0.003 0 0.005 0 0.655 0 1.261 0.21 1.754 0.566l-0.009-0.006 5.42 6c0.233 0.191 0.387 0.47 0.41 0.786l0 0.004c0 0.011 0.001 0.024 0.001 0.037 0 0.308-0.122 0.588-0.321 0.793l0-0-4.79 6.54c-0.449 0.406-1.028 0.675-1.668 0.739l-0.012 0.001-14.17 0.91zM20.47 8.52v0l-14 0.9c-0.918 0.053-1.643 0.81-1.643 1.737 0 0.036 0.001 0.072 0.003 0.108l-0-0.005 0.55 10.55c0.010 0.463 0.195 0.88 0.491 1.191l-0.001-0.001c0.297 0.275 0.695 0.443 1.133 0.443 0.038 0 0.075-0.001 0.112-0.004l-0.005 0 14-0.91c0.455-0.046 0.86-0.227 1.183-0.503l-0.003 0.003 4.79-6.55c0.074-0.066 0.12-0.162 0.12-0.268 0-0.004-0-0.008-0-0.012v0.001c-0.004-0.112-0.062-0.21-0.149-0.269l-0.001-0.001-5.42-6c-0.333-0.225-0.738-0.367-1.174-0.39l-0.006-0z"></path>
<path d="M19.7 15.35c-0-0.006-0-0.013-0-0.020 0-0.922 0.748-1.67 1.67-1.67s1.67 0.748 1.67 1.67c0 0.922-0.748 1.67-1.67 1.67v0c0 0-0 0-0 0-0.919 0-1.664-0.742-1.67-1.659v-0.001z"></path>
</svg>
