<!-- Generated by IcoMoon.io -->
<svg version="1.1" xmlns="http://www.w3.org/2000/svg" width="32" height="32" viewBox="0 0 32 32">
<title>ropa-y-zapatos</title>
<path d="M26.633 14.039c-0.377-0.83-2.941-3.921-3.469-4.525-1.433-1.659-4.374-2.262-4.525-2.338 0 0-0.075 0-0.075 0s0 0-0.075 0-0.075 0-0.151 0.075c0 0 0 0 0 0-0.452 0.377-1.357 0.528-2.262 0.528s-1.734-0.226-2.262-0.528c0 0 0 0 0 0-0.075 0-0.075-0.075-0.151-0.075 0 0 0 0-0.075 0 0 0-0.075 0-0.075 0-0.151 0-3.092 0.679-4.525 2.338-0.528 0.603-3.167 3.695-3.469 4.525-0.075 0.151 0 0.302 0.075 0.377 0.226 0.226 0.754 0.754 1.282 1.282 0.905 0.83 1.885 1.81 2.262 1.961 0.075 0 0.075 0 0.151 0 0 0 0 0 0.075 0 0 0 0 0 0.075 0s0.075-0.075 0.151-0.075c0 0 0 0 0 0l0.226-0.226v7.843c0 0.226 0.151 0.377 0.377 0.377h11.99c0.226 0 0.377-0.151 0.377-0.377v-7.918l0.226 0.226c0 0 0 0 0 0 0.075 0.075 0.075 0.075 0.151 0.075 0 0 0 0 0.075 0 0 0 0 0 0.075 0s0.075 0 0.151 0c0.528-0.226 2.79-2.489 3.469-3.243-0.075 0 0-0.151-0.075-0.302zM18.187 8.082c0 0.377-0.151 0.83-0.452 1.131-0.377 0.377-0.905 0.603-1.659 0.603s-1.357-0.226-1.659-0.603c-0.302-0.377-0.377-0.83-0.452-1.131 0 0 0.075 0 0.075 0 0.075 0 0.075 0.075 0.151 0.075 0.151 0.075 0.226 0.075 0.377 0.151 0.075 0 0.151 0 0.226 0.075 0.151 0 0.302 0.075 0.452 0.075 0.075 0 0.151 0 0.226 0 0.226 0 0.452 0 0.679 0s0.452 0 0.679 0c0.075 0 0.151 0 0.226 0 0.151 0 0.302-0.075 0.452-0.075 0.075 0 0.151 0 0.226-0.075 0.151 0 0.226-0.075 0.377-0.151-0.075 0 0 0 0.075-0.075 0 0 0 0 0 0zM6.347 14.115c0.075-0.075 0.151-0.226 0.226-0.302 0 0 0.075-0.075 0.075-0.151 0.075-0.075 0.151-0.151 0.226-0.302 0.075-0.075 0.075-0.151 0.151-0.151 0.075-0.075 0.151-0.226 0.226-0.302s0.075-0.151 0.151-0.226c0.075-0.075 0.151-0.226 0.226-0.302 0-0.075 0.075-0.151 0.151-0.226s0.151-0.226 0.226-0.302c0.075-0.075 0.151-0.151 0.226-0.302 0.075-0.075 0.151-0.226 0.302-0.302 0.075-0.075 0.151-0.151 0.226-0.302 0.075-0.075 0.151-0.226 0.226-0.302s0.151-0.151 0.226-0.302c0.075-0.075 0.151-0.151 0.151-0.226 0.302 0.302 0.377 0.98 0.377 0.98v5.203l-0.528 0.528c-0.528-0.377-1.734-1.584-2.866-2.715zM21.731 24.748h-11.312v-13.574c0-0.075 0-0.98-0.603-1.508 0.98-0.905 2.639-1.508 3.393-1.734 0 0.452 0.151 1.131 0.603 1.734s1.207 0.83 2.187 0.83 1.734-0.302 2.187-0.83c0.452-0.528 0.603-1.282 0.603-1.734 0.754 0.226 2.413 0.754 3.393 1.734-0.528 0.528-0.603 1.433-0.603 1.508v13.574zM23.013 16.83l-0.528-0.528v-5.128c0 0 0-0.679 0.377-0.98 0.075 0.075 0.151 0.151 0.226 0.226s0.151 0.151 0.226 0.226c0.075 0.151 0.226 0.226 0.302 0.377 0.075 0.075 0.151 0.151 0.226 0.226 0.075 0.151 0.226 0.226 0.302 0.377 0.075 0.075 0.151 0.151 0.226 0.226 0.075 0.151 0.151 0.226 0.302 0.377 0.075 0.075 0.151 0.151 0.151 0.226 0.075 0.151 0.151 0.226 0.226 0.302s0.075 0.151 0.151 0.151 0.151 0.226 0.226 0.302c0 0.075 0.075 0.075 0.151 0.151s0.151 0.226 0.226 0.302c0 0 0.075 0.075 0.075 0.075 0.075 0.151 0.151 0.226 0.226 0.302-1.357 1.207-2.639 2.413-3.092 2.79z"></path>
</svg>
