<!-- Generated by IcoMoon.io -->
<svg version="1.1" xmlns="http://www.w3.org/2000/svg" width="32" height="32" viewBox="0 0 32 32">
<title>search</title>
<path d="M26.32 23.72l-5.21-4.43c-0.405-0.409-0.96-0.669-1.576-0.69l-0.004-0c1.225-1.431 1.97-3.303 1.97-5.35 0-4.556-3.694-8.25-8.25-8.25s-8.25 3.694-8.25 8.25c0 4.556 3.694 8.25 8.25 8.25 2.047 0 3.919-0.745 5.361-1.979l-0.011 0.009c0.021 0.62 0.281 1.175 0.69 1.58l0 0 4.43 5.21c0.342 0.426 0.862 0.696 1.446 0.696 1.022 0 1.85-0.828 1.85-1.85 0-0.584-0.27-1.104-0.692-1.443l-0.004-0.003zM13.25 18.72c-3.038 0-5.5-2.462-5.5-5.5s2.462-5.5 5.5-5.5c3.038 0 5.5 2.462 5.5 5.5v0c0 3.038-2.462 5.5-5.5 5.5v0z"></path>
</svg>
