<svg id="icn-seller" xmlns="http://www.w3.org/2000/svg" width="32" height="32" viewBox="0 0 48 48">
			<title>icn-seller</title>
			<g fill="#333333">
	            <path d="M37.7217,23.7312 L25.4397,43.0102 L8.9947,32.5322 L21.2767,13.2542 C21.4927,12.9152 22.1867,12.4292 22.5787,12.3422 L31.7067,10.3182 C31.5157,11.9302 31.8067,13.3462 32.5817,14.2142 C32.7697,14.4242 33.0297,14.5312 33.2897,14.5312 C33.5157,14.5312 33.7427,14.4512 33.9227,14.2892 C34.3147,13.9392 34.3477,13.3382 33.9977,12.9472 C33.5607,12.4582 33.4137,11.2882 33.7137,9.8732 L35.2007,9.5432 L37.9977,22.1652 C38.0847,22.5572 37.9377,23.3922 37.7217,23.7312 Z M37.0007,4.9752 C37.2747,4.8792 37.4987,4.8772 37.6697,4.9662 C38.3717,5.3312 38.6847,7.4572 37.5757,9.9582 C37.5037,10.1202 37.4207,10.2712 37.3417,10.4252 L36.9997,8.8862 C36.8307,8.1202 36.1457,7.5952 35.3897,7.5952 C35.2737,7.5952 35.1547,7.6072 35.0347,7.6342 L34.4557,7.7622 C35.2817,6.0892 36.3247,5.2122 37.0007,4.9752 Z M37.9057,12.9662 C38.0507,12.8392 38.1837,12.6902 38.2837,12.5502 C38.6767,11.9972 39.0227,11.3832 39.3127,10.7272 C40.7607,7.4622 40.4317,4.2612 38.5467,3.2802 C37.9017,2.9442 37.1507,2.9092 36.3727,3.1812 C34.9057,3.6952 33.4747,5.2502 32.5487,7.3402 C32.4117,7.6482 32.2957,7.9582 32.1897,8.2652 L22.1677,10.4862 C21.2837,10.6832 20.1607,11.4682 19.6737,12.2332 L7.2567,31.7252 C6.7697,32.4882 6.9967,33.5132 7.7607,33.9992 L24.6327,44.7482 C24.9047,44.9212 25.2097,45.0042 25.5127,45.0042 C26.0577,45.0042 26.5937,44.7342 26.9067,44.2432 L39.3247,24.7522 C39.8107,23.9882 40.0487,22.6382 39.8527,21.7532 L37.9057,12.9662 Z"/>
			</g>
		</svg>