<!-- Generated by IcoMoon.io -->
<svg version="1.1" xmlns="http://www.w3.org/2000/svg" width="32" height="32" viewBox="0 0 32 32">
<title>send-money</title>
<path d="M13.46 20.080h12.54c0.552 0 1-0.448 1-1v0-6.14c0-0.552-0.448-1-1-1v0h-12.54c-0.552 0-1 0.448-1 1v0 6.12c0 0.552 0.448 1 1 1v0zM13.16 12.92c0-0 0-0 0-0 0-0.168 0.133-0.304 0.3-0.31h12.54c0 0 0 0 0 0 0.166 0 0.3 0.134 0.3 0.3 0 0.004-0 0.007-0 0.011v-0.001 6.12c0 0.003 0 0.006 0 0.010 0 0.166-0.134 0.3-0.3 0.3-0 0-0 0-0 0h-12.54c-0.167-0.006-0.3-0.142-0.3-0.31 0-0 0-0 0-0v0z"></path>
<path d="M19.73 18.65c1.464 0 2.65-1.186 2.65-2.65s-1.186-2.65-2.65-2.65c-1.464 0-2.65 1.186-2.65 2.65v0c0 1.464 1.186 2.65 2.65 2.65v0zM19.73 14.060c1.071 0 1.94 0.869 1.94 1.94s-0.869 1.94-1.94 1.94c-1.071 0-1.94-0.869-1.94-1.94v0c0-1.071 0.869-1.94 1.94-1.94v0z"></path>
<path d="M14 17.81c0.058 0.044 0.132 0.071 0.212 0.071 0.031 0 0.062-0.004 0.091-0.012l-0.002 0.001c0.042-0.008 0.090-0.012 0.139-0.012 0.144 0 0.279 0.038 0.395 0.104l-0.004-0.002c0.194 0.14 0.33 0.351 0.369 0.595l0.001 0.005c0.034 0.16 0.173 0.279 0.34 0.28h0.46c0.171-0.030 0.3-0.177 0.3-0.355s-0.129-0.325-0.298-0.355l-0.002-0h-0.18c-0.114-0.325-0.328-0.59-0.604-0.766l-0.006-0.004c-0.179-0.116-0.395-0.189-0.627-0.2l-0.003-0v-2.32c0.235-0.011 0.451-0.084 0.635-0.203l-0.005 0.003c0.282-0.18 0.496-0.445 0.607-0.76l0.003-0.010h0.18c0.171-0.030 0.3-0.177 0.3-0.355s-0.129-0.325-0.298-0.355l-0.002-0h-0.45c-0.167 0.001-0.306 0.12-0.34 0.278l-0 0.002c-0.18 0.78-0.74 0.72-0.9 0.69-0.027-0.007-0.058-0.012-0.090-0.012-0.193 0-0.35 0.157-0.35 0.35 0 0.001 0 0.001 0 0.002v-0 3.060c0 0.114 0.055 0.215 0.139 0.279l0.001 0.001z"></path>
<path d="M19.1 16.76c0.092 0.159 0.251 0.271 0.437 0.3l0.003 0v0.1c0.015 0.091 0.093 0.16 0.188 0.16 0.001 0 0.002 0 0.003-0h-0c0 0 0.001 0 0.001 0 0.092 0 0.168-0.070 0.179-0.159l0-0.001v-0.1c0.118-0.021 0.222-0.067 0.312-0.132l-0.002 0.002c0.128-0.086 0.217-0.221 0.24-0.377l0-0.003c0.004-0.024 0.006-0.053 0.006-0.081 0-0.26-0.174-0.479-0.412-0.548l-0.004-0.001-0.14-0.060v-0.57c0.043 0.011 0.080 0.031 0.11 0.060l-0-0c0.063 0.061 0.114 0.134 0.148 0.216l0.002 0.004c0.020 0.067 0.067 0.121 0.129 0.149l0.001 0.001c0.009 0.002 0.020 0.004 0.031 0.004 0.066 0 0.121-0.049 0.129-0.113l0-0.001c0.001-0.011 0.001-0.023 0.001-0.035 0-0.112-0.038-0.214-0.102-0.296l0.001 0.001c-0.054-0.076-0.121-0.139-0.197-0.188l-0.003-0.002c-0.070-0.054-0.154-0.093-0.247-0.11l-0.003-0.001v-0.14c-0.010-0.090-0.087-0.16-0.179-0.16-0 0-0.001 0-0.001 0h0c-0.080 0-0.19 0.070-0.19 0.16v0.16c-0.218 0.052-0.389 0.215-0.449 0.426l-0.001 0.004c-0.012 0.043-0.019 0.091-0.019 0.142 0 0.124 0.041 0.238 0.11 0.33l-0.001-0.001c0.104 0.111 0.241 0.19 0.395 0.219l0.005 0.001v0.65c-0.077-0.028-0.139-0.081-0.179-0.148l-0.001-0.002c-0.050-0.070-0.070-0.16-0.13-0.23s-0.18-0.090-0.22 0c-0.016 0.035-0.026 0.076-0.026 0.12s0.010 0.085 0.027 0.122l-0.001-0.002 0.080 0.13zM19.94 16.19s0 0 0.050 0c0.112 0.042 0.191 0.148 0.191 0.272 0 0.067-0.023 0.129-0.061 0.178l0-0.001c-0.042 0.061-0.105 0.104-0.178 0.12l-0.002 0zM19.39 15.64c-0.090-0.15 0.050-0.31 0.18-0.36v0.51c-0.079-0.024-0.143-0.078-0.179-0.148l-0.001-0.002z"></path>
<path d="M24.24 17.36c-0.282 0.18-0.496 0.445-0.607 0.76l-0.003 0.010h-0.18c-0.171 0.030-0.3 0.177-0.3 0.355s0.129 0.325 0.298 0.355l0.002 0h0.45c0.167-0.001 0.306-0.12 0.34-0.278l0-0.002c0.19-0.78 0.74-0.72 0.9-0.69 0.027 0.007 0.058 0.011 0.089 0.011 0.083 0 0.159-0.026 0.222-0.071l-0.001 0.001c0.079-0.068 0.13-0.168 0.13-0.28v-3.060c-0-0.112-0.051-0.212-0.13-0.28l-0-0c-0.059-0.044-0.133-0.070-0.214-0.070-0.031 0-0.060 0.004-0.089 0.011l0.003-0.001c-0.17 0-0.72 0.090-0.91-0.69-0.029-0.16-0.168-0.28-0.335-0.28-0.002 0-0.004 0-0.006 0h-0.45c-0.171 0.030-0.3 0.177-0.3 0.355s0.129 0.325 0.298 0.355l0.002 0h0.18c0.114 0.325 0.328 0.59 0.604 0.766l0.006 0.004c0.179 0.116 0.395 0.189 0.627 0.2l0.003 0v2.32c-0.235 0.011-0.451 0.084-0.635 0.203l0.005-0.003z"></path>
<path d="M6.77 14.9h4.62c0.171-0.030 0.3-0.177 0.3-0.355s-0.129-0.325-0.298-0.355l-0.002-0h-4.62c-0.171 0.030-0.3 0.177-0.3 0.355s0.129 0.325 0.298 0.355l0.002 0z"></path>
<path d="M5.36 16.32h6c0.171-0.030 0.3-0.177 0.3-0.355s-0.129-0.325-0.298-0.355l-0.002-0h-6c-0.018-0.003-0.039-0.005-0.060-0.005-0.199 0-0.36 0.161-0.36 0.36s0.161 0.36 0.36 0.36c0.021 0 0.042-0.002 0.062-0.005l-0.002 0z"></path>
<path d="M6.77 17.81h4.62c0.171-0.030 0.3-0.177 0.3-0.355s-0.129-0.325-0.298-0.355l-0.002-0h-4.62c-0.171 0.030-0.3 0.177-0.3 0.355s0.129 0.325 0.298 0.355l0.002 0z"></path>
</svg>
