<!-- Generated by IcoMoon.io -->
<svg version="1.1" xmlns="http://www.w3.org/2000/svg" width="32" height="32" viewBox="0 0 32 32">
<title>sol-elektra</title>
<path d="M21 15.26c1.070-0.1 2.002-0.625 2.634-1.403l0.006-0.007c0.615-0.648 0.993-1.525 0.993-2.491 0-0.622-0.157-1.207-0.433-1.718l0.009 0.019c-0.387-0.611-0.889-1.113-1.481-1.489l-0.019-0.011-0.24-0.73-0.47-1.61-1.94 1.18 0.68 2.27c3.88 2.35 0.3 6 0.3 6z"></path>
<path d="M23.56 14.77c0.031 0.169 0.048 0.362 0.048 0.56 0 0.881-0.346 1.68-0.909 2.271l0.001-0.001c-0.552 0.753-1.433 1.236-2.426 1.236-0.582 0-1.126-0.166-1.586-0.453l0.013 0.007c-0.835-0.578-1.467-1.397-1.8-2.357l-0.010-0.033c2.42-2.39 2.12-4.92 0.79-7.25-0.868-1.442-2.289-2.475-3.962-2.813l-0.038-0.006c-1.542 0.495-2.875 1.25-4.016 2.223l0.016-0.013 2.18 2.55c0.55-0.482 1.276-0.776 2.070-0.776 0.259 0 0.511 0.031 0.751 0.090l-0.022-0.004c1.516 0.214 2.669 1.502 2.67 3.060v0c-0.057 1.076-0.467 2.046-1.115 2.807l0.005-0.007c-3.22-0.86-5.22 0.61-6.59 2.97-0.454 0.841-0.721 1.84-0.721 2.902 0 0.726 0.125 1.424 0.354 2.071l-0.013-0.043c1.080 1.028 2.367 1.85 3.792 2.394l0.078 0.026 1.1-3.18c-0.967-0.367-1.702-1.151-1.994-2.127l-0.006-0.023c-0.139-0.342-0.22-0.738-0.22-1.154 0-1.142 0.612-2.142 1.526-2.688l0.014-0.008c0.604-0.324 1.322-0.514 2.084-0.514 0.306 0 0.605 0.031 0.894 0.089l-0.029-0.005c0.82 3.34 3.15 4.33 5.8 4.33 1.77-0.054 3.34-0.866 4.403-2.121l0.007-0.009c0.189-0.79 0.297-1.698 0.297-2.631 0-0.699-0.061-1.384-0.178-2.050l0.010 0.071z"></path>
<path d="M13.52 12.66c-0.579-0.839-1.468-1.429-2.497-1.607l-0.023-0.003c-0.254-0.065-0.545-0.103-0.845-0.103-1.273 0-2.388 0.675-3.006 1.688l-0.009 0.015c-0.312 0.602-0.505 1.311-0.53 2.062l-0 0.008-0.49 0.57-1.12 1.26 1.94 1.13 1.6-1.68c0.060-4.63 5-3.31 5-3.31z"></path>
<path d="M20.36 23.24c-4 2.24-5.29-2.73-5.29-2.73-0.234 0.484-0.371 1.053-0.371 1.654 0 0.483 0.089 0.946 0.25 1.372l-0.009-0.027c0.411 1.474 1.718 2.547 3.284 2.6l0.006 0c0.739-0.045 1.422-0.251 2.025-0.582l-0.025 0.012 0.73 0.16 1.64 0.34v-2.27z"></path>
</svg>
