<!-- Generated by IcoMoon.io -->
<svg version="1.1" xmlns="http://www.w3.org/2000/svg" width="32" height="32" viewBox="0 0 32 32">
<title>tag</title>
<path d="M24.14 7h-6.88c-0.564 0.020-1.075 0.232-1.473 0.573l0.003-0.003-8.51 8.59c-0.153 0.16-0.247 0.376-0.247 0.615s0.094 0.456 0.247 0.615l7.36 7.36c0.159 0.153 0.376 0.247 0.615 0.247s0.456-0.094 0.615-0.247l8.51-8.51c0.362-0.386 0.593-0.899 0.62-1.465l0-0.005v-6.87c0.005-0.033 0.008-0.072 0.008-0.111 0-0.436-0.354-0.79-0.79-0.79-0.010 0-0.020 0-0.029 0.001l0.001-0zM19.93 13.87c-0.95 0-1.72-0.77-1.72-1.72s0.77-1.72 1.72-1.72c0.95 0 1.72 0.77 1.72 1.72v0c0 0.012 0 0.026 0 0.040 0 0.928-0.752 1.68-1.68 1.68-0.014 0-0.028-0-0.043-0.001l0.002 0z"></path>
</svg>
