<!-- Generated by IcoMoon.io -->
<svg version="1.1" xmlns="http://www.w3.org/2000/svg" width="32" height="32" viewBox="0 0 32 32">
<title>target1</title>
<path d="M24.826 14.621c-0.619-3.843-3.614-6.838-7.406-7.45l-0.051-0.007v-2.112h-2.748v2.112c-3.842 0.622-6.834 3.615-7.45 7.405l-0.007 0.052h-2.112v2.748h2.112c0.622 3.842 3.615 6.834 7.405 7.45l0.052 0.007v2.172h2.748v-2.172c3.843-0.619 6.838-3.614 7.45-7.406l0.007-0.051h2.172v-2.748zM15.995 22.361c-3.516 0-6.366-2.85-6.366-6.366s2.85-6.366 6.366-6.366c3.516 0 6.366 2.85 6.366 6.366v0c0 3.516-2.85 6.366-6.366 6.366v0z"></path>
<path d="M15.995 18.966c-1.641 0-2.971-1.33-2.971-2.971s1.33-2.971 2.971-2.971c1.641 0 2.971 1.33 2.971 2.971v0c0 1.641-1.33 2.971-2.971 2.971v0z"></path>
</svg>
