<!-- Generated by IcoMoon.io -->
<svg version="1.1" xmlns="http://www.w3.org/2000/svg" width="32" height="32" viewBox="0 0 32 32">
<title>telefonia</title>
<path d="M16 23.67c-0.525 0-0.95 0.425-0.95 0.95s0.425 0.95 0.95 0.95c0.525 0 0.95-0.425 0.95-0.95v0c-0.026-0.514-0.436-0.924-0.948-0.95l-0.002-0z"></path>
<path d="M16 7.86c0.265 0 0.48-0.215 0.48-0.48s-0.215-0.48-0.48-0.48c-0.265 0-0.48 0.215-0.48 0.48v0c0.005 0.263 0.217 0.475 0.479 0.48h0.001z"></path>
<path d="M23.61 22.72v0-15.34c-0.006-1.312-1.068-2.374-2.379-2.38h-10.471c-1.31 0.006-2.37 1.069-2.37 2.38 0 0 0 0 0 0v0 17.24c0.006 1.312 1.068 2.374 2.379 2.38h10.471c1.31-0.006 2.37-1.069 2.37-2.38 0 0 0 0 0-0v0zM10.7 5.74h10.6c0.889 0 1.61 0.721 1.61 1.61v1.65h-13.82v-1.65c0-0.889 0.721-1.61 1.61-1.61v0zM22.91 9.41v13.17h-13.82v-13.17zM21.14 26.23h-10.29c-0.003 0-0.006 0-0.010 0-0.966 0-1.75-0.784-1.75-1.75 0 0 0-0 0-0v0-1.48h13.82v1.47c0 0 0 0 0 0 0 0.972-0.788 1.76-1.76 1.76-0.004 0-0.007 0-0.011-0h0.001z"></path>
</svg>
