<!-- Generated by IcoMoon.io -->
<svg version="1.1" xmlns="http://www.w3.org/2000/svg" width="32" height="32" viewBox="0 0 32 32">
<title>trashcan</title>
<path d="M23.77 8.79c-0.035-0.237-0.236-0.417-0.48-0.42h-4.75l-0.11-1.92c-0.010-0.238-0.194-0.429-0.428-0.45l-0.002-0h-4c-0.006-0-0.013-0-0.020-0-0.249 0-0.45 0.201-0.45 0.45 0 0 0 0 0 0v-0l-0.090 1.92h-4.74c-0.244 0.003-0.445 0.183-0.48 0.417l-0 0.003-0.41 2.68c0.008 0.142 0.052 0.272 0.122 0.383l-0.002-0.003c0.088 0.102 0.216 0.167 0.359 0.17h0.521c-0.007 0.033-0.011 0.071-0.011 0.11s0.004 0.077 0.012 0.114l-0.001-0.004 1 12.67c0.094 0.594 0.583 1.049 1.186 1.090l0.004 0h10c0.019 0.001 0.041 0.002 0.063 0.002 0.622 0 1.137-0.458 1.226-1.055l0.001-0.007 1-12.67c0.005-0.038 0.007-0.081 0.007-0.125s-0.003-0.087-0.008-0.13l0 0.005h0.53c0 0 0.001 0 0.001 0 0.139 0 0.264-0.062 0.348-0.159l0-0.001c0.065-0.088 0.105-0.199 0.105-0.319 0-0.025-0.002-0.049-0.005-0.073l0 0.003zM14.5 7h3l0.070 1.31h-3.14zM8.86 11.1l0.26-1.73h13.79l0.25 1.73zM22.27 12.1c0.005 0.013 0.007 0.029 0.007 0.045s-0.003 0.032-0.008 0.046l0-0.001-1 12.67c-0.068 0.076-0.162 0.128-0.268 0.14l-0.002 0h-10c-0.23 0-0.35-0.090-0.35-0.19l-1-12.67s0-0.060 0.060-0.090 0.090 0 0.14-0.060h12.2c0.050 0 0.1 0 0.14 0.060z"></path>
<path d="M15.9 24.27c0.261-0.011 0.469-0.219 0.48-0.479l0-0.001v-9.090c0-0.265-0.215-0.48-0.48-0.48v0c-0.263 0.005-0.475 0.217-0.48 0.479v9.091c0.011 0.261 0.219 0.469 0.479 0.48l0.001 0z"></path>
<path d="M18.49 24.27c0.261-0.011 0.469-0.219 0.48-0.479l0-0.001v-9.090c0-0.265-0.215-0.48-0.48-0.48v0c-0.263 0.005-0.475 0.217-0.48 0.479v9.091c0.011 0.261 0.219 0.469 0.479 0.48l0.001 0z"></path>
<path d="M13.28 24.27c0.261-0.011 0.469-0.219 0.48-0.479l0-0.001v-9.090c-0.005-0.263-0.217-0.475-0.479-0.48h-0.001c-0.265 0-0.48 0.215-0.48 0.48v0 9.090c0.011 0.261 0.219 0.469 0.479 0.48l0.001 0z"></path>
</svg>
