<!-- Generated by IcoMoon.io -->
<svg version="1.1" xmlns="http://www.w3.org/2000/svg" width="32" height="32" viewBox="0 0 32 32">
<title>trashcan-full</title>
<path d="M25.22 10.23c0-0.060-0.12-0.060-0.19-0.1h-18.030c-0.080 0-0.17 0-0.21 0.1s-0.11 0.090-0.11 0.13l1.44 18.7c0 0.15 0.19 0.27 0.5 0.27h14.7c0.005 0 0.010 0 0.015 0 0.204 0 0.383-0.107 0.483-0.268l0.001-0.002 1.44-18.7c-0.005-0.053-0.031-0.099-0.070-0.13l-0-0zM12.68 27.5c-0.025 0.387-0.333 0.695-0.718 0.72l-0.002 0c-0.385-0.026-0.69-0.334-0.71-0.718l-0-0.002v-13.41c0.005-0.383 0.316-0.692 0.7-0.692 0.018 0 0.035 0.001 0.052 0.002l-0.002-0c0.006-0 0.013-0 0.020-0 0.383 0 0.694 0.308 0.7 0.69v0.001zM16.54 27.5c-0.005 0.389-0.313 0.704-0.698 0.72l-0.002 0c-0.387-0.025-0.695-0.333-0.72-0.718l-0-0.002v-13.41c0-0.392 0.318-0.71 0.71-0.71s0.71 0.318 0.71 0.71v0zM20.37 27.5c-0.020 0.386-0.325 0.694-0.708 0.72l-0.002 0c-0.387-0.016-0.695-0.331-0.7-0.72v-13.41c0.044-0.354 0.343-0.626 0.705-0.626s0.662 0.272 0.705 0.622l0 0.003z"></path>
<path d="M26.55 8.72h-21.1l0.38-2.55h20.34l0.38 2.55z"></path>
<path d="M18.31 4.61h-4.62l0.11-1.94h4.43l0.080 1.94z"></path>
</svg>
