<!-- Generated by IcoMoon.io -->
<svg version="1.1" xmlns="http://www.w3.org/2000/svg" width="32" height="32" viewBox="0 0 32 32">
<title>user</title>
<path d="M16 5c-6.075 0-11 4.925-11 11s4.925 11 11 11c6.075 0 11-4.925 11-11v0c0-6.075-4.925-11-11-11v0zM16 8.67c2.529 0 4.58 2.051 4.58 4.58s-2.051 4.58-4.58 4.58c-2.529 0-4.58-2.051-4.58-4.58v0c-0-0.006-0-0.013-0-0.020 0-2.518 2.042-4.56 4.56-4.56 0.007 0 0.014 0 0.021 0h-0.001zM22.050 22.88c-1.603 1.421-3.725 2.289-6.050 2.289s-4.447-0.868-6.060-2.297l0.010 0.008c-0.199-0.164-0.325-0.411-0.325-0.688 0-0.233 0.089-0.444 0.235-0.603l-0.001 0.001c1.006-1.144 2.31-2.002 3.792-2.455l0.058-0.015c0.665 0.35 1.454 0.555 2.29 0.555s1.625-0.205 2.317-0.568l-0.027 0.013c1.549 0.444 2.859 1.307 3.841 2.459l0.009 0.011c0.164 0.152 0.266 0.369 0.266 0.609 0 0.281-0.14 0.529-0.353 0.679l-0.003 0.002z"></path>
</svg>
