<!-- Generated by IcoMoon.io -->
<svg version="1.1" xmlns="http://www.w3.org/2000/svg" width="32" height="32" viewBox="0 0 32 32">
<title>viajes</title>
<path d="M5.4 18.42l0.75 1.13c0.89 1.33 1.74 2.65 2.63 4 0.104 0.168 0.242 0.306 0.405 0.407l0.005 0.003c0.184 0.16 0.427 0.257 0.692 0.257 0.067 0 0.132-0.006 0.195-0.018l-0.007 0.001c0.493-0.131 0.893-0.453 1.125-0.881l0.005-0.009c0.138-0.276 0.218-0.602 0.218-0.946 0-0.161-0.018-0.317-0.051-0.468l0.003 0.014-0.070-0.37c-0.070-0.38-0.14-0.75-0.21-1.16 1.37-0.89 2.73-1.77 4.13-2.63l0.41-0.27 0.17 0.34c0.245 0.447 0.462 0.968 0.625 1.512l0.015 0.058 1.5 5.32c0.092 0.374 0.188 0.681 0.3 0.98l-0.020-0.060c0.104 0.45 0.501 0.78 0.976 0.78 0.009 0 0.017-0 0.026-0l-0.001 0c0.148-0.004 0.288-0.029 0.42-0.073l-0.010 0.003c0.145-0.033 0.272-0.078 0.392-0.135l-0.012 0.005c0.623-0.222 1.111-0.69 1.355-1.285l0.005-0.015c0.113-0.315 0.179-0.677 0.179-1.056 0-0.082-0.003-0.164-0.009-0.245l0.001 0.011-0.38-7.77c0-0.65-0.060-1.27-0.1-1.91-0.007-0.037-0.012-0.081-0.012-0.125 0-0.255 0.14-0.477 0.348-0.594l0.003-0.002 1-0.71c0.78-0.55 1.53-1.090 2.32-1.67 0.572-0.385 1.055-0.849 1.449-1.384l0.011-0.016c0.301-0.385 0.565-0.822 0.774-1.29l0.016-0.040c0.062-0.149 0.098-0.322 0.098-0.504 0-0.411-0.185-0.779-0.476-1.025l-0.002-0.002c-0.271-0.221-0.62-0.354-1.001-0.354-0.042 0-0.084 0.002-0.125 0.005l0.005-0c-0.855 0.068-1.633 0.346-2.299 0.782l0.019-0.011c-0.64 0.38-1.29 0.82-2.11 1.4-0.38 0.27-0.75 0.54-1.12 0.85s-0.48 0.37-0.72 0.55c-0.151 0.119-0.345 0.191-0.555 0.191-0.069 0-0.136-0.008-0.201-0.023l0.006 0.001c-0.198-0.068-0.36-0.136-0.517-0.212l0.027 0.012c-1.39-0.65-2.76-1.3-4.12-2l-3.77-1.77c-0.215-0.107-0.486-0.222-0.763-0.322l-0.057-0.018c-0.154-0.073-0.335-0.115-0.526-0.115-0.263 0-0.507 0.080-0.708 0.218l0.004-0.003c-0.49 0.313-0.9 0.706-1.221 1.166l-0.009 0.014c-0.119 0.163-0.19 0.366-0.19 0.587 0 0.26 0.099 0.496 0.261 0.674l-0.001-0.001 0.45 0.44c1.43 1.16 2.82 2.36 4.26 3.48 0.541 0.39 1 0.849 1.378 1.372l0.012 0.018c0.1 0.14 0.17 0.28 0.27 0.45l-3.17 2.55-1 0.82c-0.070 0-0.1-0.070-0.17-0.1l-0.49-0.23c-0.38-0.24-0.75-0.45-1.090-0.65-0.17-0.108-0.378-0.173-0.6-0.173-0.265 0-0.509 0.091-0.702 0.244l0.002-0.002c-0.254 0.171-0.476 0.348-0.683 0.542l0.003-0.002c-0.227 0.151-0.375 0.405-0.375 0.694 0 0.187 0.062 0.359 0.166 0.498l-0.002-0.002c0.092 0.090 0.172 0.192 0.236 0.303l0.004 0.007zM5.81 17.46l0.61-0.51c0.081-0.055 0.182-0.088 0.29-0.088s0.209 0.033 0.292 0.090l-0.002-0.001c0.38 0.21 0.72 0.45 1.1 0.65l0.44 0.27c0.1 0.070 0.17 0.11 0.24 0.17 0.078 0.064 0.18 0.103 0.29 0.103s0.212-0.039 0.291-0.104l-0.001 0.001c0.37-0.31 0.75-0.61 1.12-0.89l3.61-2.89-0.090-0.37c-0.048-0.095-0.095-0.173-0.145-0.248l0.005 0.008c-0.1-0.17-0.2-0.34-0.31-0.51-0.448-0.584-0.958-1.088-1.53-1.515l-0.020-0.015c-1.43-1.16-2.82-2.32-4.26-3.48-0.131-0.12-0.252-0.244-0.365-0.374l-0.005-0.006c-0.17-0.17-0.14-0.27 0-0.4 0.289-0.396 0.637-0.728 1.035-0.991l0.015-0.009c0.090-0.046 0.197-0.072 0.31-0.072s0.22 0.027 0.314 0.074l-0.004-0.002 0.78 0.31 3.76 1.74c1.37 0.65 2.76 1.3 4.16 2 0.167 0.087 0.361 0.156 0.566 0.198l0.014 0.002c0.122 0.037 0.262 0.058 0.408 0.058 0.351 0 0.673-0.124 0.925-0.33l-0.003 0.002c0.24-0.17 0.48-0.37 0.71-0.54l1.13-0.79c0.82-0.58 1.46-1 2.080-1.4 0.547-0.333 1.198-0.552 1.894-0.609l0.016-0.001c0.040-0.008 0.087-0.013 0.134-0.013 0.381 0 0.69 0.309 0.69 0.69 0 0.087-0.016 0.171-0.046 0.248l0.002-0.005c-0.2 0.415-0.427 0.773-0.689 1.101l0.009-0.011c-0.362 0.48-0.792 0.885-1.281 1.208l-0.019 0.012c-0.75 0.55-1.53 1.090-2.31 1.64l-1 0.68c-0.413 0.248-0.686 0.694-0.686 1.204 0 0.044 0.002 0.088 0.006 0.132l-0-0.006c0 0.61 0.070 1.26 0.1 1.87l0.38 7.77c0.004 0.054 0.007 0.116 0.007 0.179 0 0.295-0.054 0.577-0.152 0.837l0.005-0.016c-0.182 0.44-0.542 0.774-0.989 0.917l-0.011 0.003-0.3 0.1c-0.35 0.1-0.45 0-0.55-0.27s-0.17-0.62-0.27-0.89l-1.5-5.32c-0.22-0.663-0.464-1.224-0.749-1.761l0.029 0.061-0.47-1-0.38 0.21c-0.011-0.003-0.023-0.004-0.035-0.004s-0.024 0.002-0.036 0.004l0.001-0-0.58 0.54c-1.39 0.89-2.79 1.81-4.19 2.7-0.149 0.086-0.247 0.244-0.247 0.426 0 0.030 0.003 0.059 0.008 0.087l-0-0.003c0.070 0.41 0.14 0.82 0.21 1.26l0.070 0.37c0.025 0.103 0.040 0.222 0.040 0.344 0 0.238-0.055 0.464-0.154 0.665l0.004-0.009c-0.139 0.278-0.396 0.479-0.704 0.539l-0.006 0.001c-0.070 0-0.14 0-0.31-0.13-0.095-0.065-0.175-0.145-0.238-0.237l-0.002-0.003c-0.88-1.33-1.74-2.66-2.62-4l-0.65-1.11-0.21-0.3c-0.060-0.17-0.060-0.17 0.070-0.31z"></path>
</svg>
