<!-- Generated by IcoMoon.io -->
<svg version="1.1" xmlns="http://www.w3.org/2000/svg" width="32" height="32" viewBox="0 0 32 32">
<title>videojuegos</title>
<path d="M26.93 19.94l-1.66-8c-0.258-1.158-1.129-2.063-2.248-2.365l-0.022-0.005v-1.32c-0.005-0.171-0.14-0.309-0.309-0.32l-0.001-0h-3.36c-0.175 0.005-0.315 0.145-0.32 0.319v1.221h-6.010v-1.22c0-0.003 0-0.007 0-0.010 0-0.168-0.133-0.304-0.3-0.31h-3.401c-0.167 0.005-0.3 0.142-0.3 0.31 0 0.004 0 0.007 0 0.011v-0.001 1.32c-1.14 0.298-2.011 1.202-2.256 2.34l-0.004 0.020-1.67 8c-0.040 0.196-0.063 0.421-0.063 0.652 0 1.642 1.157 3.014 2.7 3.344l0.022 0.004c0.201 0.042 0.433 0.067 0.669 0.067 1.636 0 3.002-1.155 3.327-2.694l0.004-0.022c0.256-1.148 1.263-1.994 2.469-2h3.501c1.208 0.002 2.217 0.85 2.467 1.983l0.003 0.017c0.193 0.914 0.73 1.677 1.467 2.162l0.013 0.008c0.528 0.347 1.174 0.556 1.869 0.56h0.001c0.249-0.003 0.491-0.032 0.723-0.084l-0.023 0.004h0.060c1.561-0.343 2.711-1.714 2.711-3.354 0-0.229-0.022-0.452-0.065-0.668l0.004 0.022zM19.63 8.56h2.75v0.92h-2.75zM9.63 8.56h2.76v0.91h-2.78zM24.14 23.38h-0.050c-0.175 0.039-0.376 0.061-0.582 0.061-0.56 0-1.082-0.164-1.519-0.448l0.011 0.007c-0.608-0.41-1.046-1.033-1.206-1.761l-0.003-0.019c-0.307-1.436-1.564-2.498-3.070-2.5h-3.43c-1.504 0.006-2.76 1.066-3.066 2.479l-0.004 0.021c-0.154 0.753-0.599 1.38-1.209 1.773l-0.011 0.007c-0.43 0.283-0.958 0.452-1.525 0.452-0.207 0-0.409-0.023-0.603-0.065l0.019 0.003h-0.040c-1.287-0.279-2.236-1.408-2.236-2.759 0-0.199 0.021-0.392 0.060-0.579l-0.003 0.018 1.66-8c0.236-1.145 1.233-1.994 2.429-2h12.481c1.194 0.007 2.188 0.856 2.417 1.984l0.003 0.016 1.67 8c0.036 0.168 0.056 0.361 0.056 0.559 0 1.354-0.955 2.485-2.227 2.758l-0.018 0.003z"></path>
<path d="M11 10.82c-0.003 0-0.006 0-0.010 0-1.778 0-3.22 1.442-3.22 3.22s1.442 3.22 3.22 3.22c1.778 0 3.22-1.442 3.22-3.22 0-0.014-0-0.028-0-0.042l0 0.002c-0.017-1.76-1.448-3.18-3.21-3.18-0 0-0 0-0 0v0zM11 16.88c-0.003 0-0.006 0-0.010 0-1.574 0-2.85-1.276-2.85-2.85s1.276-2.85 2.85-2.85c1.563 0 2.833 1.259 2.85 2.818v0.002c0 0.009 0 0.019 0 0.030 0 1.571-1.27 2.844-2.84 2.85h-0.001z"></path>
<path d="M21 10.82c-1.774 0.006-3.21 1.445-3.21 3.22 0 1.778 1.442 3.22 3.22 3.22s3.22-1.442 3.22-3.22c0-0.014-0-0.028-0-0.042l0 0.002c-0.023-1.761-1.455-3.18-3.22-3.18-0.004 0-0.007 0-0.011 0h0.001zM21 16.88c-1.57-0.006-2.84-1.28-2.84-2.85 0-1.574 1.276-2.85 2.85-2.85 1.563 0 2.833 1.259 2.85 2.818v0.002c0 0.006 0 0.013 0 0.020 0 1.58-1.28 2.86-2.86 2.86-0 0-0 0-0 0v0z"></path>
<path d="M9 14.67h1.35v1.33c0 0.072 0.058 0.13 0.13 0.13v0h1c0.072 0 0.13-0.058 0.13-0.13v0-1.33h1.39c0.072 0 0.13-0.058 0.13-0.13v0-1c0-0.003 0-0.006 0-0.010 0-0.072-0.058-0.13-0.13-0.13-0 0-0 0-0 0h-1.39v-1.35c0-0.072-0.058-0.13-0.13-0.13v0h-1c-0.072 0-0.13 0.058-0.13 0.13v1.35h-1.35c-0.072 0-0.13 0.058-0.13 0.13v0 1c0 0.072 0.058 0.13 0.13 0.13v0z"></path>
<path d="M19.5 14.77c-0 0-0 0-0 0-0.337 0-0.61-0.273-0.61-0.61 0-0.004 0-0.007 0-0.011v0.001c0.040-0.302 0.296-0.532 0.605-0.532s0.565 0.23 0.605 0.529l0 0.003c0 0.003 0 0.007 0 0.010 0 0.333-0.267 0.604-0.6 0.61h-0.001z"></path>
<path d="M20.1 14.15c0.003 0.023 0.005 0.050 0.005 0.078 0 0.337-0.273 0.61-0.61 0.61s-0.61-0.273-0.61-0.61c0-0.027 0.002-0.055 0.005-0.081l-0 0.003c0.040-0.302 0.296-0.532 0.605-0.532s0.565 0.23 0.605 0.529l0 0.003z"></path>
<path d="M23.14 14.15c0.003 0.023 0.005 0.050 0.005 0.078 0 0.337-0.273 0.61-0.61 0.61s-0.61-0.273-0.61-0.61c0-0.027 0.002-0.055 0.005-0.081l-0 0.003c0.040-0.302 0.296-0.532 0.605-0.532s0.565 0.23 0.605 0.529l0 0.003z"></path>
<path d="M21.62 15.68c0 0.337-0.273 0.61-0.61 0.61s-0.61-0.273-0.61-0.61c0-0.337 0.273-0.61 0.61-0.61v0c0.337 0 0.61 0.273 0.61 0.61v0z"></path>
<path d="M21.62 12.64c-0.016 0.324-0.283 0.58-0.609 0.58-0.337 0-0.61-0.273-0.61-0.61 0-0.333 0.267-0.604 0.599-0.61h0.001c0.335 0.006 0.604 0.275 0.61 0.609v0.001z"></path>
<path d="M14.54 16.35c-0.028-0.003-0.061-0.005-0.094-0.005-0.486 0-0.88 0.394-0.88 0.88s0.394 0.88 0.88 0.88c0.033 0 0.066-0.002 0.098-0.005l-0.004 0c0.476-0.006 0.86-0.393 0.86-0.87 0-0 0-0 0-0v0c0-0 0-0 0-0 0-0.479-0.383-0.869-0.859-0.88l-0.001-0zM14.54 17.76c-0.293 0-0.53-0.237-0.53-0.53v0c0.037-0.26 0.258-0.457 0.525-0.457s0.488 0.198 0.525 0.455l0 0.003c0 0 0 0 0 0 0 0.289-0.232 0.524-0.519 0.53h-0.001z"></path>
<path d="M17 16.35c-0.028-0.003-0.061-0.005-0.094-0.005-0.486 0-0.88 0.394-0.88 0.88s0.394 0.88 0.88 0.88c0.033 0 0.066-0.002 0.098-0.005l-0.004 0c0.444-0.049 0.786-0.422 0.786-0.875s-0.342-0.826-0.782-0.875l-0.004-0zM17 17.76c-0.293 0-0.53-0.237-0.53-0.53v0c0.037-0.26 0.258-0.457 0.525-0.457s0.488 0.198 0.525 0.455l0 0.003c0 0 0 0 0 0 0 0.289-0.232 0.524-0.519 0.53h-0.001z"></path>
</svg>
